<!-- Generator: Adobe Illustrator 19.0.0, SVG Export Plug-In . SVG Version: 6.00 Build 0)  -->
<!-- License: CC0. Made by SVG Repo: https://www.svgrepo.com/svg/240074/error-close -->
<svg version="1.1" id="Layer_1" xmlns="http://www.w3.org/2000/svg" xmlns:xlink="http://www.w3.org/1999/xlink" x="0px" y="0px" viewBox="0 0 32 32" style="enable-background:new 0 0 511.76 511.76;" xml:space="preserve" fill="#ad1818" width="32" height="32"><g><g><path d="M27.319 4.682c-6.243 -6.242 -16.396 -6.242 -22.639 0 -6.24 6.242 -6.24 16.397 0 22.639 3.121 3.12 7.221 4.68 11.32 4.68s8.197 -1.559 11.319 -4.68c6.242 -6.242 6.242 -16.397 0 -22.639m-4.717 16.036c0.522 0.522 0.522 1.365 0 1.886a1.331 1.331 0 0 1 -0.943 0.391 1.331 1.331 0 0 1 -0.943 -0.391l-4.716 -4.717 -4.714 4.716a1.335 1.335 0 0 1 -0.943 0.391 1.331 1.331 0 0 1 -0.943 -0.391c-0.522 -0.522 -0.522 -1.366 0 -1.886l4.714 -4.716 -4.716 -4.716c-0.522 -0.522 -0.522 -1.366 0 -1.886 0.52 -0.522 1.365 -0.522 1.886 0l4.716 4.716 4.716 -4.716c0.522 -0.522 1.365 -0.522 1.886 0 0.522 0.52 0.522 1.365 0 1.886l-4.716 4.716z"/></g></g></svg>