<?xml version="1.0" encoding="utf-8"?>
<!-- License: MIT. Made by Gitlab: https://gitlab.com/gitlab-org/gitlab-svgs?ref=iconduck.com -->
<svg width="32px" height="32px" viewBox="0 0 0.64 0.64" xmlns="http://www.w3.org/2000/svg"><path fill="#ad9318" fill-rule="evenodd" d="M0.12 0a0.04 0.04 0 0 0 0 0.08v0.047a0.12 0.12 0 0 0 0.035 0.085L0.263 0.32l-0.108 0.108A0.12 0.12 0 0 0 0.12 0.513V0.56a0.04 0.04 0 1 0 0 0.08h0.4a0.04 0.04 0 1 0 0 -0.08v-0.047a0.12 0.12 0 0 0 -0.035 -0.085L0.377 0.32l0.108 -0.108A0.12 0.12 0 0 0 0.52 0.127V0.08a0.04 0.04 0 1 0 0 -0.08zm0.32 0.08H0.2v0.047a0.04 0.04 0 0 0 0.012 0.028L0.217 0.16h0.207l0.005 -0.005A0.04 0.04 0 0 0 0.44 0.127zM0.32 0.377l-0.108 0.108a0.04 0.04 0 0 0 -0.012 0.028V0.56h0.24v-0.047a0.04 0.04 0 0 0 -0.012 -0.028z"/></svg>