<!-- Generator: Adobe Illustrator 19.0.0, SVG Export Plug-In . SVG Version: 6.00 Build 0)  -->
<!-- License: CC0. Made by SVG Repo: https://www.svgrepo.com/svg/240078/success -->
<svg version="1.1" id="Layer_1" xmlns="http://www.w3.org/2000/svg" xmlns:xlink="http://www.w3.org/1999/xlink" x="0px" y="0px" viewBox="0 0 32 32" style="enable-background:new 0 0 511.755 511.755;" xml:space="preserve" fill="#18ad1a" width="32" height="32"><g><g><path d="M27.319 4.681c-6.242 -6.242 -16.396 -6.242 -22.638 0 -6.242 6.24 -6.242 16.397 0 22.638 3.12 3.121 7.219 4.681 11.319 4.681s8.197 -1.559 11.319 -4.681c6.242 -6.24 6.242 -16.397 0 -22.638M24.947 11.607 15.609 20.945a1.331 1.331 0 0 1 -0.943 0.391 1.331 1.331 0 0 1 -0.943 -0.391l-5.336 -5.336c-0.522 -0.522 -0.522 -1.365 0 -1.886s1.365 -0.522 1.886 0l4.393 4.393 8.395 -8.395c0.522 -0.522 1.365 -0.522 1.886 0s0.522 1.365 0 1.886"/></g></g></svg>