<!-- License: MIT. Made by vmware: https://github.com/vmware/clarity-assets -->
<svg fill="#000000" width="32px" height="32px" viewBox="0 0 1.44 1.44" version="1.1" preserveAspectRatio="xMidYMid meet" xmlns="http://www.w3.org/2000/svg" xmlns:xlink="http://www.w3.org/1999/xlink"><title>warning-solid</title><path class="clr-i-solid clr-i-solid-path-1" d="M1.213 1.022 0.824 0.304a0.12 0.12 0 0 0 -0.211 0L0.223 1.022A0.12 0.12 0 0 0 0.328 1.2h0.779a0.12 0.12 0 0 0 0.106 -0.177Zm-0.555 -0.512a0.06 0.06 0 0 1 0.12 0v0.276a0.06 0.06 0 1 1 -0.12 0ZM0.72 1.05a0.069 0.069 0 1 1 0.069 -0.069A0.069 0.069 0 0 1 0.72 1.05"/><path x="0" y="0" width="36" height="36" fill-opacity="0" d="M0 0H1.44V1.44H0V0z"/></svg>