<?xml version="1.0" encoding="UTF-8"?>
<svg id="Layer_1" data-name="Layer 1" xmlns="http://www.w3.org/2000/svg" viewBox="0 0 30.04 29.72">
  <defs>
    <style>
      .cls-1 {
        fill: #9f4693;
      }

      .cls-1, .cls-2, .cls-3 {
        stroke-width: 0px;
      }

      .cls-4 {
        stroke: #9f4693;
        stroke-width: .75px;
      }

      .cls-4, .cls-2 {
        fill: #d85d9a;
      }

      .cls-4, .cls-5, .cls-6 {
        stroke-miterlimit: 10;
      }

      .cls-5 {
        stroke-width: 2px;
      }

      .cls-5, .cls-6 {
        fill: none;
        stroke: #633762;
      }

      .cls-3 {
        fill: #633762;
      }
    </style>
  </defs>
  <g>
    <path class="cls-2" d="M23.44,6.02c0,2.02-2.62,1.71-5.53,5.53-1.47,1.93-1.87,3.33-2.85,3.31-.97-.02-1.29-1.41-2.67-3.31-2.76-3.8-5.53-3.46-5.53-5.53,0-2.64,2.8-5.86,5.53-5.52,1.64.21,2.67,1.64,2.95,2.03,2.67,3.72-.05,9.17-.26,9.58-.36-.89-2.26-5.86.26-9.58.38-.57,1.21-1.79,2.58-2.03,2.55-.44,5.53,2.8,5.53,5.53h-.01Z"/>
    <path class="cls-2" d="M3.22,12.02c1.75-1.01,2.79,1.41,7.55,2.02,2.41.31,3.82-.04,4.29.82.47.85-.57,1.83-1.53,3.97-1.91,4.29-.24,6.52-2.02,7.55-2.29,1.32-6.48.51-7.55-2.02-.64-1.52.09-3.14.28-3.57,1.89-4.18,7.97-4.54,8.43-4.56-.6.76-3.95,4.89-8.43,4.56-.68-.05-2.16-.16-3.04-1.22-1.66-1.99-.34-6.18,2.02-7.55Z"/>
    <path class="cls-2" d="M11.6,3.18c1.75,1.01.17,3.12,2.02,7.55.94,2.24,1.95,3.28,1.44,4.12-.5.83-1.87.42-4.2.66-4.67.49-5.76,3.05-7.55,2.02-2.29-1.32-3.68-5.36-2.02-7.55,1-1.32,2.76-1.49,3.23-1.54,4.56-.45,7.92,4.63,8.17,5.02-.95-.14-6.21-.97-8.17-5.02-.3-.62-.94-1.95-.47-3.25.89-2.43,5.18-3.39,7.55-2.02h0Z"/>
    <path class="cls-1" d="M4.15,18.23c-.34,0-.69-.09-1.07-.3-1.36-.78-2.47-2.47-2.84-4.3-.31-1.52-.06-2.91.69-3.9.64-.85,1.63-1.4,2.93-1.63-.32-.75-.65-1.9-.23-3.04.4-1.1,1.41-1.99,2.85-2.5,1.83-.66,3.93-.57,5.34.25h0c1.09.63,1.14,1.63,1.2,2.89.05,1.16.13,2.75,1.01,4.87.3.72.61,1.31.88,1.83.58,1.11,1,1.92.53,2.69-.46.76-1.33.77-2.52.78-.58,0-1.24.01-2.01.09-2.25.24-3.61.96-4.7,1.53-.75.4-1.39.74-2.06.74ZM4.26,8.93c-1.2.17-2.08.62-2.62,1.33-.6.79-.78,1.92-.53,3.18.32,1.59,1.27,3.05,2.42,3.71.65.38,1.14.15,2.26-.45,1.1-.58,2.6-1.38,5.02-1.63.82-.09,1.53-.09,2.1-.1,1.06-.01,1.57-.03,1.77-.35.2-.33-.04-.83-.56-1.82-.26-.51-.59-1.14-.91-1.9-.95-2.27-1.02-3.95-1.08-5.18-.06-1.26-.11-1.79-.75-2.16h0c-1.18-.68-3.02-.75-4.59-.18-1.16.42-2.01,1.14-2.31,1.97-.36.97.03,1.99.32,2.62,4.65-.2,7.9,4.67,8.27,5.24l.53.82-.97-.14c-1.46-.21-6.31-1.18-8.36-4.98v.02ZM5.26,8.87c1.57,2.51,4.59,3.54,6.4,3.95-1.09-1.37-3.46-3.86-6.4-3.95Z"/>
    <path class="cls-2" d="M6.68,23.69c0-2.02,2.62-1.71,5.53-5.53,1.47-1.93,1.87-3.33,2.85-3.31.97.02,1.29,1.41,2.67,3.31,2.76,3.8,5.53,3.46,5.53,5.53,0,2.65-2.8,5.87-5.53,5.53-1.64-.21-2.67-1.64-2.95-2.03-2.67-3.72.05-9.17.26-9.58.36.89,2.26,5.86-.26,9.58-.38.57-1.21,1.79-2.58,2.03-2.55.44-5.53-2.8-5.53-5.53h0Z"/>
    <path class="cls-2" d="M18.52,26.53c-1.75-1.01-.17-3.12-2.02-7.55-.94-2.24-1.95-3.28-1.44-4.12.5-.83,1.87-.42,4.2-.66,4.67-.49,5.76-3.05,7.55-2.02,2.29,1.32,3.68,5.36,2.02,7.55-1,1.32-2.76,1.49-3.23,1.54-4.56.45-7.92-4.63-8.17-5.02.95.14,6.21.97,8.17,5.02.3.62.94,1.95.47,3.25-.89,2.43-5.18,3.39-7.55,2.02h0Z"/>
    <path class="cls-4" d="M26.9,17.7c-1.75,1.01-2.79-1.41-7.55-2.02-2.41-.31-3.82.04-4.29-.82-.47-.85.57-1.83,1.53-3.97,1.91-4.29.24-6.52,2.02-7.55,2.29-1.32,6.48-.51,7.55,2.02.64,1.52-.09,3.14-.28,3.57-1.89,4.18-7.97,4.54-8.43,4.56.6-.76,3.95-4.89,8.43-4.56.68.05,2.16.16,3.04,1.22,1.66,1.99.34,6.18-2.02,7.55Z"/>
    <path class="cls-1" d="M8.89,27.45c-.77,0-1.56-.12-2.31-.37-1.47-.49-2.55-1.4-3.03-2.55-.41-.98-.4-2.11.05-3.35-.81-.1-1.97-.39-2.75-1.32-.75-.9-1.01-2.22-.75-3.72.34-1.92,1.48-3.69,2.89-4.5h0c1.09-.63,1.98-.17,3.1.41,1.03.53,2.45,1.27,4.73,1.56.78.1,1.44.13,2.03.15,1.25.05,2.16.09,2.6.89.43.78,0,1.53-.58,2.58-.29.51-.61,1.08-.93,1.79-.92,2.07-.98,3.6-1.02,4.83-.05,1.27-.08,2.28-1.19,2.92-.79.45-1.79.69-2.84.69h0ZM4.53,21.25c-.45,1.12-.51,2.11-.16,2.93.38.91,1.27,1.64,2.49,2.05,1.54.52,3.27.43,4.42-.24.65-.38.7-.91.74-2.18.04-1.24.11-2.94,1.1-5.16.33-.75.68-1.37.96-1.87.52-.92.76-1.38.58-1.71-.19-.34-.73-.38-1.86-.43-.57-.03-1.29-.06-2.1-.16-2.44-.31-3.93-1.09-5.02-1.65-1.12-.58-1.6-.8-2.24-.43-1.18.68-2.16,2.24-2.46,3.89-.22,1.22-.02,2.31.55,2.99.66.79,1.74.97,2.43,1.04,2.12-4.12,8-4.51,8.68-4.54l.97-.04-.6.77c-.91,1.16-4.19,4.89-8.49,4.75h0ZM11.6,16.78c-1.73.26-5.07,1.07-6.62,3.57,2.96-.11,5.36-2.21,6.62-3.57Z"/>
    <path class="cls-1" d="M11.73,29.7c-1,0-2.05-.44-3.03-1.26-1.49-1.26-2.46-3.12-2.46-4.75,0-1.26.84-1.8,1.9-2.48.98-.63,2.32-1.49,3.71-3.31.48-.62.83-1.18,1.15-1.68.67-1.06,1.14-1.82,2.07-1.81.89.02,1.33.76,1.94,1.8.29.5.63,1.07,1.09,1.7,1.33,1.83,2.63,2.64,3.68,3.3,1.08.68,1.94,1.21,1.94,2.49,0,1.57-.9,3.38-2.31,4.62-1.16,1.03-2.48,1.5-3.72,1.35-.75-.09-1.82-.48-2.88-1.72-.5.65-1.32,1.51-2.52,1.72-.18.03-.37.05-.56.05v-.02ZM15.04,15.3c-.38,0-.69.45-1.29,1.39-.31.48-.69,1.09-1.19,1.74-1.49,1.95-2.91,2.86-3.94,3.53-1.06.68-1.49.99-1.49,1.73,0,1.36.86,2.99,2.14,4.07.95.8,1.99,1.17,2.87,1.02,1.01-.18,1.71-1.02,2.11-1.59-2.5-3.88.09-9.18.4-9.78l.45-.87.36.91c.55,1.37,2.13,6.05-.13,9.73.74.95,1.57,1.49,2.46,1.6.97.12,2.05-.28,3.02-1.14,1.22-1.07,2-2.62,2-3.95,0-.75-.44-1.06-1.52-1.73-1.05-.66-2.49-1.56-3.93-3.53-.48-.67-.84-1.28-1.13-1.77-.54-.91-.81-1.35-1.19-1.36h0ZM15,18.82c-.64,1.63-1.61,4.93-.22,7.52,1.38-2.62.77-5.75.22-7.52Z"/>
    <path class="cls-1" d="M15.08,15.3h-.03c-.89-.02-1.33-.76-1.94-1.8-.29-.5-.63-1.07-1.09-1.7-1.33-1.83-2.63-2.64-3.68-3.3-1.08-.68-1.94-1.21-1.94-2.49,0-1.57.9-3.38,2.31-4.62C9.88.38,11.21-.1,12.44.05c1.06.13,2.02.71,2.88,1.72.49-.65,1.32-1.51,2.52-1.72,1.15-.2,2.43.23,3.59,1.21,1.49,1.26,2.46,3.12,2.46,4.75,0,1.26-.84,1.8-1.9,2.48-.98.63-2.32,1.49-3.71,3.31-.48.62-.83,1.18-1.15,1.68-.67,1.05-1.15,1.81-2.04,1.81h-.01ZM11.98.92c-.88,0-1.82.4-2.67,1.16-1.22,1.07-2,2.62-2,3.95,0,.75.44,1.06,1.52,1.73,1.05.66,2.49,1.56,3.92,3.53.48.66.84,1.28,1.13,1.77.54.91.81,1.35,1.19,1.36h0c.38,0,.69-.45,1.29-1.39.31-.48.69-1.09,1.19-1.74,1.49-1.95,2.91-2.86,3.94-3.52,1.06-.68,1.49-.99,1.49-1.73,0-1.36-.86-2.99-2.14-4.07-.95-.8-1.99-1.17-2.86-1.02-1.01.18-1.71,1.02-2.11,1.59,2.55,3.97-.28,9.54-.41,9.78l-.45.86-.36-.9c-.55-1.37-2.13-6.05.13-9.73-.75-.95-1.57-1.49-2.46-1.6-.12,0-.23-.02-.35-.02h.01ZM15.34,3.38c-1.38,2.62-.77,5.75-.22,7.52.64-1.63,1.61-4.92.22-7.52Z"/>
    <path class="cls-1" d="M21.14,27.6c-1.05,0-2.05-.23-2.84-.69h0c-1.09-.63-1.14-1.63-1.2-2.89-.05-1.16-.13-2.75-1.01-4.87-.3-.72-.61-1.31-.88-1.83-.58-1.11-1-1.92-.53-2.69.46-.76,1.33-.77,2.52-.78.58,0,1.24-.01,2.01-.09,2.25-.24,3.61-.96,4.7-1.53,1.13-.6,2.02-1.07,3.12-.43,1.36.78,2.47,2.47,2.84,4.3.31,1.52.06,2.91-.69,3.9-.46.6-1.32,1.34-2.93,1.63.32.75.65,1.9.23,3.04-.4,1.1-1.41,1.99-2.85,2.5-.81.29-1.67.44-2.5.44h.01ZM18.75,26.14c1.18.68,3.02.75,4.59.18,1.16-.42,2.01-1.14,2.31-1.97.35-.96-.03-1.99-.32-2.62-4.61.25-7.9-4.67-8.27-5.24l-.53-.82.97.14c1.46.21,6.31,1.19,8.36,4.98,1.2-.17,2.08-.62,2.62-1.33.6-.79.78-1.92.53-3.19-.32-1.59-1.27-3.05-2.42-3.71-.65-.38-1.13-.15-2.26.45-1.1.58-2.6,1.38-5.02,1.63-.82.09-1.53.09-2.1.1-1.06.01-1.57.03-1.77.35-.2.33.04.83.56,1.82.26.51.59,1.14.91,1.9.95,2.27,1.03,3.95,1.08,5.18.06,1.26.11,1.79.75,2.16h.01ZM18.46,16.89c1.09,1.37,3.46,3.86,6.4,3.95-1.57-2.5-4.59-3.54-6.4-3.95Z"/>
  </g>
  <g>
    <path class="cls-5" d="M14.5,14.14l5.91,3.49"/>
    <polygon class="cls-3" points="17.57 18.79 19.71 17.22 20.06 14.58 23.8 19.64 17.57 18.79"/>
  </g>
  <g>
    <line class="cls-5" x1="15" y1="14.86" x2="15" y2="6.05"/>
    <polygon class="cls-3" points="17.44 7.9 15 6.86 12.55 7.9 15 2.11 17.44 7.9"/>
  </g>
  <g>
    <line class="cls-5" x1="15" y1="14.41" x2="6.19" y2="14.41"/>
    <polygon class="cls-3" points="8.04 11.96 7 14.41 8.04 16.85 2.25 14.41 8.04 11.96"/>
  </g>
  <g>
    <path class="cls-6" d="M19.58,6.92c1.4.8,2.56,1.96,3.36,3.36.09.16.18.32.26.49"/>
    <path class="cls-3" d="M24.09,13.65c-.94-1.19-2.34-2.58-3.59-3.32l2.53.08,1.99-1.56c-.57,1.33-.87,3.29-.93,4.8Z"/>
  </g>
  <g>
    <path class="cls-6" d="M9.49,8.11c-.27.21-.57.46-.89.77-.46.44-1.03,1.08-1.57,1.95"/>
    <path class="cls-3" d="M11.58,6.91c-1.19.23-2.77.34-3.91.14l1.57,1.27.39,1.98c.35-1.1,1.19-2.45,1.95-3.39Z"/>
  </g>
  <g>
    <path class="cls-6" d="M8.97,21.77c.45.39.93.73,1.44,1.03,1.35.78,2.91,1.23,4.58,1.23,1.24,0,2.42-.25,3.5-.7"/>
    <path class="cls-3" d="M7.06,19.44c.52,1.42.98,3.35.97,4.79l1.25-2.2,2.37-.89c-1.43-.21-3.26-.97-4.58-1.71Z"/>
  </g>
  <g>
    <line class="cls-6" x1="15" y1="5.69" x2="15" y2="4.6"/>
    <path class="cls-3" d="M15,3.39c.21.57.57,1.27.95,1.71l-.95-.34-.95.34c.38-.44.74-1.14.95-1.71Z"/>
  </g>
</svg>