<?xml version="1.0" encoding="UTF-8"?>
<svg id="Layer_1" data-name="Layer 1" xmlns="http://www.w3.org/2000/svg" viewBox="0 0 32.75 32.75">
  <defs>
    <style>
      .cls-1 {
        fill: #5c3942;
        stroke-width: 0px;
      }

      .cls-2 {
        fill: #1e9983;
        stroke: #23636b;
      }

      .cls-2, .cls-3 {
        stroke-miterlimit: 10;
        stroke-width: .75px;
      }

      .cls-3 {
        fill: #f3d040;
        stroke: #d59a4d;
      }
    </style>
  </defs>
  <g>
    <path class="cls-1" d="M27.51,14.21c-.12-.08-.25-.13-.37-.16-.04-.01-.09-.03-.13-.05l-.38-.14c-.49-.18-.98-.36-1.46-.55-.3-.12-.5-.28-.58-.47-.08-.19-.06-.45.08-.76.28-.63.56-1.28.88-1.9.58-1.13-.29-1.83-.58-2.06-.15-.12-.29-.28-.44-.44-.46-.52-1.03-1.16-2.1-.64-.63.3-1.3.62-1.97.9-.28.12-.52.14-.7.06-.19-.08-.35-.27-.46-.56-.31-.76-.59-1.52-.82-2.16-.23-.63-.74-.96-1.35-.88-.25.03-.51,0-.8-.02-.66-.07-1.48-.15-2.06.69-.08.12-.12.25-.16.36-.01.05-.03.09-.05.14l-.68,1.78c-.13.34-.29.56-.49.64-.19.08-.44.06-.74-.08-.69-.3-1.36-.62-2.04-.94-.64-.29-1.24-.16-1.63.36-.15.19-.35.36-.57.54-.5.41-1.11.91-.96,1.89.02.13.08.24.13.33.02.04.04.07.06.12l.19.41c.22.48.44.96.65,1.45.14.32.17.57.09.76-.08.2-.29.36-.65.5-.63.25-1.29.5-1.95.72-.76.26-1.11.86-1,1.7.03.21,0,.45-.01.7-.06.71-.13,1.59,1,2.01.27.1.54.2.81.3.39.15.78.29,1.17.45.34.13.54.29.63.48.08.19.05.44-.08.77-.05.13-.12.26-.18.39l-.13.28c-.12.27-.22.5-.32.7-.11.23-.19.43-.26.6.21-.15.46-.24.73-.28.01-.03.02-.05.04-.09.09-.2.2-.43.32-.7l.12-.27c.07-.14.13-.28.19-.42.2-.47.23-.86.08-1.2-.14-.34-.45-.59-.93-.78-.39-.16-.79-.3-1.18-.45-.27-.1-.53-.2-.8-.3-.71-.27-.71-.7-.65-1.45.02-.27.04-.55,0-.81-.08-.58.12-.93.63-1.1.67-.23,1.33-.48,1.99-.74.49-.19.8-.45.95-.79.14-.34.11-.73-.09-1.19-.21-.49-.44-.98-.66-1.46l-.18-.4s-.05-.1-.07-.15c-.03-.06-.06-.13-.07-.17-.1-.62.23-.93.77-1.37.23-.19.47-.39.66-.63.24-.31.56-.38.96-.19.68.32,1.36.64,2.05.94.45.19.85.22,1.18.08.34-.15.61-.47.8-.95l.68-1.78c.02-.05.04-.11.06-.17.03-.09.05-.17.09-.22.38-.54.84-.52,1.55-.46.3.03.62.06.92.02.36-.04.61.13.75.52.23.65.51,1.41.82,2.18.17.43.43.73.76.87.33.14.71.12,1.14-.06.69-.29,1.36-.61,2-.91.67-.32.97-.03,1.45.51.16.18.32.36.51.51.58.47.7.85.44,1.37-.32.63-.61,1.29-.9,1.94-.19.45-.22.85-.08,1.18.14.34.44.59.88.77.49.19.98.37,1.47.55l.38.14c.05.02.11.04.16.06.09.03.17.05.22.09h0c.53.37.52.82.45,1.51-.03.3-.06.6-.02.9.05.4-.13.67-.52.82-.71.26-1.41.53-2.11.8-.48.19-.78.45-.92.78-.14.34-.11.73.09,1.21.12.28.25.56.38.83.16.34.32.68.46,1.03.05.13.09.27.12.43.01.06.03.11.04.18-.02.04-.04.09-.06.13-.06.14-.11.27-.19.35-.24.24-.45.45-.63.64q-1,1.02-2.19.47c-.2-.09-.43-.2-.71-.32-.1-.04-.2-.09-.3-.13-.11-.05-.22-.1-.32-.14-.53-.23-.93-.27-1.26-.13-.34.14-.59.46-.8.99-.21.53-.42,1.07-.62,1.61l-.04.11c-.02.06-.04.12-.06.18-.02.08-.05.16-.08.21-.36.55-.81.54-1.51.47-.18-.02-.37-.03-.56-.03-.11,0-.21,0-.32.02-.4.06-.69-.11-.84-.5l-.14-.38c-.22-.6-.44-1.2-.68-1.79-.18-.45-.44-.75-.77-.89-.34-.14-.73-.11-1.18.08-.44.2-.89.4-1.33.61,0,.19-.02.38-.08.55-.01.04-.03.08-.05.12.56-.26,1.12-.52,1.68-.77.3-.13.55-.16.74-.08.19.08.35.27.47.58.24.59.46,1.18.68,1.78l.14.38c.23.63.76.94,1.43.86.23-.03.49,0,.75.02.18.02.37.03.56.03.52,0,1.06-.13,1.47-.75.08-.12.12-.25.15-.36.01-.05.03-.09.05-.14l.04-.11c.2-.54.41-1.07.62-1.6.15-.39.31-.61.5-.69.19-.08.46-.04.83.13.1.04.2.09.31.14.11.05.21.1.31.14.26.12.49.22.69.32,1.47.68,1.6.66,2.82-.59.18-.18.38-.39.62-.63.16-.16.24-.35.31-.53.03-.06.05-.13.08-.19l.05-.09-.09-.36c-.05-.19-.08-.36-.15-.52-.15-.35-.31-.7-.47-1.04-.13-.27-.25-.55-.37-.82-.14-.33-.17-.59-.09-.78.08-.19.28-.35.61-.48.7-.28,1.39-.54,2.1-.8.65-.24.97-.75.88-1.41-.03-.24,0-.5.02-.77.06-.65.14-1.45-.69-2.02Z"/>
    <path class="cls-2" d="M21.91,9.44c-.19,1.63-2.4,3.73-5.52,3.73-3.11,0-5.35-2.09-5.52-3.73-.14-1.33,1.16-1.67,3.09-4.4,2.02-2.86,2.17-4.7,2.92-4.66.75.03.49,1.85,2.1,4.59,1.59,2.71,3.09,3.04,2.92,4.48Z"/>
    <path class="cls-2" d="M10.84,23.31c.19-1.63,2.4-3.73,5.52-3.73,3.11,0,5.35,2.09,5.52,3.73.14,1.33-1.16,1.67-3.09,4.4-2.02,2.86-2.17,4.7-2.92,4.66-.75-.03-.49-1.85-2.1-4.59-1.59-2.71-3.09-3.04-2.92-4.48Z"/>
    <path class="cls-2" d="M9.44,10.84c1.63.19,3.73,2.4,3.73,5.52,0,3.11-2.09,5.35-3.73,5.52-1.33.14-1.67-1.16-4.4-3.09-2.86-2.02-4.7-2.17-4.66-2.92.03-.75,1.85-.49,4.59-2.1,2.71-1.59,3.04-3.09,4.48-2.92Z"/>
    <path class="cls-2" d="M23.31,21.91c-1.63-.19-3.73-2.4-3.73-5.52,0-3.11,2.09-5.35,3.73-5.52,1.33-.14,1.67,1.16,4.4,3.09,2.86,2.02,4.7,2.17,4.66,2.92-.03.75-1.85.49-4.59,2.1-2.71,1.59-3.04,3.09-4.48,2.92Z"/>
    <path class="cls-2" d="M15.39,7.56c1.02,1.29.94,4.34-1.26,6.54-2.2,2.2-5.26,2.3-6.54,1.26-1.03-.84-.36-2-.93-5.3-.59-3.45-1.78-4.86-1.23-5.37.55-.51,1.65.96,4.73,1.76,3.04.79,4.33-.03,5.23,1.1Z"/>
    <path class="cls-2" d="M7.56,17.36c1.29-1.02,4.34-.94,6.54,1.26,2.2,2.2,2.3,5.26,1.26,6.54-.84,1.03-2,.36-5.3.93-3.45.59-4.86,1.78-5.37,1.23-.51-.55.96-1.65,1.76-4.73.79-3.04-.03-4.33,1.1-5.23Z"/>
    <path class="cls-2" d="M17.36,25.19c-1.02-1.29-.94-4.34,1.26-6.54,2.2-2.2,5.26-2.3,6.54-1.26,1.03.84.36,2,.93,5.3.59,3.45,1.78,4.86,1.23,5.37-.55.51-1.65-.96-4.73-1.76-3.04-.79-4.33.03-5.23-1.1Z"/>
    <path class="cls-2" d="M25.19,15.39c-1.29,1.02-4.34.94-6.54-1.26-2.2-2.2-2.3-5.26-1.26-6.54.84-1.03,2-.36,5.3-.93,3.45-.59,4.86-1.78,5.37-1.23.51.55-.96,1.65-1.76,4.73-.79,3.04.03,4.33-1.1,5.23Z"/>
  </g>
  <g>
    <rect class="cls-3" x="5.82" y="17.4" width="4.7" height="14.1" transform="translate(16.35 48.89) rotate(-180)"/>
    <rect class="cls-3" x="5.82" y="17.4" width="4.7" height="14.1" transform="translate(32.62 16.27) rotate(90)"/>
  </g>
</svg>