<?xml version="1.0" encoding="UTF-8"?>
<svg id="Layer_1" data-name="Layer 1" xmlns="http://www.w3.org/2000/svg" xmlns:xlink="http://www.w3.org/1999/xlink" viewBox="0 0 32.37 32.34">
  <defs>
    <style>
      .cls-1 {
        clip-path: url(#clippath-11);
      }

      .cls-2 {
        clip-path: url(#clippath-2);
      }

      .cls-3 {
        clip-path: url(#clippath-13);
      }

      .cls-4 {
        fill: #955949;
        stroke: #5c3942;
      }

      .cls-4, .cls-5 {
        stroke-miterlimit: 10;
        stroke-width: .5px;
      }

      .cls-6 {
        clip-path: url(#clippath-15);
      }

      .cls-7 {
        clip-path: url(#clippath-6);
      }

      .cls-8 {
        fill: none;
        stroke-width: 0px;
      }

      .cls-9 {
        clip-path: url(#clippath-7);
      }

      .cls-10 {
        clip-path: url(#clippath-1);
      }

      .cls-11 {
        clip-path: url(#clippath-4);
      }

      .cls-12 {
        clip-path: url(#clippath-12);
      }

      .cls-13 {
        clip-path: url(#clippath-9);
      }

      .cls-14 {
        clip-path: url(#clippath);
      }

      .cls-15 {
        clip-path: url(#clippath-3);
      }

      .cls-16 {
        clip-path: url(#clippath-8);
      }

      .cls-17 {
        clip-path: url(#clippath-14);
      }

      .cls-18 {
        clip-path: url(#clippath-5);
      }

      .cls-19 {
        clip-path: url(#clippath-10);
      }

      .cls-5 {
        fill: #f3d040;
        stroke: #d59a4d;
      }
    </style>
    <clipPath id="clippath">
      <rect class="cls-8" x="16.37" y="20.77" width="6.65" height="11.2"/>
    </clipPath>
    <clipPath id="clippath-1">
      <rect class="cls-8" x="9.72" y="20.77" width="6.65" height="11.2"/>
    </clipPath>
    <clipPath id="clippath-2">
      <rect class="cls-8" x="5.79" y="22.36" width="11.2" height="6.65" transform="translate(-14.83 15.58) rotate(-45)"/>
    </clipPath>
    <clipPath id="clippath-3">
      <rect class="cls-8" x="1.09" y="17.66" width="11.2" height="6.65" transform="translate(-12.88 10.88) rotate(-45)"/>
    </clipPath>
    <clipPath id="clippath-4">
      <rect class="cls-8" x=".4" y="16" width="11.2" height="6.65"/>
    </clipPath>
    <clipPath id="clippath-5">
      <rect class="cls-8" x=".4" y="9.35" width="11.2" height="6.65"/>
    </clipPath>
    <clipPath id="clippath-6">
      <rect class="cls-8" x="3.36" y="5.42" width="6.65" height="11.2" transform="translate(-5.83 7.96) rotate(-45)"/>
    </clipPath>
    <clipPath id="clippath-7">
      <rect class="cls-8" x="8.07" y=".71" width="6.65" height="11.2" transform="translate(-1.13 9.91) rotate(-45)"/>
    </clipPath>
    <clipPath id="clippath-8">
      <rect class="cls-8" x="9.72" y=".03" width="6.65" height="11.2"/>
    </clipPath>
    <clipPath id="clippath-9">
      <rect class="cls-8" x="16.37" y=".03" width="6.65" height="11.2"/>
    </clipPath>
    <clipPath id="clippath-10">
      <rect class="cls-8" x="15.75" y="2.99" width="11.2" height="6.65" transform="translate(1.79 16.95) rotate(-45)"/>
    </clipPath>
    <clipPath id="clippath-11">
      <rect class="cls-8" x="20.46" y="7.69" width="11.2" height="6.65" transform="translate(-.16 21.65) rotate(-45)"/>
    </clipPath>
    <clipPath id="clippath-12">
      <rect class="cls-8" x="21.14" y="9.35" width="11.2" height="6.65"/>
    </clipPath>
    <clipPath id="clippath-13">
      <rect class="cls-8" x="21.14" y="16" width="11.2" height="6.65"/>
    </clipPath>
    <clipPath id="clippath-14">
      <rect class="cls-8" x="22.73" y="15.38" width="6.65" height="11.2" transform="translate(-7.2 24.57) rotate(-45)"/>
    </clipPath>
    <clipPath id="clippath-15">
      <rect class="cls-8" x="18.03" y="20.08" width="6.65" height="11.2" transform="translate(-11.91 22.62) rotate(-45)"/>
    </clipPath>
  </defs>
  <g>
    <circle class="cls-5" cx="16.37" cy="16" r="8"/>
    <g>
      <g>
        <g id="_Mirror_Repeat_" data-name="&amp;lt;Mirror Repeat&amp;gt;">
          <g class="cls-14">
            <path class="cls-5" d="M9.93,31.67c-1.05-.76,1.77-10.71,6.48-10.62,4.64.09,7.2,9.88,6.12,10.62-.7.48-2.65-3.12-6.18-3.17-3.62-.05-5.72,3.67-6.42,3.17Z"/>
            <path class="cls-5" d="M9.93,31.67c-.99-.71,3.33-11.18,6.48-10.62,2.93.52,3.65,10.37,2.84,10.62-.44.14-.94-2.61-2.9-3.17-2.8-.8-5.73,3.66-6.42,3.17Z"/>
          </g>
        </g>
        <g id="_Mirror_Repeat_-2" data-name="&amp;lt;Mirror Repeat&amp;gt;">
          <g class="cls-10">
            <path class="cls-5" d="M22.82,31.67c1.05-.76-1.77-10.71-6.48-10.62-4.64.09-7.2,9.88-6.12,10.62.7.48,2.65-3.12,6.18-3.17,3.62-.05,5.72,3.67,6.42,3.17Z"/>
            <path class="cls-5" d="M22.82,31.67c.99-.71-3.33-11.18-6.48-10.62-2.93.52-3.65,10.37-2.84,10.62.44.14.94-2.61,2.9-3.17,2.8-.8,5.73,3.66,6.42,3.17Z"/>
          </g>
        </g>
      </g>
      <g>
        <g id="_Mirror_Repeat_-3" data-name="&amp;lt;Mirror Repeat&amp;gt;">
          <g class="cls-2">
            <path class="cls-5" d="M.74,22.52c-.21-1.28,8.82-6.31,12.09-2.93,3.22,3.34-1.89,12.07-3.18,11.84-.84-.16.33-4.08-2.13-6.61-2.52-2.59-6.64-1.45-6.78-2.3Z"/>
            <path class="cls-5" d="M.74,22.52c-.2-1.2,10.26-5.55,12.09-2.93,1.7,2.44-4.75,9.91-5.5,9.51-.41-.21,1.18-2.51.19-4.29-1.42-2.54-6.64-1.47-6.78-2.3Z"/>
          </g>
        </g>
        <g id="_Mirror_Repeat_-4" data-name="&amp;lt;Mirror Repeat&amp;gt;">
          <g class="cls-15">
            <path class="cls-5" d="M9.86,31.64c1.28.21,6.31-8.82,2.93-12.09-3.34-3.22-12.07,1.89-11.84,3.18.16.84,4.08-.33,6.61,2.13,2.59,2.52,1.45,6.64,2.3,6.78Z"/>
            <path class="cls-5" d="M9.86,31.64c1.2.2,5.55-10.26,2.93-12.09-2.44-1.7-9.91,4.75-9.51,5.5.21.41,2.51-1.18,4.29-.19,2.54,1.42,1.47,6.64,2.3,6.78Z"/>
          </g>
        </g>
      </g>
      <g>
        <g id="_Mirror_Repeat_-5" data-name="&amp;lt;Mirror Repeat&amp;gt;">
          <g class="cls-11">
            <path class="cls-5" d="M.71,9.55c.76-1.05,10.71,1.77,10.62,6.48-.09,4.64-9.88,7.2-10.62,6.12-.48-.7,3.12-2.65,3.17-6.18.05-3.62-3.67-5.72-3.17-6.42Z"/>
            <path class="cls-5" d="M.71,9.55c.71-.99,11.18,3.33,10.62,6.48-.52,2.93-10.36,3.65-10.62,2.84-.14-.44,2.61-.94,3.17-2.9.8-2.8-3.66-5.73-3.17-6.42Z"/>
          </g>
        </g>
        <g id="_Mirror_Repeat_-6" data-name="&amp;lt;Mirror Repeat&amp;gt;">
          <g class="cls-18">
            <path class="cls-5" d="M.71,22.45c.76,1.05,10.71-1.77,10.62-6.48-.09-4.64-9.88-7.2-10.62-6.12-.48.7,3.12,2.65,3.17,6.18.05,3.62-3.67,5.72-3.17,6.42Z"/>
            <path class="cls-5" d="M.71,22.45c.71.99,11.18-3.33,10.62-6.48-.52-2.93-10.36-3.65-10.62-2.84-.14.44,2.61.94,3.17,2.9.8,2.8-3.66,5.73-3.17,6.42Z"/>
          </g>
        </g>
      </g>
      <g>
        <g id="_Mirror_Repeat_-7" data-name="&amp;lt;Mirror Repeat&amp;gt;">
          <g class="cls-7">
            <path class="cls-5" d="M9.86.36c1.28-.21,6.31,8.82,2.93,12.09-3.34,3.22-12.07-1.89-11.84-3.18.16-.84,4.08.33,6.61-2.13,2.59-2.52,1.45-6.64,2.3-6.78Z"/>
            <path class="cls-5" d="M9.86.36c1.2-.2,5.55,10.26,2.93,12.09-2.44,1.7-9.91-4.75-9.51-5.5.21-.41,2.51,1.18,4.29.19,2.54-1.42,1.47-6.64,2.3-6.78Z"/>
          </g>
        </g>
        <g id="_Mirror_Repeat_-8" data-name="&amp;lt;Mirror Repeat&amp;gt;">
          <g class="cls-9">
            <path class="cls-5" d="M.73,9.48c-.21,1.28,8.82,6.31,12.09,2.93,3.22-3.34-1.89-12.07-3.18-11.84-.84.16.33,4.08-2.13,6.61-2.52,2.59-6.64,1.45-6.78,2.3Z"/>
            <path class="cls-5" d="M.73,9.48c-.2,1.2,10.26,5.55,12.09,2.93,1.7-2.44-4.75-9.91-5.5-9.51-.41.21,1.18,2.51.19,4.29-1.42,2.54-6.64,1.47-6.78,2.3Z"/>
          </g>
        </g>
      </g>
      <g>
        <g id="_Mirror_Repeat_-9" data-name="&amp;lt;Mirror Repeat&amp;gt;">
          <g class="cls-16">
            <path class="cls-5" d="M22.82.33c1.05.76-1.77,10.71-6.48,10.62-4.64-.09-7.2-9.88-6.12-10.62.7-.48,2.65,3.12,6.18,3.17,3.62.05,5.72-3.67,6.42-3.17Z"/>
            <path class="cls-5" d="M22.82.33c.99.71-3.33,11.18-6.48,10.62-2.93-.52-3.65-10.37-2.84-10.62.44-.14.94,2.61,2.9,3.17,2.8.8,5.73-3.66,6.42-3.17Z"/>
          </g>
        </g>
        <g id="_Mirror_Repeat_-10" data-name="&amp;lt;Mirror Repeat&amp;gt;">
          <g class="cls-13">
            <path class="cls-5" d="M9.93.33c-1.05.76,1.77,10.71,6.48,10.62,4.64-.09,7.2-9.88,6.12-10.62-.7-.48-2.65,3.12-6.18,3.17-3.62.05-5.72-3.67-6.42-3.17Z"/>
            <path class="cls-5" d="M9.93.33c-.99.71,3.33,11.18,6.48,10.62,2.93-.52,3.65-10.37,2.84-10.62-.44-.14-.94,2.61-2.9,3.17-2.8.8-5.73-3.66-6.42-3.17Z"/>
          </g>
        </g>
      </g>
      <g>
        <g id="_Mirror_Repeat_-11" data-name="&amp;lt;Mirror Repeat&amp;gt;">
          <g class="cls-19">
            <path class="cls-5" d="M32.01,9.48c.21,1.28-8.82,6.31-12.09,2.93-3.22-3.34,1.89-12.07,3.18-11.84.84.16-.33,4.08,2.13,6.61,2.52,2.59,6.64,1.45,6.78,2.3Z"/>
            <path class="cls-5" d="M32.01,9.48c.2,1.2-10.26,5.55-12.09,2.93-1.7-2.44,4.75-9.91,5.5-9.51.41.21-1.18,2.51-.19,4.29,1.42,2.54,6.64,1.47,6.78,2.3Z"/>
          </g>
        </g>
        <g id="_Mirror_Repeat_-12" data-name="&amp;lt;Mirror Repeat&amp;gt;">
          <g class="cls-1">
            <path class="cls-5" d="M22.89.36c-1.28-.21-6.31,8.82-2.93,12.09,3.34,3.22,12.07-1.89,11.84-3.18-.16-.84-4.08.33-6.61-2.13-2.59-2.52-1.45-6.64-2.3-6.78Z"/>
            <path class="cls-5" d="M22.89.36c-1.2-.2-5.55,10.26-2.93,12.09,2.44,1.7,9.91-4.75,9.51-5.5-.21-.41-2.51,1.18-4.29.19-2.54-1.42-1.47-6.64-2.3-6.78Z"/>
          </g>
        </g>
      </g>
      <g>
        <g id="_Mirror_Repeat_-13" data-name="&amp;lt;Mirror Repeat&amp;gt;">
          <g class="cls-12">
            <path class="cls-5" d="M32.04,22.45c-.76,1.05-10.71-1.77-10.62-6.48.09-4.64,9.88-7.2,10.62-6.12.48.7-3.12,2.65-3.17,6.18-.05,3.62,3.67,5.72,3.17,6.42Z"/>
            <path class="cls-5" d="M32.04,22.45c-.71.99-11.18-3.33-10.62-6.48.52-2.93,10.36-3.65,10.62-2.84.14.44-2.61.94-3.17,2.9-.8,2.8,3.66,5.73,3.17,6.42Z"/>
          </g>
        </g>
        <g id="_Mirror_Repeat_-14" data-name="&amp;lt;Mirror Repeat&amp;gt;">
          <g class="cls-3">
            <path class="cls-5" d="M32.04,9.55c-.76-1.05-10.71,1.77-10.62,6.48.09,4.64,9.88,7.2,10.62,6.12.48-.7-3.12-2.65-3.17-6.18-.05-3.62,3.67-5.72,3.17-6.42Z"/>
            <path class="cls-5" d="M32.04,9.55c-.71-.99-11.18,3.33-10.62,6.48.52,2.93,10.36,3.65,10.62,2.84.14-.44-2.61-.94-3.17-2.9-.8-2.8,3.66-5.73,3.17-6.42Z"/>
          </g>
        </g>
      </g>
      <g>
        <g id="_Mirror_Repeat_-15" data-name="&amp;lt;Mirror Repeat&amp;gt;">
          <g class="cls-17">
            <path class="cls-5" d="M22.89,31.64c-1.28.21-6.31-8.82-2.93-12.09,3.34-3.22,12.07,1.89,11.84,3.18-.16.84-4.08-.33-6.61,2.13-2.59,2.52-1.45,6.64-2.3,6.78Z"/>
            <path class="cls-5" d="M22.89,31.64c-1.2.2-5.55-10.26-2.93-12.09,2.44-1.7,9.91,4.75,9.51,5.5-.21.41-2.51-1.18-4.29-.19-2.54,1.42-1.47,6.64-2.3,6.78Z"/>
          </g>
        </g>
        <g id="_Mirror_Repeat_-16" data-name="&amp;lt;Mirror Repeat&amp;gt;">
          <g class="cls-6">
            <path class="cls-5" d="M32.01,22.52c.21-1.28-8.82-6.31-12.09-2.93-3.22,3.34,1.89,12.07,3.18,11.84.84-.16-.33-4.08,2.13-6.61,2.52-2.59,6.64-1.45,6.78-2.3Z"/>
            <path class="cls-5" d="M32.01,22.52c.2-1.2-10.26-5.55-12.09-2.93-1.7,2.44,4.75,9.91,5.5,9.51.41-.21-1.18-2.51-.19-4.29,1.42-2.54,6.64-1.47,6.78-2.3Z"/>
          </g>
        </g>
      </g>
    </g>
  </g>
  <g>
    <polygon class="cls-4" points="5.17 30.78 3.8 32 .37 28.93 8.59 21.56 9.96 22.79 5.19 27.07 6.56 28.3 5.19 29.53 3.82 28.3 3.11 28.93 5.17 30.78"/>
    <g>
      <polygon class="cls-4" points="6.52 19.83 12.22 24.54 10.91 25.82 5.21 21.1 6.52 19.83"/>
      <polygon class="cls-4" points="8.63 17.61 8.79 24.42 6.81 24.52 6.65 17.71 8.63 17.61"/>
      <polygon class="cls-4" points="11.94 17.33 6.46 22.24 4.98 21.11 10.46 16.2 11.94 17.33"/>
      <polygon class="cls-4" points="14.51 19.14 6.61 19.28 6.49 17.58 14.39 17.44 14.51 19.14"/>
      <polygon class="cls-4" points="14.84 22 9.14 17.28 10.45 16 16.15 20.72 14.84 22"/>
      <polygon class="cls-4" points="12.73 24.21 12.57 17.4 14.54 17.3 14.7 24.11 12.73 24.21"/>
      <polygon class="cls-4" points="9.42 24.5 14.9 19.59 16.37 20.71 10.9 25.63 9.42 24.5"/>
      <polygon class="cls-4" points="6.85 22.68 14.75 22.54 14.87 24.24 6.97 24.38 6.85 22.68"/>
    </g>
  </g>
</svg>