<?xml version="1.0" encoding="UTF-8"?>
<svg id="Layer_1" data-name="Layer 1" xmlns="http://www.w3.org/2000/svg" viewBox="0 0 30.26 29.76">
  <defs>
    <style>
      .cls-1 {
        fill: #633762;
        stroke: #633762;
        stroke-miterlimit: 10;
        stroke-width: 2px;
      }

      .cls-2 {
        fill: #d85c9a;
      }

      .cls-2, .cls-3 {
        stroke-width: 0px;
      }

      .cls-3 {
        fill: #9f4592;
      }

      .cls-4 {
        opacity: .25;
      }
    </style>
  </defs>
  <path class="cls-2" d="M29.22,15.06c.6,1.6.7,3.4-.3,4.7s-2.8,1.5-3.2,1.5c.3.6,1,2,.5,3.2-.5,1.5-2.3,2.4-4.2,2.6-1.1,1.4-2.6,2.3-4.2,2.1-1.6-.2-2.7-1.6-2.9-2-.4.6-1.2,1.8-2.6,2-1.5.3-3.2-.7-4.3-2.2-1.7-.2-3.3-1.1-3.9-2.6s.1-3.1.3-3.6c-.7,0-2.2-.2-3-1.2-1-1.2-.9-3.2-.2-4.9-.6-1.6-.7-3.4.3-4.7,1-1.3,2.8-1.5,3.2-1.5-.3-.6-1-1.9-.5-3.2.5-1.5,2.3-2.4,4.2-2.6h0c1.1-1.4,2.6-2.3,4.2-2.1s2.7,1.6,2.9,2c.4-.6,1.2-1.8,2.6-2,1.5-.3,3.2.8,4.3,2.3,1.6.2,3.2,1.1,3.9,2.5.6,1.5-.1,3.1-.3,3.6.7.1,2.2.2,3,1.2,1,1.2.9,3.2.2,4.9Z"/>
  <g class="cls-4">
    <path class="cls-3" d="M8.11,2.2c-.3.39-.6.68-.8,1.08.4-.1.8-.2,1.2-.2.3-.39.5-.68.8-.88-.4-.1-.8,0-1.2,0ZM1.21,13.36c-.2.39-.4.68-.6,1.08.1.39.3.78.6,1.17.1-.39.2-.78.4-1.08-.2-.39-.3-.78-.4-1.17Z"/>
    <path class="cls-3" d="M29.21,13.75c-.1.39-.2.78-.4,1.08.1.29.2.68.3.98.2-.39.4-.68.6-1.08-.2-.29-.4-.68-.5-.98ZM22.61,2.5c-.4-.1-.9-.1-1.3-.1.2.2.5.49.7.78.4,0,.8.1,1.2.29-.1-.39-.3-.68-.6-.98Z"/>
    <path class="cls-3" d="M1.21,13.36c-.2.39-.4.68-.6,1.08.1.39.3.78.6,1.17.1-.39.2-.78.4-1.08-.2-.39-.3-.78-.4-1.17ZM8.21,25.98c-.4,0-.8-.1-1.2-.29.2.39.4.68.7,1.08.4.1.8.1,1.2.1h.1c-.3-.2-.6-.49-.8-.88Z"/>
    <path class="cls-3" d="M8.21,25.98c-.4,0-.8-.1-1.2-.29.2.39.4.68.7,1.08.4.1.8.1,1.2.1h.1c-.3-.2-.6-.49-.8-.88ZM21.81,26.17c-.2.29-.5.59-.8.88h.3c.3,0,.7,0,1-.1.3-.29.5-.68.7-.98-.4.1-.8.2-1.2.2Z"/>
    <path class="cls-3" d="M8.11,2.2c-.3.39-.6.68-.8,1.08.4-.1.8-.2,1.2-.2.3-.39.5-.68.8-.88-.4-.1-.8,0-1.2,0ZM22.61,2.5c-.4-.1-.9-.1-1.3-.1.2.2.5.49.7.78.4,0,.8.1,1.2.29-.1-.39-.3-.68-.6-.98Z"/>
    <path class="cls-3" d="M29.61,14.73c-.2.39-.4.78-.6,1.08v.1c.2,1.27.1,2.35-.5,3.13-.5.68-1.4,1.17-2.6,1.27-1.8-3.13-5.5-4.3-7.5-4.7.3,0,.6,0,1,.1,2.3.29,3.7.98,4.8,1.57.7.39,1.4.68,2,.68.3,0,.7-.1,1-.29.7-.39,1.4-1.08,1.9-1.86-.1-.39-.2-.68-.3-.98-.5.98-1.2,1.76-1.9,2.25-.7.39-1.2.1-2.3-.39-1.1-.59-2.6-1.27-5-1.57-.8-.1-1.5-.1-2.1-.2-.4,0-.8,0-1-.1h0c0-.1-.1-.1-.2-.2l.1-.1h1c.6,0,1.3,0,2.1-.1,2.4-.29,3.9-1.08,5-1.57,1.1-.59,1.6-.78,2.3-.39.9.49,1.6,1.37,2.1,2.54.2-.39.3-.68.4-1.08-.5-.88-1.2-1.66-2-2.15-1.1-.59-2-.2-3.1.39-1.1.59-2.5,1.27-4.7,1.47-.5.1-.9.1-1.3.1,1.6-.1,6.3-.88,8.2-4.4.7.1,1.8.2,2.5,1.08.6.68.8,1.76.6,3.03,0,.2-.1.39-.1.49-.1.1.1.49.2.78.2-.39.3-.88.4-1.37.3-1.47,0-2.74-.7-3.62-.8-.88-2-1.17-2.8-1.27.6-1.57.4-2.64.1-3.33-.5-1.08-1.5-1.96-3-2.45-.3-.1-.6-.2-1-.2.2.29.4.59.6.88h.1c1.2.39,2.1,1.17,2.5,2.05.4.78.3,1.86-.2,2.94-3.6-.1-6.5,2.45-7.9,3.91.1-.2.3-.49.5-.78,1.4-1.76,2.7-2.64,3.7-3.23,1.2-.49,2.1-1.08,2.1-2.25,0-.88-.3-1.76-.8-2.54-.4-.1-.8-.2-1.2-.29.7.88,1.1,1.96,1.1,2.84,0,.78-.4,1.08-1.5,1.66-1,.68-2.5,1.57-3.9,3.42-.5.59-.9,1.17-1.2,1.66-.2.39-.4.68-.6.88h-.1c0-.1,0-.2-.1-.29h0c.1-.2.3-.49.4-.78.3-.49.6-1.08,1-1.86,1-2.15,1-3.82,1.1-4.99,0-1.27.1-1.76.8-2.15.7-.39,1.5-.59,2.4-.59h.7c-.2-.29-.4-.49-.7-.78-1,0-2.1.2-2.9.68-1.1.59-1.1,1.57-1.1,2.84,0,1.17-.1,2.74-1,4.7-.2.39-.4.78-.6,1.17.6-1.37,2.4-5.87.2-9.2.3-.39,1-1.17,2.1-1.37.9-.1,1.9.2,2.9.98.1.1.3.29.4.39.4,0,.9,0,1.3.1-.3-.39-.7-.78-1.1-1.17-1.2-.98-2.4-1.37-3.6-1.17s-2,1.08-2.5,1.66c-.9-.98-1.8-1.57-2.9-1.66-1.3-.2-2.6.29-3.8,1.37-.3.2-.5.49-.8.68.4-.1.9-.1,1.3-.1h0c.9-.68,1.9-1.08,2.8-1.08h.3c.9.1,1.7.59,2.5,1.57-1.8,2.74-1.2,6.16-.6,8.12-.1-.1-.1-.2-.1-.29-.9-2.05-1-3.62-1-4.79,0-.59-.1-1.17-.2-1.66-.2-.49-.4-.88-1-1.17-.7-.39-1.6-.68-2.6-.68-.4.29-.7.59-.9.98h.6c.9,0,1.7.2,2.4.59.6.39.7.88.8,2.15.1,1.17.1,2.84,1.1,5.09.3.78.6,1.37.9,1.86.2.49.4.78.5,1.08v.1c-.1,0-.1-.1-.2-.1-.1-.2-.3-.49-.5-.88-.3-.49-.7-1.08-1.1-1.76-1.4-1.96-2.9-2.84-3.9-3.42-1.1-.68-1.5-.98-1.5-1.66,0-.98.4-2.05,1.1-2.94-.4,0-.8.1-1.2.2-.7.78-1,1.76-1,2.64,0,1.27.8,1.76,1.9,2.45,1.1.68,2.3,1.47,3.7,3.23,0,.1.1.1.1.2-1.3-1.57-4-4.01-7.3-3.91-.3-.68-.7-1.66-.4-2.64.3-.78,1.2-1.47,2.3-1.96.1,0,.3-.1.4-.1.3-.39.5-.68.8-1.08-.5.1-1,.2-1.5.39-1.4.49-2.4,1.37-2.8,2.45s-.1,2.25.2,2.94c-1.3.29-2.3.78-2.9,1.66C.21,10.62.01,11.99.31,13.46c.1.39.2.68.3.98.2-.39.4-.78.6-1.08v-.1c-.2-1.27-.1-2.35.5-3.13.6-.68,1.4-1.17,2.6-1.27,1.6,2.94,4.9,4.11,7,4.6-.1,0-.3,0-.4-.1-2.3-.29-3.7-.98-4.7-1.57-.7-.39-1.4-.68-2-.68-.3,0-.7.1-1.1.29-.7.39-1.4,1.08-1.9,1.86.1.39.2.78.4,1.17.5-.98,1.2-1.76,1.9-2.25.6-.39,1.1-.2,2.2.39,1.1.59,2.6,1.27,5,1.66.8.1,1.5.1,2.1.2.5,0,.8,0,1.1.1l.1.1-.1.1h-1c-.6,0-1.3,0-2.1.1-2.4.2-3.9.98-5,1.57s-1.6.78-2.3.49c-.8-.49-1.6-1.37-2-2.45-.2.39-.3.68-.4,1.08.5.88,1.2,1.57,2,2.05.4.2.7.29,1.1.29.7,0,1.3-.39,2.1-.68,1.1-.49,2.4-1.27,4.7-1.47h.3c-2.1.29-5.7,1.27-7.3,4.3-.7-.1-1.8-.2-2.4-.98-.6-.68-.8-1.76-.6-2.94,0-.1.1-.29.1-.49-.2-.39-.4-.78-.6-1.17-.2.49-.3.98-.4,1.47-.3,1.47,0,2.74.8,3.62.8.88,1.9,1.17,2.8,1.27-.5,1.17-.5,2.35-.1,3.33.5,1.08,1.6,1.96,3,2.45.3.1.7.2,1.1.29-.3-.39-.5-.68-.7-1.08h-.1c-1.2-.39-2.1-1.08-2.5-1.96-.3-.78-.3-1.76.2-2.84,3.3.1,6.1-2.05,7.5-3.62-.1.1-.1.2-.2.29-1.4,1.76-2.7,2.64-3.7,3.23-1.1.68-1.9,1.17-1.9,2.45,0,.78.2,1.66.7,2.54.4.1.8.2,1.2.29-.6-.88-1-1.86-1-2.74,0-.68.4-.98,1.5-1.66,1-.68,2.4-1.57,3.9-3.42.5-.68.9-1.27,1.2-1.66.2-.39.4-.68.6-.88h.1v.1c-.1.2-.3.49-.5.88-.3.49-.6,1.08-1,1.86-1,2.15-1.1,3.82-1.1,5.09s-.1,1.76-.7,2.15c-.8.49-2,.68-3.1.49.2.29.5.68.8.88,1,0,2-.2,2.8-.68,1.1-.59,1.1-1.57,1.2-2.84,0-1.17.1-2.74,1-4.7,0-.1.1-.1.1-.2-.7,1.96-1.6,5.38.2,8.22-.4.59-1.1,1.37-2.1,1.57-.9.1-1.9-.2-2.9-.98-.1-.1-.2-.2-.3-.29h.1c-.4,0-.8,0-1.2-.1.3.39.7.78,1.1,1.08,1,.78,2,1.27,3,1.27h.6c1.2-.2,2-1.08,2.5-1.66,1.1,1.17,2.1,1.57,2.9,1.66,1.2.1,2.6-.29,3.7-1.37.3-.2.5-.49.8-.78-.3.1-.7.1-1,.1h-.3c-1,.88-2,1.17-3,1.08-.9-.1-1.7-.59-2.5-1.57,1.8-2.84,1.2-6.16.6-8.22.1.1.1.2.2.39.9,2.05,1,3.62,1,4.79,0,.59,0,1.17.2,1.66.1.49.4.88,1,1.17.7.39,1.6.59,2.6.68.3-.29.6-.59.8-.88-1.1.1-2.1-.1-2.9-.49-.6-.39-.7-.88-.8-2.05-.1-1.17-.1-2.84-1.1-5.09-.3-.78-.6-1.37-.9-1.86-.2-.39-.4-.68-.5-.98q0-.1.1-.2h.1c.2.2.4.49.6.88.3.49.7,1.08,1.1,1.76,1.4,1.96,2.9,2.84,3.9,3.42,1.1.68,1.5.98,1.5,1.66,0,.98-.4,2.05-1.1,2.94.4,0,.8-.1,1.2-.2.5-.88.8-1.86.8-2.74,0-1.27-.9-1.76-1.9-2.45-1-.59-2.4-1.47-3.7-3.23,0,0,0-.1-.1-.1,1.4,1.57,4,4.01,7.3,3.82.3.59.7,1.66.3,2.54-.3.78-1.1,1.47-2.3,1.96-.1,0-.3.1-.5.1-.2.39-.5.68-.7.98.5-.1,1-.2,1.5-.39,1.4-.49,2.4-1.37,2.8-2.45s.1-2.25-.2-2.94c1.6-.29,2.5-.98,2.9-1.57.8-.98,1-2.35.7-3.82-.2-.78-.3-1.08-.5-1.47ZM25.41,9.15c-1.6,2.64-5.2,3.42-6.9,3.62,1.1-1.27,3.7-3.52,6.9-3.62ZM5.31,8.76c2.9.1,5.3,2.54,6.4,3.91-1.8-.39-4.8-1.47-6.4-3.91ZM5.11,20.01c1.6-2.45,4.9-3.23,6.6-3.52-1.3,1.37-3.7,3.42-6.6,3.52ZM14.91,25.88c-1.4-2.54-.4-5.77.2-7.34.5,1.66,1.1,4.79-.2,7.34ZM15.21,10.72c-.6-1.66-1.2-4.79.2-7.34,1.4,2.54.4,5.77-.2,7.34ZM18.51,16.59c1.8.39,4.8,1.47,6.4,3.91-2.9-.1-5.3-2.54-6.4-3.91Z"/>
    <path class="cls-3" d="M29.21,13.75c-.1.39-.2.78-.4,1.08.1.29.2.68.3.98.2-.39.4-.68.6-1.08-.2-.29-.4-.68-.5-.98ZM21.81,26.17c-.2.29-.5.59-.8.88h.3c.3,0,.7,0,1-.1.3-.29.5-.68.7-.98-.4.1-.8.2-1.2.2Z"/>
  </g>
  <path class="cls-3" d="M11.82,29.76c-1.4,0-3-.9-4.1-2.4-2-.3-3.5-1.4-4.1-2.8-.4-1-.4-2.1,0-3.3-.8-.1-2-.4-2.7-1.3-1-1.2-1.1-3.2-.3-5.2-.7-1.9-.5-3.7.4-5,.6-.8,1.6-1.4,2.9-1.6-.3-.8-.6-1.9-.2-3,.5-1.6,2.2-2.7,4.3-3C9.32.66,11.02-.14,12.52.06c1.1.1,2,.7,2.9,1.7.5-.6,1.3-1.5,2.5-1.7,1.6-.3,3.4.6,4.7,2.3,2,.3,3.5,1.4,4.1,2.8.4,1,.4,2.1,0,3.3.8.1,2,.4,2.7,1.3,1,1.2,1.1,3.2.3,5.2.7,1.9.5,3.7-.4,5-.6.8-1.6,1.4-2.9,1.6.3.8.6,1.9.2,3-.5,1.5-2.2,2.6-4.4,2.9-1.3,1.5-3,2.3-4.5,2.1-1-.1-2.1-.7-2.9-1.7-.5.6-1.3,1.5-2.5,1.7-.2.2-.3.2-.5.2h0ZM8.12,3.16c-1.7.2-3.1,1.1-3.5,2.2s.1,2.3.4,2.9l.3.6-.7.1c-1.3.1-2.3.6-2.9,1.3-.8,1-.8,2.6-.2,4.2l.1.2-.1.2c-.7,1.7-.7,3.4.1,4.4.7.9,2.1,1,2.7,1h.7l-.2.7c-.6,1.2-.6,2.3-.3,3.2.5,1.1,1.8,2,3.5,2.3h.2l.1.2c1.1,1.5,2.6,2.3,3.8,2.1,1.1-.2,1.9-1.3,2.2-1.8l.4-.6.4.6c.4.6,1.3,1.7,2.6,1.8,1.2.1,2.7-.6,3.7-1.9l.1-.2h.2c1.8-.2,3.3-1.1,3.7-2.3.4-1.1-.2-2.3-.5-2.9l-.3-.7.7-.1c.7-.1,2.1-.3,2.9-1.3s.8-2.6.2-4.2l-.1-.2.1-.2c.7-1.7.7-3.4-.1-4.4-.8-.9-2.1-1-2.7-1l-.7-.1.3-.6c.5-1.2.6-2.3.3-3.2-.5-1.2-1.8-2-3.5-2.3h-.2l-.1-.2c-.9-1.3-2.4-2.2-3.7-2-1.2.2-1.9,1.3-2.2,1.8l-.4.6-.4-.5c-.8-1.1-1.7-1.7-2.6-1.8-1.2-.1-2.6.5-3.6,1.8l-.3.2"/>
  <path class="cls-1" d="M24.2,23.14c-.72.52-.89.31-1.1.15-1.46-1.06-2.99-2.23-4.33-3.44-1.18-1.05-2.33-2.13-3.43-3.26-1.17,1.32-2.39,2.6-3.65,3.84-1.57,1.34-2.87,3.34-4.97,3.9.8-2.03,2.77-3.12,4.07-4.77,1.21-1.31,2.38-2.66,3.5-4.04-2.2-2.3-4.26-4.73-6.21-7.24-.31-.42-1.16-1.45-1.42-1.89-.15-.22-.29-.44-.29-.76l.33-.24c.56.19.78.68,1.14,1.09,2.23,2.84,4.69,5.5,7.31,7.98,2.32-2.9,4.47-5.93,6.5-9.03.13-.22.21-.48,1.07-.26.58.66.38.85.24,1.07-1.94,3.29-4.19,6.38-6.67,9.27,2.48,2.26,5.17,4.47,7.74,6.54.21.15.46.25.17,1.09Z"/>
</svg>