<?xml version="1.0" encoding="UTF-8"?>
<svg id="Layer_1" data-name="Layer 1" xmlns="http://www.w3.org/2000/svg" viewBox="0 0 29.86 29.65">
  <defs>
    <style>
      .cls-1 {
        fill: #d85c9a;
      }

      .cls-1, .cls-2 {
        stroke-width: 0px;
      }

      .cls-2 {
        fill: #9f4592;
      }
    </style>
  </defs>
  <path class="cls-1" d="M23.33,5.95c0,2-2.6,1.7-5.5,5.5-1.5,1.9-1.9,3.3-2.9,3.3s-1.3-1.4-2.7-3.3c-2.7-3.8-5.5-3.4-5.5-5.5C6.73,3.35,9.53.05,12.23.45c1.6.2,2.7,1.6,2.9,2,2.7,3.7-.1,9.2-.3,9.6-.4-.9-2.3-5.9.3-9.6.4-.6,1.2-1.8,2.6-2,2.7-.4,5.6,2.8,5.6,5.5h0Z"/>
  <path class="cls-1" d="M11.53,3.15c1.8,1,.2,3.1,2,7.6.9,2.2,1.9,3.3,1.4,4.1-.5.8-1.9.4-4.2.7-4.7.5-5.8,3-7.6,2-2.3-1.3-3.7-5.4-2-7.6,1-1.3,2.8-1.5,3.2-1.5,4.6-.4,7.9,4.6,8.2,5-.9-.1-6.2-1-8.2-5-.2-.7-.8-2-.4-3.3.9-2.4,5.2-3.4,7.6-2h0Z"/>
  <path class="cls-2" d="M4.03,18.15c-.3,0-.7-.1-1.1-.3-1.4-.8-2.5-2.5-2.8-4.3-.3-1.5-.1-2.9.7-3.9.6-.9,1.6-1.4,2.9-1.6-.3-.8-.6-1.9-.2-3.1.4-1.1,1.4-1.9,2.9-2.5,1.8-.7,3.9-.6,5.3.2h0c1.1.6,1.1,1.6,1.2,2.9.1,1.2.1,2.8,1,4.9.3.7.6,1.3.9,1.8.6,1.1,1,1.9.5,2.7s-1.3.8-2.5.8c-.6,0-1.2,0-2,.1-2.2.2-3.6,1-4.7,1.5-.8.5-1.4.8-2.1.8ZM4.13,8.85c-1.2.2-2,.6-2.6,1.3-.6.8-.7,2-.5,3.2.3,1.6,1.3,3,2.4,3.7.6.4,1.1.1,2.3-.5,1.1-.6,2.6-1.4,5-1.6.8-.1,1.5-.1,2.1-.1,1.1,0,1.6,0,1.8-.4.2-.3,0-.8-.6-1.8-.3-.5-.6-1.1-.9-1.9-.9-2.3-1-3.9-1.1-5.2-.1-1.3-.1-1.8-.8-2.2h0c-1.2-.7-3-.8-4.6-.2-1.2.4-2,1.1-2.3,2-.4,1,0,2,.3,2.6,4.7-.2,7.9,4.7,8.3,5.2l.5.8-1-.1c-1.3,0-6.2-1-8.3-4.8h0ZM5.13,8.85c1.6,2.5,4.6,3.5,6.4,3.9-1-1.4-3.4-3.9-6.4-3.9Z"/>
  <path class="cls-2" d="M6.63,23.65c0-2,2.6-1.7,5.5-5.5,1.5-1.9,1.9-3.3,2.9-3.3s1.3,1.4,2.7,3.3c2.8,3.8,5.5,3.5,5.5,5.5,0,2.6-2.8,5.9-5.5,5.5-1.6-.2-2.7-1.6-2.9-2-2.7-3.7.1-9.2.3-9.6.4.9,2.3,5.9-.3,9.6-.4.6-1.2,1.8-2.6,2-2.7.5-5.6-2.8-5.6-5.5h0Z"/>
  <path class="cls-2" d="M18.43,26.45c-1.8-1-.2-3.1-2-7.5-.9-2.2-1.9-3.3-1.4-4.1s1.9-.4,4.2-.7c4.7-.5,5.8-3.1,7.5-2,2.3,1.3,3.7,5.4,2,7.5-1,1.3-2.8,1.5-3.2,1.5-4.6.5-7.9-4.6-8.2-5,1,.1,6.2,1,8.2,5,.3.6.9,2,.5,3.2-.9,2.5-5.2,3.5-7.6,2.1h0Z"/>
  <path class="cls-2" d="M15.03,15.25h0c-.9,0-1.4-.8-2-1.8-.3-.5-.6-1.1-1.1-1.7-1.3-1.8-2.6-2.7-3.7-3.3-1.1-.7-1.9-1.2-1.9-2.5,0-1.6.9-3.4,2.3-4.6C9.83.35,11.13-.15,12.33.05c1.1.1,2,.7,2.9,1.7.5-.6,1.3-1.5,2.5-1.7,1.1-.2,2.4.2,3.6,1.2,1.5,1.3,2.5,3.1,2.5,4.8,0,1.3-.8,1.8-1.9,2.5-1,.6-2.3,1.5-3.7,3.3-.5.6-.8,1.2-1.1,1.7-.7.9-1.2,1.7-2.1,1.7h0ZM11.93.85c-.9,0-1.8.4-2.7,1.2-1.2,1.1-2,2.6-2,4,0,.8.4,1.1,1.5,1.7,1.1.7,2.5,1.6,3.9,3.5.5.7.8,1.3,1.1,1.8.5.9.8,1.4,1.2,1.4h0c.4,0,.7-.4,1.3-1.4.3-.5.7-1.1,1.2-1.7,1.5-1.9,2.9-2.9,3.9-3.5,1.1-.8,1.6-1.1,1.6-1.9,0-1.4-.9-3-2.1-4.1-1-.8-2-1.2-2.9-1-1,.2-1.7,1-2.1,1.6,2.6,4-.3,9.5-.4,9.8l-.5.9-.4-.9c-.6-1.4-2.1-6.1.1-9.7-.8-1-1.6-1.5-2.5-1.6,0-.1-.1-.1-.2-.1h0ZM15.23,3.35c-1.4,2.6-.8,5.8-.2,7.5.7-1.6,1.6-4.9.2-7.5Z"/>
  <path class="cls-1" d="M21.03,27.55c-1,0-2-.2-2.8-.7h0c-1.1-.6-1.1-1.6-1.2-2.9,0-1.2-.1-2.8-1-4.9-.3-.7-.6-1.3-.9-1.8-.6-1.1-1-1.9-.5-2.7s1.3-.8,2.5-.8c.6,0,1.2,0,2-.1,2.2-.2,3.6-1,4.7-1.5,1.1-.6,2-1.1,3.1-.4,1.4.8,2.5,2.5,2.8,4.3.3,1.5.1,2.9-.7,3.9-.5.6-1.3,1.3-2.9,1.6.3.8.6,1.9.2,3s-1.4,2-2.9,2.5c-.7.4-1.6.5-2.4.5h0ZM18.63,26.05c1.2.7,3,.8,4.6.2,1.2-.4,2-1.1,2.3-2,.4-1,0-2-.3-2.6-4.6.2-7.9-4.7-8.3-5.2l-.5-.8,1,.1c1.5.2,6.3,1.2,8.4,5,1.2-.2,2.1-.6,2.6-1.3.6-.8.8-1.9.5-3.2-.3-1.6-1.3-3.1-2.4-3.7-.6-.4-1.1-.1-2.3.4-1.1.6-2.6,1.4-5,1.6-.8.1-1.5.1-2.1.1-1.1,0-1.6,0-1.8.4-.2.3,0,.8.6,1.8.3.5.6,1.1.9,1.9,1,2.3,1,4,1.1,5.2,0,1.2.1,1.8.7,2.1h0ZM18.43,16.85c1.1,1.4,3.5,3.9,6.4,4-1.6-2.6-4.6-3.6-6.4-4Z"/>
  <path class="cls-1" d="M11.63,29.65c-1,0-2.1-.4-3-1.3-1.5-1.3-2.5-3.1-2.5-4.8,0-1.3.8-1.8,1.9-2.5,1-.6,2.3-1.5,3.7-3.3.5-.6.8-1.2,1.1-1.7.7-1.1,1.1-1.8,2.1-1.8.9,0,1.3.8,1.9,1.8.3.5.6,1.1,1.1,1.7,1.3,1.8,2.6,2.6,3.7,3.3,1.1.7,1.9,1.2,1.9,2.5,0,1.6-.9,3.4-2.3,4.6-1.2,1-2.5,1.5-3.7,1.4-.8-.1-1.8-.5-2.9-1.7-.5.6-1.3,1.5-2.5,1.7-.1.1-.3.1-.5.1h0ZM14.93,15.25c-.4,0-.7.4-1.3,1.4-.3.5-.7,1.1-1.2,1.7-1.5,2-2.9,2.9-3.9,3.5-1.1.7-1.5,1-1.5,1.7,0,1.4.9,3,2.1,4.1.9.8,2,1.2,2.9,1,1-.2,1.7-1,2.1-1.6-2.5-3.9.1-9.2.4-9.8l.4-.9.4.9c.6,1.4,2.1,6.1-.1,9.7.7,1,1.6,1.5,2.5,1.6,1,.1,2-.3,3-1.1,1.2-1.1,2-2.6,2-4,0-.8-.4-1.1-1.5-1.7-1-.7-2.5-1.6-3.9-3.5-.5-.7-.8-1.3-1.1-1.8-.6-.8-.9-1.2-1.3-1.2h0ZM14.93,18.75c-.6,1.6-1.6,4.9-.2,7.5,1.3-2.6.7-5.7.2-7.5Z"/>
</svg>