<?xml version="1.0" encoding="UTF-8"?>
<svg id="Layer_2" data-name="Layer 2" xmlns="http://www.w3.org/2000/svg" viewBox="0 0 31 31.35">
  <defs>
    <style>
      .cls-1 {
        fill: #82ab40;
      }

      .cls-1, .cls-2 {
        stroke-width: 0px;
      }

      .cls-2 {
        fill: #597f39;
      }

      .cls-3 {
        fill: none;
      }

      .cls-3, .cls-4 {
        stroke: #5c3942;
        stroke-miterlimit: 10;
        stroke-width: .5px;
      }

      .cls-4 {
        fill: #955949;
      }
    </style>
  </defs>
  <g id="Layer_1-2" data-name="Layer 1">
    <g>
      <path class="cls-4" d="M17.89,28.6c-3.8,2.7-10.9,4-15-.2-4.2-4.2-2.7-11.3-.2-15,2.2-3.3,5.3-4.5,10-6.3,3.9-1.5,11.1-4.2,13.5-1.4,1.4,1.7.1,5.2-2.6,12.3-2.3,6-3.5,9-5.7,10.6h0Z"/>
      <path class="cls-3" d="M16.19,26.9c-3.7,2.8-10.1,4.7-13.3,1.5-3.3-3.3-1.1-9.7,1.5-13.3,2.3-3.2,5.3-4.6,9.6-6.7,3.6-1.7,10.4-4.9,12.1-2.8,1.1,1.3-.5,4.6-3.7,11.2-2.6,5.6-4,8.4-6.2,10.1Z"/>
      <path class="cls-3" d="M14.49,25.2c-3.5,3-9.3,5.5-11.6,3.2-2.4-2.3.4-8.2,3.1-11.6,2.4-3.1,5.2-4.7,9.2-7.1,3.4-2,9.6-5.7,10.8-4.1.8,1-1.1,4-4.7,10.1-3.1,5.2-4.7,7.8-6.8,9.5Z"/>
      <path class="cls-3" d="M12.79,23.5c-3.4,3.1-8.6,6.3-9.9,4.9-1.4-1.4,2-6.6,4.9-9.9,2.6-3,5.1-4.8,8.8-7.5,3.1-2.3,8.8-6.5,9.5-5.4.4.6-1.7,3.4-5.8,9.1-3.7,4.6-5.5,7-7.5,8.8h0Z"/>
    </g>
    <path class="cls-2" d="M30.39,1.1c.1.4-.5.6-1.5,1.9-1.1,1.4-1,2.3-1.6,2.3-.4,0-.7-.1-1-.3v.4c0,.4.2.6.3.9,0,.2,0,.4-.2.8,0,.1.1.2,0,.2h0c.1.2.3.4.5.6.6.1,1.1.4,1.6.8,1.2,1.1.7,2.8.6,3.4-.5,1.9-2.4,3.1-3.1,2.6-.4-.3,0-.9-.3-2.9-.3-2.1-1.1-2.8-.6-3.4.3-.3.6-.5,1.1-.6-.1-.1-.2-.2-.3-.3-.4-.4-.8-.4-1-.6-.3-.2-.7-.7-.6-2.2,0-.1.1-.3.1-.6,0-.2-.1-.2-.2-.3-.3.3-.6.6-1,.7-.7.3-1.1-.5-2.9-1.4-1.7-.8-2.5-.6-2.5-1-.1-.7,1.9-1.9,3.9-1.9.6,0,2.4.1,2.9,1.4.2.5.2,1,0,1.5.1.4.2.7.4,1,.3.5.5.9.6,1.4.1,0,.1.1.2.1s.1-.4.1-1c-.3-.4-.5-.9-.5-1.4-.1-1.4,1.2-2.1,1.6-2.4C28.49,0,30.29.4,30.39,1.1Z"/>
    <path class="cls-1" d="M30.99.8c.1.4-.5.6-1.5,1.9-1.1,1.4-1,2.3-1.6,2.3-.4,0-.7-.1-1-.3v.4c0,.4.2.6.3.9,0,.2,0,.4-.2.8,0,.2,0,.3,0,.3h0c.1.2.3.4.5.6.6.1,1.1.4,1.6.8,1.2,1.1.7,2.8.6,3.4-.5,1.9-2.4,3.1-3.1,2.6-.4-.3,0-.9-.3-2.9-.3-2.1-1.1-2.9-.6-3.4.3-.3.6-.5,1.1-.6-.1-.1-.2-.2-.3-.3-.4-.4-.8-.4-1-.6-.3-.2-.7-.7-.6-2.2,0-.1.1-.3.1-.6,0-.2-.1-.2-.2-.3-.3.3-.6.6-1,.7-.7.3-1.1-.5-2.9-1.4-1.7-.8-2.5-.6-2.5-1-.1-.7,1.9-1.9,3.9-1.9.6,0,2.4.1,2.9,1.4.2.5.2,1,0,1.5.2.3.3.5.5.9.3.5.5.9.6,1.4.1,0,.1.1.2.1s.1-.4.1-1c-.3-.4-.5-.9-.5-1.4-.1-1.4,1.2-2.1,1.6-2.3,1.3-.9,3.1-.5,3.3.2Z"/>
  </g>
</svg>