<?xml version="1.0" encoding="UTF-8"?>
<svg id="Layer_1" data-name="Layer 1" xmlns="http://www.w3.org/2000/svg" viewBox="0 0 30 30">
  <defs>
    <style>
      .cls-1 {
        fill: #d85c9a;
      }

      .cls-1, .cls-2 {
        stroke-width: 0px;
      }

      .cls-2 {
        fill: #9f4592;
      }

      .cls-3 {
        opacity: .25;
      }
    </style>
  </defs>
  <g>
    <path class="cls-1" d="M16.11,26.04c-.44-.35-.75-.85-.68-1.35.07-.53.53-.87.66-.95-.18-.13-.58-.39-.66-.83-.09-.5.26-1.05.74-1.4.08-.55.36-1.07.83-1.26.5-.21,1.02.03,1.15.09.02-.22.05-.7.39-.99.39-.32,1.03-.3,1.58-.06.52-.2,1.11-.22,1.52.08.43.32.48.89.5,1.04.2-.1.63-.3,1.05-.15.47.17.77.74.84,1.34.44.35.74.85.68,1.36-.07.53-.53.87-.66.95.18.13.58.39.66.83.08.5-.26,1.04-.74,1.4,0,0,0,0,0,0-.08.55-.36,1.07-.83,1.27-.49.21-1.01-.03-1.15-.09-.01.22-.05.7-.39.98-.39.32-1.03.3-1.58.06-.52.2-1.11.22-1.52-.08-.43-.32-.48-.89-.5-1.04-.2.1-.63.3-1.05.15-.47-.17-.77-.74-.84-1.34Z"/>
    <g class="cls-3">
      <path class="cls-2" d="M24.11,26.23c.03-.14.04-.28.04-.42-.09.1-.19.18-.3.26-.01.13-.04.26-.09.39.12-.06.24-.14.35-.23ZM24.2,21.95c0-.14,0-.28-.02-.42-.11-.09-.22-.17-.34-.24.04.12.06.25.07.38.11.08.21.17.3.27Z"/>
      <path class="cls-2" d="M16.29,26.34c-.03-.13-.05-.26-.06-.39-.09-.07-.17-.15-.25-.23,0,.14,0,.28.02.42.09.08.19.15.29.2ZM19.99,28.5c.13-.04.26-.1.38-.17-.11-.03-.21-.07-.31-.11-.12.05-.25.09-.38.12.09.06.2.12.31.16Z"/>
      <path class="cls-2" d="M24.2,21.95c0-.14,0-.28-.02-.42-.11-.09-.22-.17-.34-.24.04.12.06.25.07.38.11.08.21.17.3.27ZM20.13,19.44c.12-.06.25-.09.38-.12-.12-.07-.24-.14-.38-.19-.13.04-.25.1-.36.17h-.01c.13.04.26.08.38.14Z"/>
      <path class="cls-2" d="M20.13,19.44c.12-.06.25-.09.38-.12-.12-.07-.24-.14-.38-.19-.13.04-.25.1-.36.17h-.01c.13.04.26.08.38.14ZM16.31,21.58c.01-.13.04-.26.08-.38-.03.01-.05.03-.08.04-.09.05-.18.11-.27.19-.03.14-.04.28-.03.41.09-.1.19-.18.3-.26Z"/>
      <path class="cls-2" d="M24.11,26.23c.03-.14.04-.28.04-.42-.09.1-.19.18-.3.26-.01.13-.04.26-.09.39.12-.06.24-.14.35-.23ZM19.99,28.5c.13-.04.26-.1.38-.17-.11-.03-.21-.07-.31-.11-.12.05-.25.09-.38.12.09.06.2.12.31.16Z"/>
      <path class="cls-2" d="M16.01,26.13c-.02-.14-.03-.28-.02-.42-.01-.01-.02-.02-.04-.04-.27-.31-.41-.66-.37-.98.03-.29.21-.55.52-.8,1.01.62,2.27.34,2.88.14-.09.04-.18.09-.28.13-.69.29-1.2.31-1.58.33-.27.01-.49.02-.67.13-.1.05-.17.13-.24.25-.14.23-.21.53-.22.84.08.09.16.16.25.23-.03-.35.03-.69.18-.95.13-.22.31-.24.72-.26.39-.01.94-.04,1.67-.35.24-.1.45-.21.61-.29.12-.06.22-.11.31-.15h0s.05.02.08.03c0,.01-.01.03-.01.05-.07.05-.16.11-.28.17-.16.09-.36.21-.57.37-.64.47-.93.93-1.14,1.27-.22.35-.32.49-.56.49-.32,0-.68-.14-.99-.38,0,.13.03.26.06.39.3.18.63.28.93.28.41,0,.59-.28.8-.62.21-.34.48-.76,1.07-1.19.12-.09.24-.16.34-.23-.43.3-1.63,1.28-1.56,2.58-.21.1-.55.23-.88.11-.28-.1-.51-.37-.65-.76-.02-.06-.04-.11-.05-.17-.1-.06-.2-.12-.29-.2.02.16.06.31.11.46.17.46.45.78.8.91.37.14.75.02.99-.08.09.53.33.81.52.96.32.24.76.31,1.24.22.11-.02.21-.05.31-.09-.11-.04-.22-.1-.31-.16-.02,0-.03,0-.05.01-.42.08-.79.02-1.05-.17-.24-.18-.39-.48-.44-.88,1.05-.55,1.43-1.76,1.56-2.41,0,.09-.01.19-.03.3-.1.74-.33,1.2-.51,1.53-.19.36-.33.65-.13,1,.14.24.36.45.64.62.13-.03.26-.07.38-.12-.33-.15-.62-.38-.77-.64-.12-.21-.05-.37.14-.73.18-.35.43-.84.53-1.63.03-.26.04-.49.05-.68,0-.15.01-.27.03-.36.01,0,.03-.02.03-.03.01.03.04.04.06.06h0c0,.08,0,.18,0,.3,0,.19,0,.41.03.68.08.78.34,1.26.53,1.61.19.36.27.53.14.75-.13.21-.33.41-.59.56-.07.04-.13.07-.21.1.1.04.2.08.31.11.3-.17.54-.39.69-.65.2-.35.05-.63-.14-.99-.18-.35-.42-.79-.5-1.52-.02-.15-.02-.29-.03-.42.05.5.29,2.06,1.45,2.65-.02.22-.08.58-.33.79-.22.18-.57.25-.97.18-.06,0-.12-.02-.18-.04-.12.07-.24.13-.38.17.16.07.33.12.51.15.48.09.91,0,1.2-.24.3-.25.39-.63.43-.89.4.15.77.15,1.08.02.37-.16.66-.51.82-.98.04-.11.06-.22.08-.34-.11.09-.23.17-.35.23,0,0,0,.01,0,.02-.12.35-.32.62-.56.76-.03.02-.06.04-.1.05-.27.11-.59.1-.95-.05.03-1.08-.68-1.95-1.17-2.43.03.02.06.04.09.06.59.45.87.88,1.07,1.2.11.17.21.33.33.44.12.11.27.18.47.18.27,0,.56-.08.83-.22.04-.13.07-.26.09-.39-.05.03-.1.07-.15.09-.25.14-.52.23-.76.23-.24,0-.34-.14-.56-.48-.22-.33-.51-.79-1.14-1.28-.21-.16-.41-.28-.56-.38-.14-.09-.25-.16-.33-.22,0,0,0-.02,0-.02.02,0,.04,0,.07-.01.08.03.17.09.29.16.16.09.36.2.6.31.72.32,1.27.34,1.67.35.41.02.58.03.71.24.16.27.22.64.17,1.02.11-.08.21-.16.3-.26,0-.34-.08-.66-.22-.91-.21-.36-.53-.37-.94-.39-.4-.02-.9-.03-1.56-.33-.02,0-.04-.02-.06-.03.64.23,1.78.51,2.7-.07.18.13.46.36.51.68.05.28-.07.62-.33.93-.03.04-.07.07-.1.11,0,.14,0,.28-.04.42.13-.1.25-.21.36-.34.32-.38.46-.79.39-1.16-.07-.39-.34-.66-.56-.81.33-.28.52-.59.56-.93.05-.4-.1-.83-.44-1.21-.08-.09-.16-.17-.25-.24.02.14.03.28.02.42,0,0,.01,0,.02.01.28.32.41.66.37.98-.04.29-.21.55-.52.8-.93-.58-2.07-.38-2.73-.19.04-.02.09-.04.13-.06.69-.29,1.2-.31,1.58-.33.27-.01.5-.02.69-.13.1-.05.18-.14.25-.26.13-.23.21-.52.22-.83-.09-.1-.19-.19-.3-.27.03.35-.03.7-.17.95-.12.21-.29.23-.7.24-.4.02-.94.04-1.68.35-.24.1-.45.21-.61.29-.13.07-.24.13-.32.16-.01,0-.03-.01-.05-.02,0-.01.01-.03.01-.05.07-.05.16-.11.28-.17.16-.09.36-.21.57-.37.64-.46.93-.93,1.14-1.27.22-.35.32-.49.56-.49.31,0,.66.14.97.36,0-.13-.03-.26-.07-.38-.29-.17-.61-.27-.9-.27-.14,0-.25.03-.35.09-.19.11-.31.31-.45.54-.21.34-.48.76-1.07,1.19-.03.02-.06.04-.09.06.52-.42,1.38-1.29,1.32-2.4.21-.09.54-.22.85-.1.27.1.5.37.64.75.02.05.03.1.04.15.12.07.24.15.34.24-.02-.16-.06-.33-.12-.49-.17-.46-.46-.79-.81-.92-.37-.14-.74-.03-.98.07-.08-.42-.25-.74-.53-.95-.32-.24-.77-.32-1.26-.22-.12.02-.23.05-.34.1.13.05.26.11.38.19,0,0,.01,0,.02,0,.41-.08.78-.02,1.03.17.23.17.38.46.43.85-.95.51-1.35,1.57-1.52,2.24,0-.04,0-.08.01-.12.1-.74.33-1.2.5-1.53.19-.36.33-.65.13-1-.13-.23-.35-.44-.61-.61-.13.03-.26.07-.38.12.32.15.59.37.74.63.12.21.05.37-.14.73-.18.35-.43.84-.53,1.62-.03.27-.04.5-.05.68,0,.15-.01.27-.02.36-.01,0-.03.02-.04.03,0-.01-.02-.02-.03-.03,0-.08-.01-.19-.01-.33,0-.19,0-.41-.03-.68-.08-.78-.34-1.27-.53-1.62-.19-.36-.27-.52-.15-.73.15-.27.45-.51.8-.65-.12-.06-.25-.1-.38-.13-.29.17-.53.39-.67.65-.21.35-.05.64.14,1.01.19.35.42.79.5,1.52,0,.02,0,.04,0,.06-.11-.67-.45-1.81-1.41-2.31.02-.22.08-.57.33-.79.22-.18.57-.25.97-.18.05.01.1.02.14.03h.01c.11-.07.24-.13.36-.18-.15-.06-.31-.11-.47-.14-.41-.07-.77-.02-1.05.14-.05.03-.1.06-.15.1-.3.25-.39.63-.43.89-.49-.18-.86-.11-1.08-.02-.37.16-.66.51-.83.98-.04.11-.07.23-.08.34.09-.07.18-.13.27-.19.03-.02.05-.03.08-.04,0,0,0-.01,0-.02.13-.39.37-.68.66-.8.27-.11.59-.1.95.05-.03,1.09.69,1.97,1.19,2.44-.03-.02-.07-.05-.1-.07-.59-.45-.87-.88-1.07-1.2-.11-.17-.21-.33-.33-.44-.12-.11-.27-.18-.47-.18-.27,0-.55.08-.83.23-.04.12-.07.25-.08.38.29-.2.62-.32.91-.32.24,0,.34.14.56.48.22.33.51.79,1.14,1.28.21.16.41.28.56.38.13.08.23.15.3.2,0,.02.01.05.02.07,0,0-.01,0-.02,0-.08-.03-.19-.09-.32-.17-.16-.09-.36-.2-.61-.31-.72-.32-1.27-.34-1.67-.35-.41-.02-.58-.03-.71-.24-.16-.27-.21-.65-.17-1.02-.11.08-.21.16-.3.26,0,.34.07.66.22.91.21.36.53.37.94.39.4.01.9.03,1.56.33.01,0,.03.01.04.02-.64-.23-1.78-.51-2.69.08-.18-.13-.46-.36-.51-.68-.05-.28.07-.62.33-.93.03-.04.07-.08.1-.11,0-.14,0-.27.03-.41-.13.1-.25.21-.36.34-.32.38-.46.79-.39,1.16.06.39.34.66.56.81-.4.34-.53.69-.56.93-.05.4.11.83.44,1.2.08.09.17.18.27.26ZM18.12,27.03c0-1.02.9-1.83,1.34-2.17-.12.59-.46,1.64-1.34,2.17ZM23.79,23.92c-.84.45-1.9.14-2.43-.07.57-.18,1.59-.37,2.43.07ZM22.02,20.66c-.03.95-.83,1.72-1.28,2.07.13-.59.47-1.56,1.28-2.07ZM18.3,20.56c.81.5,1.07,1.58,1.15,2.14-.44-.41-1.12-1.18-1.15-2.14ZM20.7,24.94c.44.41,1.12,1.18,1.15,2.14-.81-.5-1.07-1.58-1.15-2.14ZM18.8,23.8c-.58.18-1.59.37-2.43-.07.83-.45,1.9-.13,2.43.07Z"/>
      <path class="cls-2" d="M16.29,26.34c-.03-.13-.05-.26-.06-.39-.09-.07-.17-.15-.25-.23,0,.14,0,.28.02.42.09.08.19.15.29.2ZM16.31,21.58c.01-.13.04-.26.08-.38-.03.01-.05.03-.08.04-.09.05-.18.11-.27.19-.03.14-.04.28-.03.41.09-.1.19-.18.3-.26Z"/>
    </g>
    <path class="cls-2" d="M18.61,19.11c.4-.23.98-.24,1.54,0,.61-.22,1.2-.18,1.61.13.27.21.45.52.53.94.25-.1.61-.2.98-.07.48.18.84.72.93,1.41.49.42.75.96.69,1.46-.04.34-.23.66-.55.93.21.17.48.43.55.81.09.5-.21,1.09-.75,1.52-.11.63-.45,1.13-.91,1.33-.32.13-.68.13-1.08,0-.03.26-.13.63-.43.88-.39.33-1.05.37-1.69.11-.61.22-1.2.18-1.61-.13-.27-.21-.45-.52-.53-.94-.25.1-.61.2-.98.07-.48-.18-.84-.72-.94-1.41-.5-.42-.75-.96-.69-1.46.04-.34.23-.66.55-.93-.21-.16-.48-.43-.55-.81-.09-.51.21-1.09.75-1.52.11-.63.45-1.13.91-1.32.32-.13.69-.13,1.08,0,.04-.26.13-.63.43-.88.05-.04.09-.07.15-.1h0ZM23.95,25.96c.44-.35.68-.82.62-1.2-.06-.37-.42-.61-.59-.73l-.19-.13.19-.14c.34-.24.55-.54.59-.84.05-.4-.19-.86-.62-1.21l-.05-.04v-.07c-.07-.58-.37-1.06-.74-1.2-.36-.13-.74.05-.92.14l-.21.1-.02-.23c-.05-.44-.19-.75-.44-.94-.32-.24-.84-.27-1.36-.06l-.06.03-.06-.03c-.54-.23-1.1-.22-1.41.03-.29.24-.32.67-.34.87l-.02.23-.21-.1c-.22-.1-.64-.25-1.02-.09-.37.16-.65.59-.73,1.14v.07s-.06.04-.06.04c-.47.35-.75.85-.68,1.24.06.37.42.61.59.73l.2.13-.19.14c-.2.14-.54.43-.59.84-.05.4.19.86.63,1.21l.05.04v.07c.07.59.36,1.07.75,1.21.36.13.74-.06.92-.14l.21-.1.02.23c.05.44.19.75.43.93.32.24.84.27,1.36.06l.06-.03.06.03c.54.24,1.1.22,1.41-.03.29-.25.32-.68.33-.87l.02-.23.21.1c.39.18.74.21,1.03.09.36-.15.64-.57.73-1.09l.02-.11"/>
  </g>
  <g>
    <path class="cls-1" d="M5.99,21.49c.08-.55.37-1.07.83-1.27.49-.21,1.02.03,1.16.09.02-.22.05-.7.39-.99.39-.32,1.03-.3,1.59-.06.52-.21,1.11-.22,1.51.08.43.33.49.89.5,1.05.2-.1.63-.3,1.05-.15.47.17.77.74.84,1.34.44.34.75.85.68,1.35-.07.53-.53.86-.66.95.18.12.58.39.65.83.09.5-.26,1.04-.74,1.4-.08.55-.37,1.07-.83,1.27-.49.21-1.02-.03-1.15-.09-.02.22-.05.7-.39.99-.39.32-1.03.3-1.58.06,0,0,0,0,0,0-.52.21-1.11.22-1.51-.08-.43-.32-.48-.89-.5-1.05-.2.1-.63.31-1.05.15-.47-.18-.78-.75-.84-1.34-.44-.34-.75-.85-.68-1.35.07-.53.53-.86.66-.95-.18-.12-.58-.39-.65-.83-.09-.5.26-1.04.74-1.4Z"/>
    <g class="cls-3">
      <path class="cls-2" d="M9.83,28.5c.14-.04.26-.11.38-.18-.13-.03-.25-.08-.37-.13-.12.05-.25.1-.38.12.11.07.24.14.37.19ZM13.58,26.44c.12-.06.24-.14.35-.23.03-.14.04-.28.04-.42-.09.09-.19.18-.3.25-.02.13-.04.27-.09.39Z"/>
      <path class="cls-2" d="M5.83,21.79c.09-.09.19-.18.3-.25.02-.11.04-.22.08-.33-.12.06-.24.14-.35.23-.02.12-.03.24-.03.35ZM5.8,26.07c.1.09.22.17.33.24-.03-.11-.05-.22-.06-.33-.1-.08-.21-.17-.29-.27,0,.11,0,.23.02.35Z"/>
      <path class="cls-2" d="M13.58,26.44c.12-.06.24-.14.35-.23.03-.14.04-.28.04-.42-.09.09-.19.18-.3.25-.02.13-.04.27-.09.39ZM13.72,21.67c.11.08.21.17.3.27,0-.14,0-.28-.03-.42-.1-.09-.21-.16-.33-.23h-.01c.04.12.06.25.07.38Z"/>
      <path class="cls-2" d="M13.72,21.67c.11.08.21.17.3.27,0-.14,0-.28-.03-.42-.1-.09-.21-.16-.33-.23h-.01c.04.12.06.25.07.38ZM9.96,19.43c.12-.06.24-.09.37-.12-.02-.02-.05-.03-.08-.05-.09-.05-.19-.1-.3-.14-.13.05-.26.1-.37.18.13.03.25.08.37.13Z"/>
      <path class="cls-2" d="M9.83,28.5c.14-.04.26-.11.38-.18-.13-.03-.25-.08-.37-.13-.12.05-.25.1-.38.12.11.07.24.14.37.19ZM5.8,26.07c.1.09.22.17.33.24-.03-.11-.05-.22-.06-.33-.1-.08-.21-.17-.29-.27,0,.11,0,.23.02.35Z"/>
      <path class="cls-2" d="M5.86,21.44c.11-.09.23-.16.35-.23,0-.02,0-.03.01-.05.13-.39.37-.68.66-.8.27-.11.59-.1.95.05-.03,1.19.84,2.13,1.32,2.57-.08-.05-.17-.11-.25-.18-.59-.45-.87-.89-1.08-1.2-.14-.22-.27-.42-.45-.52-.1-.05-.2-.09-.34-.09-.27,0-.56.08-.83.23-.04.11-.06.22-.08.33.29-.2.62-.32.91-.32.25,0,.36.15.58.49.21.33.5.79,1.13,1.27.21.16.4.28.56.38.12.08.21.14.28.19h0s0,.06.01.08c-.02,0-.03,0-.05.01-.08-.04-.17-.09-.29-.16-.16-.09-.36-.21-.6-.31-.72-.32-1.27-.34-1.67-.36-.41-.01-.58-.03-.71-.24-.16-.28-.22-.66-.17-1.05-.11.07-.21.16-.3.25,0,.35.07.68.22.94.21.36.53.37.94.38.4.02.89.03,1.56.33.14.06.26.12.37.18-.48-.22-1.92-.77-3.01-.06-.19-.13-.48-.36-.54-.71-.05-.29.07-.63.33-.95.04-.05.08-.09.12-.13,0-.12,0-.23.03-.35-.12.1-.24.21-.34.33-.31.37-.45.78-.38,1.14.07.39.36.66.57.82-.41.34-.54.69-.57.93-.05.39.11.81.43,1.18.07.08.15.16.23.22-.02-.12-.02-.24-.02-.35-.01-.01-.02-.02-.03-.03-.28-.32-.41-.67-.37-1,.04-.3.22-.57.54-.82,1,.63,2.24.36,2.86.15-.08.04-.17.08-.27.12-.69.29-1.2.31-1.58.33-.41.02-.73.03-.93.39-.14.24-.21.54-.22.86.09.1.19.19.29.27-.04-.36.02-.73.17-.98.12-.21.29-.22.7-.24.4-.02.94-.05,1.67-.35.25-.1.45-.21.61-.29.13-.07.24-.12.33-.16.01,0,.03.01.04.01-.01.03-.02.06-.02.09h0c-.07.05-.15.1-.25.16-.16.09-.36.21-.57.36-.63.46-.92.92-1.13,1.26-.22.35-.33.5-.58.5-.25,0-.52-.08-.77-.23-.07-.04-.13-.08-.19-.13.01.11.03.22.06.33.29.17.61.27.91.27.4,0,.57-.27.79-.62.21-.34.48-.76,1.07-1.19.12-.09.24-.16.35-.23-.41.29-1.63,1.28-1.57,2.59-.2.09-.54.22-.85.1-.27-.1-.5-.37-.64-.75-.02-.06-.04-.12-.05-.18-.12-.07-.23-.15-.33-.24.02.17.06.35.12.52.17.46.46.79.81.92.37.14.74.03.98-.07.07.42.25.74.52.95.32.24.77.32,1.26.22.11-.02.23-.06.33-.1-.13-.05-.26-.12-.37-.19,0,0-.01,0-.02,0-.36.07-.69.03-.94-.11-.03-.02-.06-.04-.09-.06-.23-.17-.38-.46-.43-.85.95-.51,1.35-1.56,1.52-2.23,0,.04,0,.07-.01.11-.09.74-.33,1.19-.5,1.53-.1.18-.18.34-.22.5-.03.16-.02.32.08.5.13.23.35.44.61.6.13-.03.26-.07.38-.12-.05-.03-.11-.05-.16-.08-.25-.14-.46-.33-.58-.54-.12-.21-.05-.36.14-.73.18-.35.43-.84.53-1.62.03-.26.04-.49.05-.68,0-.17.01-.3.03-.39,0,0,.01-.01.02-.02.01.02.03.04.05.05,0,.08,0,.19,0,.33,0,.18,0,.41.03.68.08.78.34,1.27.53,1.62.19.36.27.52.14.73-.16.27-.45.51-.8.65.12.06.24.1.37.13.29-.17.53-.4.67-.64.21-.36.06-.65-.14-1.01-.19-.35-.42-.79-.5-1.52,0-.02,0-.04,0-.06.11.67.45,1.8,1.41,2.3-.02.23-.08.57-.34.79-.22.18-.57.25-.97.18-.05,0-.1-.02-.15-.03-.12.07-.24.13-.38.18.15.06.31.11.48.14.48.09.91,0,1.2-.24.3-.25.4-.63.43-.89.41.14.77.15,1.08.02.37-.16.66-.5.83-.98.04-.11.07-.22.08-.34-.11.09-.23.16-.35.23,0,0,0,.01,0,.02-.14.4-.37.68-.66.81-.27.11-.59.1-.95-.05.03-1.1-.7-1.98-1.2-2.45.04.03.08.06.12.09.59.45.87.88,1.07,1.2.15.23.27.42.46.53.1.05.21.09.35.09.27,0,.56-.08.82-.23.04-.13.07-.26.09-.39-.29.21-.62.33-.91.33-.24,0-.34-.14-.56-.48-.22-.34-.51-.79-1.14-1.28-.21-.16-.41-.28-.56-.38-.13-.08-.23-.14-.3-.2,0-.02,0-.03,0-.05.02,0,.03,0,.05-.01.08.04.17.09.29.15.16.09.36.21.6.31.72.32,1.27.34,1.67.36.41.01.58.03.71.24.16.27.21.64.17,1.02.11-.07.21-.16.3-.25,0-.33-.07-.66-.22-.91-.07-.12-.15-.2-.25-.26-.19-.11-.42-.11-.69-.12-.4-.01-.9-.03-1.56-.33-.03-.01-.06-.03-.1-.04.63.24,1.81.55,2.74-.06.18.13.46.36.51.68.05.28-.07.62-.33.93-.03.04-.07.08-.11.11,0,.14,0,.28-.04.42.13-.1.25-.22.36-.34.32-.38.46-.79.39-1.16-.07-.39-.35-.66-.56-.81.33-.28.51-.59.56-.93.05-.4-.11-.83-.44-1.2-.08-.09-.16-.17-.25-.25.02.14.03.28.03.42,0,0,0,0,.01.02.28.31.41.66.37.98-.03.29-.21.56-.52.79-.92-.57-2.04-.39-2.7-.19.04-.02.07-.03.11-.05.69-.29,1.2-.31,1.58-.33.41-.02.73-.03.93-.39.13-.23.21-.52.22-.83-.09-.1-.19-.19-.3-.27.03.35-.03.7-.17.95-.12.21-.29.22-.7.24-.4.02-.94.04-1.67.35-.25.1-.45.21-.61.29-.13.07-.24.13-.32.16-.01,0-.03-.01-.05-.02,0-.01,0-.03.01-.04.07-.05.16-.1.28-.18.16-.09.36-.21.57-.37.64-.46.93-.93,1.14-1.27.22-.35.32-.49.56-.49.31,0,.66.14.97.36,0-.13-.03-.27-.07-.39-.29-.17-.6-.26-.9-.26-.41,0-.58.27-.81.63-.21.34-.47.76-1.07,1.19-.02.01-.03.03-.05.04.52-.43,1.34-1.29,1.29-2.38.2-.09.54-.22.85-.1.27.1.5.37.64.75.01.05.03.09.04.14h.01c.11.07.23.15.33.24-.02-.16-.06-.32-.12-.48-.14-.39-.36-.68-.64-.84-.05-.03-.11-.06-.16-.08-.37-.14-.74-.03-.98.07-.09-.52-.33-.8-.53-.95-.33-.24-.77-.32-1.26-.22-.11.02-.23.06-.34.1.1.04.2.09.3.14.03.02.05.03.08.05,0,0,.01,0,.02,0,.41-.08.78-.02,1.03.17.23.17.38.46.43.85-.96.51-1.36,1.58-1.52,2.25,0-.04,0-.08.01-.13.09-.74.33-1.19.5-1.53.09-.18.18-.34.21-.5.04-.16.02-.32-.08-.5-.14-.23-.35-.44-.61-.6-.13.03-.25.07-.37.12.32.15.59.38.73.63.12.21.05.36-.14.72-.18.35-.43.84-.53,1.62-.03.26-.04.49-.05.68,0,.15-.01.27-.02.36-.02.02-.04.04-.05.05,0,0,0-.01-.01-.02-.01-.09-.01-.21-.01-.36,0-.18,0-.41-.03-.68-.08-.78-.34-1.27-.53-1.62-.19-.36-.27-.52-.15-.73.16-.27.45-.51.8-.66-.12-.06-.24-.1-.37-.13-.29.17-.53.39-.68.65-.21.36-.05.64.14,1.01.19.35.42.79.5,1.52,0,.02,0,.03,0,.04-.12-.67-.45-1.8-1.41-2.29.02-.22.08-.57.33-.79.22-.18.57-.25.97-.18.05.01.1.02.15.03.12-.07.24-.13.37-.18-.15-.06-.31-.11-.47-.14-.48-.09-.91,0-1.2.24-.3.25-.4.63-.43.89-.5-.18-.86-.11-1.09-.02-.37.16-.66.51-.82.98-.04.12-.07.24-.09.37ZM6.14,23.72c.89-.5,2.03-.14,2.55.07-.57.19-1.65.42-2.55-.07ZM11.67,27.07c-.81-.5-1.07-1.58-1.15-2.14.44.41,1.12,1.19,1.15,2.14ZM13.61,23.9c-.84.45-1.9.14-2.43-.07.57-.18,1.59-.38,2.43.07ZM11.83,20.64c-.03.95-.83,1.72-1.28,2.07.13-.59.46-1.56,1.28-2.07ZM9.24,24.91c-.13.58-.46,1.56-1.28,2.07.03-.95.83-1.72,1.28-2.07ZM9.28,22.69c-.44-.41-1.12-1.19-1.15-2.14.81.5,1.07,1.58,1.15,2.14Z"/>
      <path class="cls-2" d="M5.83,21.79c.09-.09.19-.18.3-.25.02-.11.04-.22.08-.33-.12.06-.24.14-.35.23-.02.12-.03.24-.03.35ZM9.96,19.43c.12-.06.24-.09.37-.12-.02-.02-.05-.03-.08-.05-.09-.05-.19-.1-.3-.14-.13.05-.26.1-.37.18.13.03.25.08.37.13Z"/>
    </g>
    <path class="cls-2" d="M13.24,20.18c.4.23.69.73.78,1.33.5.41.76.95.69,1.46-.04.34-.23.65-.55.93.21.16.48.43.55.81.09.5-.21,1.09-.75,1.51-.11.64-.45,1.13-.92,1.33-.31.13-.69.13-1.08,0-.04.27-.13.63-.43.88-.39.33-1.05.36-1.69.11-.6.22-1.21.17-1.61-.13-.28-.21-.45-.52-.53-.94-.25.1-.61.2-.97.07-.48-.18-.85-.73-.94-1.41-.5-.41-.76-.95-.69-1.46.04-.34.23-.65.55-.93-.21-.16-.48-.43-.55-.81-.09-.5.21-1.09.75-1.51.11-.64.45-1.13.92-1.33.31-.13.69-.13,1.08.01.04-.26.13-.63.43-.88.39-.33,1.05-.37,1.69-.11.6-.22,1.2-.18,1.6.13.27.21.46.54.53.94.25-.1.61-.2.98-.07.06.02.11.04.16.07h0ZM9.98,28.23c.52.21,1.05.18,1.35-.06.29-.24.32-.67.33-.87l.02-.23.21.1c.38.18.74.21,1.02.09.37-.16.65-.6.74-1.15v-.07s.06-.04.06-.04c.47-.35.74-.84.67-1.24-.06-.37-.42-.61-.59-.73l-.19-.13.19-.14c.35-.26.55-.54.59-.85.05-.4-.19-.86-.62-1.21l-.05-.04v-.07c-.07-.58-.37-1.06-.74-1.2-.35-.13-.74.06-.92.14l-.21.1-.02-.23c-.02-.24-.1-.68-.43-.93-.32-.24-.84-.27-1.35-.06l-.06.03-.06-.03c-.54-.24-1.11-.23-1.42.03-.29.24-.32.67-.33.87l-.02.24-.21-.1c-.22-.1-.64-.25-1.02-.09-.37.16-.65.6-.73,1.15v.07s-.06.04-.06.04c-.48.35-.75.84-.68,1.24.06.37.42.61.59.73l.19.13-.19.14c-.35.26-.55.54-.59.84-.05.4.19.86.62,1.21l.05.04v.07c.07.58.36,1.06.74,1.2.36.13.75-.06.92-.14l.21-.1.02.23c.04.43.19.74.43.93.31.23.81.27,1.31.08l.11-.04"/>
  </g>
  <g>
    <path class="cls-1" d="M4.88,10.44c.52-.2,1.11-.22,1.51.08.43.32.48.89.5,1.05.2-.1.63-.31,1.05-.15.48.17.78.75.84,1.34.44.34.74.85.68,1.35-.07.53-.53.87-.66.95.18.13.58.39.66.83.08.49-.26,1.04-.74,1.4-.08.55-.37,1.07-.83,1.27-.49.21-1.02-.03-1.15-.09-.02.22-.05.7-.39.98-.39.32-1.03.3-1.58.06-.52.2-1.11.22-1.52-.09-.43-.32-.48-.89-.5-1.04-.2.1-.63.31-1.05.15-.47-.17-.77-.75-.84-1.34,0,0,0,0,0,0-.44-.34-.74-.85-.68-1.35.07-.53.53-.86.66-.95-.18-.12-.58-.39-.66-.83-.08-.5.26-1.04.74-1.4.08-.55.37-1.07.83-1.27.49-.21,1.02.03,1.15.09.02-.22.05-.7.39-.98.39-.32,1.03-.3,1.58-.06Z"/>
    <g class="cls-3">
      <path class="cls-2" d="M.72,17.28c.11.1.22.17.34.24-.04-.13-.06-.26-.07-.39-.11-.08-.21-.17-.29-.27,0,.14,0,.27.02.42ZM4.38,19.49c.12.07.24.14.37.19.13-.05.26-.1.38-.18-.13-.03-.25-.07-.37-.13-.12.05-.25.09-.38.12Z"/>
      <path class="cls-2" d="M4.53,10.45c.13.04.25.08.37.14.11-.04.21-.08.33-.1-.12-.07-.24-.14-.37-.19-.11.04-.22.09-.32.15ZM.81,12.57c-.03.14-.04.27-.04.41.08-.08.16-.15.25-.21.02-.13.04-.26.08-.39-.1.05-.2.12-.29.19Z"/>
      <path class="cls-2" d="M4.38,19.49c.12.07.24.14.37.19.13-.05.26-.1.38-.18-.13-.03-.25-.07-.37-.13-.12.05-.25.09-.38.12ZM8.59,17.23c-.01.13-.04.26-.08.39.12-.06.24-.14.35-.23.03-.13.04-.27.04-.4v-.02c-.09.1-.19.18-.3.26Z"/>
      <path class="cls-2" d="M8.59,17.23c-.01.13-.04.26-.08.39.12-.06.24-.14.35-.23.03-.13.04-.27.04-.4v-.02c-.09.1-.19.18-.3.26ZM8.64,12.85c.11.07.2.16.29.26,0-.03,0-.06,0-.09,0-.11,0-.22-.03-.33-.11-.09-.22-.17-.34-.24.04.13.06.26.07.39Z"/>
      <path class="cls-2" d="M.72,17.28c.11.1.22.17.34.24-.04-.13-.06-.26-.07-.39-.11-.08-.21-.17-.29-.27,0,.14,0,.27.02.42ZM.81,12.57c-.03.14-.04.27-.04.41.08-.08.16-.15.25-.21.02-.13.04-.26.08-.39-.1.05-.2.12-.29.19Z"/>
      <path class="cls-2" d="M4.85,10.3c.13.05.26.11.37.19.02,0,.03,0,.05-.01.41-.08.78-.02,1.03.17.23.17.38.46.43.85-1.05.57-1.43,1.79-1.56,2.43,0-.1.02-.2.03-.31.09-.74.33-1.2.5-1.54.12-.24.23-.44.23-.65,0-.11-.03-.22-.09-.33-.13-.24-.35-.45-.61-.61-.11.02-.22.06-.33.1.32.15.59.38.73.63.13.22.05.39-.14.75-.18.35-.43.83-.53,1.62-.03.26-.04.49-.05.68,0,.14-.01.25-.02.34h0s-.05.04-.06.05c0-.01-.02-.03-.04-.04,0-.08,0-.19,0-.33,0-.18,0-.41-.03-.68-.08-.79-.34-1.27-.53-1.62-.19-.37-.27-.52-.15-.73.16-.28.47-.52.82-.67-.12-.06-.24-.1-.37-.14-.31.17-.56.4-.71.66-.21.36-.05.65.14,1.01.18.35.42.79.49,1.52.02.15.02.29.03.41-.05-.52-.29-2.05-1.46-2.64.02-.23.08-.59.35-.82.23-.19.58-.26.99-.18.06,0,.12.02.17.04.1-.06.21-.11.32-.15-.15-.06-.3-.1-.45-.13-.48-.08-.9,0-1.18.24-.31.26-.39.64-.42.9-.5-.19-.87-.12-1.1-.03-.36.16-.65.5-.81.97-.04.1-.06.21-.08.31.09-.07.19-.14.29-.19,0-.02,0-.03.01-.05.14-.4.38-.7.68-.82.27-.12.6-.1.98.06-.05,1.18.81,2.12,1.3,2.55-.08-.05-.16-.11-.24-.17-.59-.45-.87-.89-1.07-1.2-.22-.34-.39-.61-.81-.61-.28,0-.58.09-.85.24-.04.13-.07.26-.08.39.3-.21.64-.34.94-.34.24,0,.34.14.56.48.22.33.51.79,1.14,1.27.21.16.4.28.56.38.13.08.23.15.3.2,0,.02,0,.03,0,.05-.03,0-.06.01-.09.02h0c-.07-.04-.16-.08-.26-.14-.16-.09-.36-.2-.6-.31-.71-.32-1.26-.34-1.66-.35-.41-.02-.59-.03-.72-.25-.12-.22-.19-.49-.19-.79,0-.08,0-.15.01-.23-.09.06-.17.14-.25.21,0,.34.07.67.22.92.2.35.52.36.93.37.4.02.9.03,1.57.33.14.06.26.13.38.19-.45-.21-1.93-.77-3.03-.07-.18-.13-.46-.36-.51-.68-.05-.28.07-.62.33-.93.04-.05.08-.09.13-.14,0-.14.01-.27.04-.41-.14.1-.27.22-.39.36-.32.38-.46.79-.39,1.16.06.39.35.65.56.81-.33.27-.51.59-.56.93-.05.4.11.83.44,1.21.08.09.16.17.25.24-.02-.14-.03-.28-.02-.42,0,0,0,0-.01-.01-.25-.28-.38-.58-.38-.87,0-.04,0-.07,0-.11.04-.29.21-.56.52-.8.92.57,2.03.39,2.69.2-.03.02-.06.03-.1.05-.69.29-1.2.31-1.57.33-.2,0-.39.02-.54.06-.16.05-.29.14-.39.32-.14.23-.21.52-.22.83.09.1.19.19.29.27,0-.06,0-.12,0-.18,0-.29.06-.56.18-.77.12-.21.29-.22.7-.24.4-.02.94-.05,1.67-.35.24-.1.45-.21.61-.29.15-.08.27-.14.36-.17,0,0,.02,0,.02,0,0,.02-.02.04-.02.07-.07.05-.16.1-.28.17-.16.09-.36.21-.57.37-.64.46-.93.93-1.14,1.27-.22.35-.32.49-.56.49-.31,0-.67-.14-.97-.37.01.13.04.26.07.39.29.17.61.26.9.26.41,0,.59-.27.81-.62.21-.34.48-.76,1.07-1.19.02-.01.04-.03.05-.04-.52.43-1.34,1.29-1.29,2.38-.21.09-.54.22-.85.1-.27-.1-.5-.37-.64-.75-.02-.05-.03-.09-.05-.14-.12-.07-.24-.15-.34-.24.02.16.06.33.12.48.17.46.46.79.81.92.37.14.74.03.98-.07.08.42.25.74.53.95.32.25.77.32,1.26.22.11-.02.23-.05.33-.1-.13-.05-.26-.12-.37-.19,0,0-.01,0-.02,0-.41.08-.78.02-1.03-.17-.23-.17-.38-.46-.43-.85.97-.52,1.36-1.6,1.53-2.27,0,.05,0,.1-.02.15-.09.74-.33,1.19-.5,1.53-.12.24-.23.45-.23.66,0,.11.03.22.1.34.14.23.35.44.61.6.13-.03.26-.07.38-.12-.32-.15-.59-.38-.74-.63-.12-.21-.05-.36.14-.72.18-.36.43-.84.54-1.63.03-.26.04-.49.05-.68,0-.15,0-.27.02-.36.01,0,.03-.02.04-.03,0,.01.02.03.04.04,0,.08,0,.19,0,.33,0,.18,0,.41.03.68.08.79.34,1.27.53,1.62.19.37.27.52.15.73-.16.27-.45.51-.8.66.12.06.24.1.37.13.29-.16.53-.39.68-.64.07-.12.1-.23.1-.35,0-.22-.11-.42-.24-.66-.19-.35-.42-.79-.5-1.52,0-.04,0-.07,0-.11.11.66.43,1.84,1.42,2.35-.02.23-.08.58-.34.79-.22.18-.57.25-.97.18-.05,0-.1-.02-.15-.04-.12.07-.25.13-.38.18.15.06.31.11.48.14.48.08.91,0,1.2-.24.3-.25.39-.63.43-.89.4.15.77.15,1.09.02.37-.16.66-.51.82-.98.04-.11.07-.23.09-.34-.11.09-.23.17-.35.23,0,0,0,.01,0,.02-.13.39-.37.68-.66.81-.27.11-.59.1-.95-.05.04-1.08-.69-1.96-1.18-2.44.03.02.06.05.1.07.59.45.87.89,1.07,1.2.22.34.39.61.8.61.27,0,.56-.08.83-.22.04-.13.07-.26.08-.39-.29.2-.62.33-.91.33-.24,0-.34-.14-.56-.48-.21-.33-.51-.79-1.14-1.27-.21-.16-.41-.28-.56-.38-.13-.08-.23-.15-.3-.2,0-.02,0-.03,0-.05.02,0,.03,0,.05,0,.08.04.17.09.29.15.16.09.36.2.6.31.72.32,1.27.34,1.67.36.41.01.58.03.7.24.16.27.21.64.17,1.02.11-.07.21-.16.3-.26,0-.34-.08-.65-.22-.91-.2-.36-.53-.37-.94-.38-.4-.01-.89-.03-1.56-.33-.02,0-.04-.02-.06-.03.64.24,1.79.52,2.7-.07.18.13.46.36.51.68.05.28-.07.62-.33.93-.03.04-.06.07-.1.11v.02c0,.13,0,.27-.04.4.13-.1.25-.21.36-.34.27-.32.41-.66.41-.98,0-.06,0-.12-.01-.18-.07-.39-.35-.65-.56-.81.4-.34.53-.69.56-.93.05-.4-.11-.83-.44-1.21-.08-.09-.16-.17-.26-.24.02.11.03.22.03.33,0,.03,0,.06,0,.09,0,0,0,0,.02.02.27.31.4.66.37.98-.04.29-.21.56-.52.8-.92-.57-2.05-.39-2.71-.19.04-.02.08-.04.12-.05.69-.29,1.2-.31,1.58-.33.2,0,.39-.02.54-.07.16-.05.29-.14.39-.32.13-.23.21-.52.22-.83-.09-.1-.18-.19-.29-.26.03.35-.03.7-.18.95-.12.21-.29.22-.7.24-.4.02-.94.05-1.67.35-.25.1-.45.21-.61.29-.13.07-.24.12-.32.16-.02,0-.05-.01-.07-.02,0,0,0-.01,0-.02.07-.05.17-.12.31-.19.16-.09.36-.21.57-.37.64-.46.93-.93,1.14-1.27.22-.35.32-.49.56-.49.31,0,.67.14.97.37-.01-.13-.04-.26-.07-.39-.29-.17-.61-.27-.9-.27-.41,0-.59.27-.81.62-.21.34-.48.76-1.07,1.19-.01,0-.03.02-.04.03.52-.44,1.33-1.29,1.27-2.37.2-.09.54-.22.85-.1.27.1.5.37.64.75.02.05.03.1.05.15.12.06.23.15.34.24-.02-.16-.06-.32-.11-.48-.17-.46-.46-.79-.81-.92-.37-.14-.74-.03-.98.07-.09-.52-.33-.8-.53-.95-.32-.24-.77-.32-1.26-.22-.12.03-.25.06-.36.11ZM3.02,11.68c.88.52,1.13,1.69,1.21,2.24-.45-.4-1.19-1.22-1.21-2.24ZM2.88,18.15c.03-.95.83-1.72,1.28-2.07-.13.59-.47,1.56-1.28,2.07ZM6.59,18.25c-.81-.5-1.07-1.58-1.15-2.14.44.41,1.12,1.19,1.15,2.14ZM8.53,15.08c-.84.45-1.9.14-2.43-.07.57-.18,1.58-.38,2.43.07ZM3.54,14.97c-.57.18-1.58.38-2.43-.07.84-.45,1.9-.14,2.43.07ZM5.48,13.89c.13-.59.47-1.56,1.28-2.07-.03.95-.83,1.71-1.28,2.07Z"/>
      <path class="cls-2" d="M4.53,10.45c.13.04.25.08.37.14.11-.04.21-.08.33-.1-.12-.07-.24-.14-.37-.19-.11.04-.22.09-.32.15ZM8.64,12.85c.11.07.2.16.29.26,0-.03,0-.06,0-.09,0-.11,0-.22-.03-.33-.11-.09-.22-.17-.34-.24.04.13.06.26.07.39Z"/>
    </g>
    <path class="cls-2" d="M9.64,16.07c0,.46-.28.96-.77,1.34-.11.64-.45,1.13-.92,1.33-.32.13-.68.13-1.08,0-.04.27-.13.63-.43.88-.39.33-1.05.37-1.68.11-.61.22-1.21.17-1.61-.13-.27-.2-.46-.53-.53-.94-.25.1-.61.2-.98.07-.48-.18-.84-.73-.94-1.41-.49-.41-.75-.96-.69-1.45.04-.34.23-.65.55-.93-.21-.16-.48-.42-.55-.81-.09-.5.21-1.1.75-1.51.11-.64.45-1.13.92-1.33.32-.13.68-.13,1.08,0,.04-.27.13-.63.43-.88.39-.33,1.05-.37,1.69-.11.61-.22,1.21-.17,1.61.13.27.21.46.53.53.94.25-.1.61-.2.98-.07.48.18.84.73.94,1.41.49.41.75.95.69,1.45-.04.34-.24.66-.55.93.21.16.48.43.55.81,0,.06.02.12.02.18h0ZM1.03,17.27c.08.55.37,1,.73,1.13.35.13.74-.05.92-.15l.21-.1.02.23c.04.41.19.74.43.93.32.24.84.27,1.36.06l.06-.03.06.03c.54.24,1.1.22,1.41-.04.29-.24.32-.67.34-.87l.02-.23.21.09c.4.18.74.21,1.03.09.37-.16.65-.59.73-1.14v-.07s.06-.04.06-.04c.47-.35.74-.85.68-1.24-.06-.37-.42-.61-.59-.73l-.19-.13.19-.14c.2-.14.54-.43.59-.84.05-.4-.19-.86-.62-1.2l-.05-.04v-.07c-.07-.59-.37-1.07-.74-1.21-.36-.13-.74.05-.92.15l-.21.1-.02-.23c-.02-.24-.1-.68-.43-.93-.32-.24-.84-.27-1.36-.06l-.06.03-.06-.03c-.55-.24-1.1-.23-1.41.04-.29.24-.32.67-.34.87l-.02.23-.21-.09c-.4-.18-.74-.21-1.02-.09-.37.16-.65.59-.73,1.14v.07s-.06.04-.06.04c-.47.35-.74.84-.68,1.24.07.38.43.62.59.72l.19.13-.19.14c-.35.25-.55.54-.59.84-.05.39.17.83.58,1.17l.09.07"/>
  </g>
  <g>
    <path class="cls-1" d="M13.89,3.96c.44.35.75.85.68,1.35-.07.53-.53.87-.66.95.18.13.58.39.66.83.09.5-.26,1.05-.74,1.4-.08.55-.36,1.07-.83,1.26-.5.21-1.02-.03-1.15-.09-.02.22-.05.7-.39.99-.39.32-1.03.3-1.58.06-.52.2-1.11.22-1.52-.08-.43-.32-.48-.89-.5-1.04-.2.1-.63.3-1.05.15-.47-.17-.77-.74-.84-1.34-.44-.35-.74-.85-.68-1.36.07-.53.53-.87.66-.95-.18-.13-.58-.39-.66-.83-.08-.5.26-1.04.74-1.4,0,0,0,0,0,0,.08-.55.36-1.07.83-1.27.49-.21,1.01.03,1.15.09.01-.22.05-.7.39-.98.39-.32,1.03-.3,1.58-.06.52-.2,1.11-.22,1.52.08.43.32.48.89.5,1.04.2-.1.63-.3,1.05-.15.47.17.77.74.84,1.34Z"/>
    <g class="cls-3">
      <path class="cls-2" d="M5.89,3.77c-.03.14-.04.28-.04.42.09-.1.19-.18.3-.26.01-.13.04-.26.09-.39-.12.06-.24.14-.35.23ZM5.8,8.05c0,.14,0,.28.02.42.11.09.22.17.34.24-.04-.12-.06-.25-.07-.38-.11-.08-.21-.17-.3-.27Z"/>
      <path class="cls-2" d="M13.71,3.66c.03.13.05.26.06.39.09.07.17.15.25.23,0-.14,0-.28-.02-.42-.09-.08-.19-.15-.29-.2ZM10.01,1.5c-.13.04-.26.1-.38.17.11.03.21.07.31.11.12-.05.25-.09.38-.12-.09-.06-.2-.12-.31-.16Z"/>
      <path class="cls-2" d="M5.8,8.05c0,.14,0,.28.02.42.11.09.22.17.34.24-.04-.12-.06-.25-.07-.38-.11-.08-.21-.17-.3-.27ZM9.87,10.56c-.12.06-.25.09-.38.12.12.07.24.14.38.19.13-.04.25-.1.36-.17h.01c-.13-.04-.26-.08-.38-.14Z"/>
      <path class="cls-2" d="M9.87,10.56c-.12.06-.25.09-.38.12.12.07.24.14.38.19.13-.04.25-.1.36-.17h.01c-.13-.04-.26-.08-.38-.14ZM13.69,8.42c-.01.13-.04.26-.08.38.03-.01.05-.03.08-.04.09-.05.18-.11.27-.19.03-.14.04-.28.03-.41-.09.1-.19.18-.3.26Z"/>
      <path class="cls-2" d="M5.89,3.77c-.03.14-.04.28-.04.42.09-.1.19-.18.3-.26.01-.13.04-.26.09-.39-.12.06-.24.14-.35.23ZM10.01,1.5c-.13.04-.26.1-.38.17.11.03.21.07.31.11.12-.05.25-.09.38-.12-.09-.06-.2-.12-.31-.16Z"/>
      <path class="cls-2" d="M13.99,3.87c.02.14.03.28.02.42.01.01.02.02.04.04.27.31.41.66.37.98-.03.29-.21.55-.52.8-1.01-.62-2.27-.34-2.88-.14.09-.04.18-.09.28-.13.69-.29,1.2-.31,1.58-.33.27-.01.49-.02.67-.13.1-.05.17-.13.24-.25.14-.23.21-.53.22-.84-.08-.09-.16-.16-.25-.23.03.35-.03.69-.18.95-.13.22-.31.24-.72.26-.39.01-.94.04-1.67.35-.24.1-.45.21-.61.29-.12.06-.22.11-.31.15h0s-.05-.02-.08-.03c0-.01.01-.03.01-.05.07-.05.16-.11.28-.17.16-.09.36-.21.57-.37.64-.47.93-.93,1.14-1.27.22-.35.32-.49.56-.49.32,0,.68.14.99.38,0-.13-.03-.26-.06-.39-.3-.18-.63-.28-.93-.28-.41,0-.59.28-.8.62-.21.34-.48.76-1.07,1.19-.12.09-.24.16-.34.23.43-.3,1.63-1.28,1.56-2.58.21-.1.55-.23.88-.11.28.1.51.37.65.76.02.06.04.11.05.17.1.06.2.12.29.2-.02-.16-.06-.31-.11-.46-.17-.46-.45-.78-.8-.91-.37-.14-.75-.02-.99.08-.09-.53-.33-.81-.52-.96-.32-.24-.76-.31-1.24-.22-.11.02-.21.05-.31.09.11.04.22.1.31.16.02,0,.03,0,.05-.01.42-.08.79-.02,1.05.17.24.18.39.48.44.88-1.05.55-1.43,1.76-1.56,2.41,0-.09.01-.19.03-.3.1-.74.33-1.2.51-1.53.19-.36.33-.65.13-1-.14-.24-.36-.45-.64-.62-.13.03-.26.07-.38.12.33.15.62.38.77.64.12.21.05.37-.14.73-.18.35-.43.84-.53,1.63-.03.26-.04.49-.05.68,0,.15-.01.27-.03.36-.01,0-.03.02-.03.03-.01-.03-.04-.04-.06-.06h0c0-.08,0-.18,0-.3,0-.19,0-.41-.03-.68-.08-.78-.34-1.26-.53-1.61-.19-.36-.27-.53-.14-.75.13-.21.33-.41.59-.56.07-.04.13-.07.21-.1-.1-.04-.2-.08-.31-.11-.3.17-.54.39-.69.65-.2.35-.05.63.14.99.18.35.42.79.5,1.52.02.15.02.29.03.42-.05-.5-.29-2.06-1.45-2.65.02-.22.08-.58.33-.79.22-.18.57-.25.97-.18.06,0,.12.02.18.04.12-.07.24-.13.38-.17-.16-.07-.33-.12-.51-.15-.48-.09-.91,0-1.2.24-.3.25-.39.63-.43.89-.4-.15-.77-.15-1.08-.02-.37.16-.66.51-.82.98-.04.11-.06.22-.08.34.11-.09.23-.17.35-.23,0,0,0-.01,0-.02.12-.35.32-.62.56-.76.03-.02.06-.04.1-.05.27-.11.59-.1.95.05-.03,1.08.68,1.95,1.17,2.43-.03-.02-.06-.04-.09-.06-.59-.45-.87-.88-1.07-1.2-.11-.17-.21-.33-.33-.44-.12-.11-.27-.18-.47-.18-.27,0-.56.08-.83.22-.04.13-.07.26-.09.39.05-.03.1-.07.15-.09.25-.14.52-.23.76-.23.24,0,.34.14.56.48.22.33.51.79,1.14,1.28.21.16.41.28.56.38.14.09.25.16.33.22,0,0,0,.02,0,.02-.02,0-.04,0-.07.01-.08-.03-.17-.09-.29-.16-.16-.09-.36-.2-.6-.31-.72-.32-1.27-.34-1.67-.35-.41-.02-.58-.03-.71-.24-.16-.27-.22-.64-.17-1.02-.11.08-.21.16-.3.26,0,.34.08.66.22.91.21.36.53.37.94.39.4.02.9.03,1.56.33.02,0,.04.02.06.03-.64-.23-1.78-.51-2.7.07-.18-.13-.46-.36-.51-.68-.05-.28.07-.62.33-.93.03-.04.07-.07.1-.11,0-.14,0-.28.04-.42-.13.1-.25.21-.36.34-.32.38-.46.79-.39,1.16.07.39.34.66.56.81-.33.28-.52.59-.56.93-.05.4.1.83.44,1.21.08.09.16.17.25.24-.02-.14-.03-.28-.02-.42,0,0-.01,0-.02-.01-.28-.32-.41-.66-.37-.98.04-.29.21-.55.52-.8.93.58,2.07.38,2.73.19-.04.02-.09.04-.13.06-.69.29-1.2.31-1.58.33-.27.01-.5.02-.69.13-.1.05-.18.14-.25.26-.13.23-.21.52-.22.83.09.1.19.19.3.27-.03-.35.03-.7.17-.95.12-.21.29-.23.7-.24.4-.02.94-.04,1.68-.35.24-.1.45-.21.61-.29.13-.07.24-.13.32-.16.01,0,.03.01.05.02,0,.01-.01.03-.01.05-.07.05-.16.11-.28.17-.16.09-.36.21-.57.37-.64.46-.93.93-1.14,1.27-.22.35-.32.49-.56.49-.31,0-.66-.14-.97-.36,0,.13.03.26.07.38.29.17.61.27.9.27.14,0,.25-.03.35-.09.19-.11.31-.31.45-.54.21-.34.48-.76,1.07-1.19.03-.02.06-.04.09-.06-.52.42-1.38,1.29-1.32,2.4-.21.09-.54.22-.85.1-.27-.1-.5-.37-.64-.75-.02-.05-.03-.1-.04-.15-.12-.07-.24-.15-.34-.24.02.16.06.33.12.49.17.46.46.79.81.92.37.14.74.03.98-.07.08.42.25.74.53.95.32.24.77.32,1.26.22.12-.02.23-.05.34-.1-.13-.05-.26-.11-.38-.19,0,0-.01,0-.02,0-.41.08-.78.02-1.03-.17-.23-.17-.38-.46-.43-.85.95-.51,1.35-1.57,1.52-2.24,0,.04,0,.08-.01.12-.1.74-.33,1.2-.5,1.53-.19.36-.33.65-.13,1,.13.23.35.44.61.61.13-.03.26-.07.38-.12-.32-.15-.59-.37-.74-.63-.12-.21-.05-.37.14-.73.18-.35.43-.84.53-1.62.03-.27.04-.5.05-.68,0-.15.01-.27.02-.36.01,0,.03-.02.04-.03,0,.01.02.02.03.03,0,.08.01.19.01.33,0,.19,0,.41.03.68.08.78.34,1.27.53,1.62.19.36.27.52.15.73-.15.27-.45.51-.8.65.12.06.25.1.38.13.29-.17.53-.39.67-.65.21-.35.05-.64-.14-1.01-.19-.35-.42-.79-.5-1.52,0-.02,0-.04,0-.06.11.67.45,1.81,1.41,2.31-.02.22-.08.57-.33.79-.22.18-.57.25-.97.18-.05-.01-.1-.02-.14-.03h-.01c-.11.07-.24.13-.36.18.15.06.31.11.47.14.41.07.77.02,1.05-.14.05-.03.1-.06.15-.1.3-.25.39-.63.43-.89.49.18.86.11,1.08.02.37-.16.66-.51.83-.98.04-.11.07-.23.08-.34-.09.07-.18.13-.27.19-.03.02-.05.03-.08.04,0,0,0,.01,0,.02-.13.39-.37.68-.66.8-.27.11-.59.1-.95-.05.03-1.09-.69-1.97-1.19-2.44.03.02.07.05.1.07.59.45.87.88,1.07,1.2.11.17.21.33.33.44.12.11.27.18.47.18.27,0,.55-.08.83-.23.04-.12.07-.25.08-.38-.29.2-.62.32-.91.32-.24,0-.34-.14-.56-.48-.22-.33-.51-.79-1.14-1.28-.21-.16-.41-.28-.56-.38-.13-.08-.23-.15-.3-.2,0-.02-.01-.05-.02-.07,0,0,.01,0,.02,0,.08.03.19.09.32.17.16.09.36.2.61.31.72.32,1.27.34,1.67.35.41.02.58.03.71.24.16.27.21.65.17,1.02.11-.08.21-.16.3-.26,0-.34-.07-.66-.22-.91-.21-.36-.53-.37-.94-.39-.4-.01-.9-.03-1.56-.33-.01,0-.03-.01-.04-.02.64.23,1.78.51,2.69-.08.18.13.46.36.51.68.05.28-.07.62-.33.93-.03.04-.07.08-.1.11,0,.14,0,.27-.03.41.13-.1.25-.21.36-.34.32-.38.46-.79.39-1.16-.06-.39-.34-.66-.56-.81.4-.34.53-.69.56-.93.05-.4-.11-.83-.44-1.2-.08-.09-.17-.18-.27-.26ZM11.88,2.97c0,1.02-.9,1.83-1.34,2.17.12-.59.46-1.64,1.34-2.17ZM6.21,6.08c.84-.45,1.9-.14,2.43.07-.57.18-1.59.37-2.43-.07ZM7.98,9.34c.03-.95.83-1.72,1.28-2.07-.13.59-.47,1.56-1.28,2.07ZM11.7,9.44c-.81-.5-1.07-1.58-1.15-2.14.44.41,1.12,1.18,1.15,2.14ZM9.3,5.06c-.44-.41-1.12-1.18-1.15-2.14.81.5,1.07,1.58,1.15,2.14ZM11.2,6.2c.58-.18,1.59-.37,2.43.07-.83.45-1.9.13-2.43-.07Z"/>
      <path class="cls-2" d="M13.71,3.66c.03.13.05.26.06.39.09.07.17.15.25.23,0-.14,0-.28-.02-.42-.09-.08-.19-.15-.29-.2ZM13.69,8.42c-.01.13-.04.26-.08.38.03-.01.05-.03.08-.04.09-.05.18-.11.27-.19.03-.14.04-.28.03-.41-.09.1-.19.18-.3.26Z"/>
    </g>
    <path class="cls-2" d="M11.39,10.89c-.4.23-.98.24-1.54,0-.61.22-1.2.18-1.61-.13-.27-.21-.45-.52-.53-.94-.25.1-.61.2-.98.07-.48-.18-.84-.72-.93-1.41-.49-.42-.75-.96-.69-1.46.04-.34.23-.66.55-.93-.21-.17-.48-.43-.55-.81-.09-.5.21-1.09.75-1.52.11-.63.45-1.13.91-1.33.32-.13.68-.13,1.08,0,.03-.26.13-.63.43-.88.39-.33,1.05-.37,1.69-.11.61-.22,1.2-.18,1.61.13.27.21.45.52.53.94.25-.1.61-.2.98-.07.48.18.84.72.94,1.41.5.42.75.96.69,1.46-.04.34-.23.66-.55.93.21.16.48.43.55.81.09.51-.21,1.09-.75,1.52-.11.63-.45,1.13-.91,1.32-.32.13-.69.13-1.08,0-.04.26-.13.63-.43.88-.05.04-.09.07-.15.1h0ZM6.05,4.04c-.44.35-.68.82-.62,1.2.06.37.42.61.59.73l.19.13-.19.14c-.34.24-.55.54-.59.84-.05.4.19.86.62,1.21l.05.04v.07c.07.58.37,1.06.74,1.2.36.13.74-.05.92-.14l.21-.1.02.23c.05.44.19.75.44.94.32.24.84.27,1.36.06l.06-.03.06.03c.54.23,1.1.22,1.41-.03.29-.24.32-.67.34-.87l.02-.23.21.1c.22.1.64.25,1.02.09.37-.16.65-.59.73-1.14v-.07s.06-.04.06-.04c.47-.35.75-.85.68-1.24-.06-.37-.42-.61-.59-.73l-.2-.13.19-.14c.2-.14.54-.43.59-.84.05-.4-.19-.86-.63-1.21l-.05-.04v-.07c-.07-.59-.36-1.07-.75-1.21-.36-.13-.74.06-.92.14l-.21.1-.02-.23c-.05-.44-.19-.75-.43-.93-.32-.24-.84-.27-1.36-.06l-.06.03-.06-.03c-.54-.24-1.1-.22-1.41.03-.29.25-.32.68-.33.87l-.02.23-.21-.1c-.39-.18-.74-.21-1.03-.09-.36.15-.64.57-.73,1.09l-.02.11"/>
  </g>
  <g>
    <path class="cls-1" d="M24.01,8.51c-.08.55-.37,1.07-.83,1.27-.49.21-1.02-.03-1.16-.09-.02.22-.05.7-.39.99-.39.32-1.03.3-1.59.06-.52.21-1.11.22-1.51-.08-.43-.33-.49-.89-.5-1.05-.2.1-.63.3-1.05.15-.47-.17-.77-.74-.84-1.34-.44-.34-.75-.85-.68-1.35.07-.53.53-.86.66-.95-.18-.12-.58-.39-.65-.83-.09-.5.26-1.04.74-1.4.08-.55.37-1.07.83-1.27.49-.21,1.02.03,1.15.09.02-.22.05-.7.39-.99.39-.32,1.03-.3,1.58-.06,0,0,0,0,0,0,.52-.21,1.11-.22,1.51.08.43.32.48.89.5,1.05.2-.1.63-.31,1.05-.15.47.18.78.75.84,1.34.44.34.75.85.68,1.35-.07.53-.53.86-.66.95.18.12.58.39.65.83.09.5-.26,1.04-.74,1.4Z"/>
    <g class="cls-3">
      <path class="cls-2" d="M20.17,1.5c-.14.04-.26.11-.38.18.13.03.25.08.37.13.12-.05.25-.1.38-.12-.11-.07-.24-.14-.37-.19ZM16.42,3.56c-.12.06-.24.14-.35.23-.03.14-.04.28-.04.42.09-.09.19-.18.3-.25.02-.13.04-.27.09-.39Z"/>
      <path class="cls-2" d="M24.17,8.21c-.09.09-.19.18-.3.25-.02.11-.04.22-.08.33.12-.06.24-.14.35-.23.02-.12.03-.24.03-.35ZM24.2,3.93c-.1-.09-.22-.17-.33-.24.03.11.05.22.06.33.1.08.21.17.29.27,0-.11,0-.23-.02-.35Z"/>
      <path class="cls-2" d="M16.42,3.56c-.12.06-.24.14-.35.23-.03.14-.04.28-.04.42.09-.09.19-.18.3-.25.02-.13.04-.27.09-.39ZM16.28,8.33c-.11-.08-.21-.17-.3-.27,0,.14,0,.28.03.42.1.09.21.16.33.23h.01c-.04-.12-.06-.25-.07-.38Z"/>
      <path class="cls-2" d="M16.28,8.33c-.11-.08-.21-.17-.3-.27,0,.14,0,.28.03.42.1.09.21.16.33.23h.01c-.04-.12-.06-.25-.07-.38ZM20.04,10.57c-.12.06-.24.09-.37.12.02.02.05.03.08.05.09.05.19.1.3.14.13-.05.26-.1.37-.18-.13-.03-.25-.08-.37-.13Z"/>
      <path class="cls-2" d="M20.17,1.5c-.14.04-.26.11-.38.18.13.03.25.08.37.13.12-.05.25-.1.38-.12-.11-.07-.24-.14-.37-.19ZM24.2,3.93c-.1-.09-.22-.17-.33-.24.03.11.05.22.06.33.1.08.21.17.29.27,0-.11,0-.23-.02-.35Z"/>
      <path class="cls-2" d="M24.14,8.56c-.11.09-.23.16-.35.23,0,.02,0,.03-.01.05-.13.39-.37.68-.66.8-.27.11-.59.1-.95-.05.03-1.19-.84-2.13-1.32-2.57.08.05.17.11.25.18.59.45.87.89,1.08,1.2.14.22.27.42.45.52.1.05.2.09.34.09.27,0,.56-.08.83-.23.04-.11.06-.22.08-.33-.29.2-.62.32-.91.32-.25,0-.36-.15-.58-.49-.21-.33-.5-.79-1.13-1.27-.21-.16-.4-.28-.56-.38-.12-.08-.21-.14-.28-.19h0s0-.06-.01-.08c.02,0,.03,0,.05-.01.08.04.17.09.29.16.16.09.36.21.6.31.72.32,1.27.34,1.67.36.41.01.58.03.71.24.16.28.22.66.17,1.05.11-.07.21-.16.3-.25,0-.35-.07-.68-.22-.94-.21-.36-.53-.37-.94-.38-.4-.02-.89-.03-1.56-.33-.14-.06-.26-.12-.37-.18.48.22,1.92.77,3.01.06.19.13.48.36.54.71.05.29-.07.63-.33.95-.04.05-.08.09-.12.13,0,.12,0,.23-.03.35.12-.1.24-.21.34-.33.31-.37.45-.78.38-1.14-.07-.39-.36-.66-.57-.82.41-.34.54-.69.57-.93.05-.39-.11-.81-.43-1.18-.07-.08-.15-.16-.23-.22.02.12.02.24.02.35.01.01.02.02.03.03.28.32.41.67.37,1-.04.3-.22.57-.54.82-1-.63-2.24-.36-2.86-.15.08-.04.17-.08.27-.12.69-.29,1.2-.31,1.58-.33.41-.02.73-.03.93-.39.14-.24.21-.54.22-.86-.09-.1-.19-.19-.29-.27.04.36-.02.73-.17.98-.12.21-.29.22-.7.24-.4.02-.94.05-1.67.35-.25.1-.45.21-.61.29-.13.07-.24.12-.33.16-.01,0-.03-.01-.04-.01.01-.03.02-.06.02-.09h0c.07-.05.15-.1.25-.16.16-.09.36-.21.57-.36.63-.46.92-.92,1.13-1.26.22-.35.33-.5.58-.5.25,0,.52.08.77.23.07.04.13.08.19.13-.01-.11-.03-.22-.06-.33-.29-.17-.61-.27-.91-.27-.4,0-.57.27-.79.62-.21.34-.48.76-1.07,1.19-.12.09-.24.16-.35.23.41-.29,1.63-1.28,1.57-2.59.2-.09.54-.22.85-.1.27.1.5.37.64.75.02.06.04.12.05.18.12.07.23.15.33.24-.02-.17-.06-.35-.12-.52-.17-.46-.46-.79-.81-.92-.37-.14-.74-.03-.98.07-.07-.42-.25-.74-.52-.95-.32-.24-.77-.32-1.26-.22-.11.02-.23.06-.33.1.13.05.26.12.37.19,0,0,.01,0,.02,0,.36-.07.69-.03.94.11.03.02.06.04.09.06.23.17.38.46.43.85-.95.51-1.35,1.56-1.52,2.23,0-.04,0-.07.01-.11.09-.74.33-1.19.5-1.53.1-.18.18-.34.22-.5.03-.16.02-.32-.08-.5-.13-.23-.35-.44-.61-.6-.13.03-.26.07-.38.12.05.03.11.05.16.08.25.14.46.33.58.54.12.21.05.36-.14.73-.18.35-.43.84-.53,1.62-.03.26-.04.49-.05.68,0,.17-.01.3-.03.39,0,0-.01.01-.02.02-.01-.02-.03-.04-.05-.05,0-.08,0-.19,0-.33,0-.18,0-.41-.03-.68-.08-.78-.34-1.27-.53-1.62-.19-.36-.27-.52-.14-.73.16-.27.45-.51.8-.65-.12-.06-.24-.1-.37-.13-.29.17-.53.4-.67.64-.21.36-.06.65.14,1.01.19.35.42.79.5,1.52,0,.02,0,.04,0,.06-.11-.67-.45-1.8-1.41-2.3.02-.23.08-.57.34-.79.22-.18.57-.25.97-.18.05,0,.1.02.15.03.12-.07.24-.13.38-.18-.15-.06-.31-.11-.48-.14-.48-.09-.91,0-1.2.24-.3.25-.4.63-.43.89-.41-.14-.77-.15-1.08-.02-.37.16-.66.5-.83.98-.04.11-.07.22-.08.34.11-.09.23-.16.35-.23,0,0,0-.01,0-.02.14-.4.37-.68.66-.81.27-.11.59-.1.95.05-.03,1.1.7,1.98,1.2,2.45-.04-.03-.08-.06-.12-.09-.59-.45-.87-.88-1.07-1.2-.15-.23-.27-.42-.46-.53-.1-.05-.21-.09-.35-.09-.27,0-.56.08-.82.23-.04.13-.07.26-.09.39.29-.21.62-.33.91-.33.24,0,.34.14.56.48.22.34.51.79,1.14,1.28.21.16.41.28.56.38.13.08.23.14.3.2,0,.02,0,.03,0,.05-.02,0-.03,0-.05.01-.08-.04-.17-.09-.29-.15-.16-.09-.36-.21-.6-.31-.72-.32-1.27-.34-1.67-.36-.41-.01-.58-.03-.71-.24-.16-.27-.21-.64-.17-1.02-.11.07-.21.16-.3.25,0,.33.07.66.22.91.07.12.15.2.25.26.19.11.42.11.69.12.4.01.9.03,1.56.33.03.01.06.03.1.04-.63-.24-1.81-.55-2.74.06-.18-.13-.46-.36-.51-.68-.05-.28.07-.62.33-.93.03-.04.07-.08.11-.11,0-.14,0-.28.04-.42-.13.1-.25.22-.36.34-.32.38-.46.79-.39,1.16.07.39.35.66.56.81-.33.28-.51.59-.56.93-.05.4.11.83.44,1.2.08.09.16.17.25.25-.02-.14-.03-.28-.03-.42,0,0,0,0-.01-.02-.28-.31-.41-.66-.37-.98.03-.29.21-.56.52-.79.92.57,2.04.39,2.7.19-.04.02-.07.03-.11.05-.69.29-1.2.31-1.58.33-.41.02-.73.03-.93.39-.13.23-.21.52-.22.83.09.1.19.19.3.27-.03-.35.03-.7.17-.95.12-.21.29-.22.7-.24.4-.02.94-.04,1.67-.35.25-.1.45-.21.61-.29.13-.07.24-.13.32-.16.01,0,.03.01.05.02,0,.01,0,.03-.01.04-.07.05-.16.1-.28.18-.16.09-.36.21-.57.37-.64.46-.93.93-1.14,1.27-.22.35-.32.49-.56.49-.31,0-.66-.14-.97-.36,0,.13.03.27.07.39.29.17.6.26.9.26.41,0,.58-.27.81-.63.21-.34.47-.76,1.07-1.19.02-.01.03-.03.05-.04-.52.43-1.34,1.29-1.29,2.38-.2.09-.54.22-.85.1-.27-.1-.5-.37-.64-.75-.01-.05-.03-.09-.04-.14h-.01c-.11-.07-.23-.15-.33-.24.02.16.06.32.12.48.14.39.36.68.64.84.05.03.11.06.16.08.37.14.74.03.98-.07.09.52.33.8.53.95.33.24.77.32,1.26.22.11-.02.23-.06.34-.1-.1-.04-.2-.09-.3-.14-.03-.02-.05-.03-.08-.05,0,0-.01,0-.02,0-.41.08-.78.02-1.03-.17-.23-.17-.38-.46-.43-.85.96-.51,1.36-1.58,1.52-2.25,0,.04,0,.08-.01.13-.09.74-.33,1.19-.5,1.53-.09.18-.18.34-.21.5-.04.16-.02.32.08.5.14.23.35.44.61.6.13-.03.25-.07.37-.12-.32-.15-.59-.38-.73-.63-.12-.21-.05-.36.14-.72.18-.35.43-.84.53-1.62.03-.26.04-.49.05-.68,0-.15.01-.27.02-.36.02-.02.04-.04.05-.05,0,0,0,.01.01.02.01.09.01.21.01.36,0,.18,0,.41.03.68.08.78.34,1.27.53,1.62.19.36.27.52.15.73-.16.27-.45.51-.8.66.12.06.24.1.37.13.29-.17.53-.39.68-.65.21-.36.05-.64-.14-1.01-.19-.35-.42-.79-.5-1.52,0-.02,0-.03,0-.04.12.67.45,1.8,1.41,2.29-.02.22-.08.57-.33.79-.22.18-.57.25-.97.18-.05-.01-.1-.02-.15-.03-.12.07-.24.13-.37.18.15.06.31.11.47.14.48.09.91,0,1.2-.24.3-.25.4-.63.43-.89.5.18.86.11,1.09.02.37-.16.66-.51.82-.98.04-.12.07-.24.09-.37ZM23.86,6.28c-.89.5-2.03.14-2.55-.07.57-.19,1.65-.42,2.55.07ZM18.33,2.93c.81.5,1.07,1.58,1.15,2.14-.44-.41-1.12-1.19-1.15-2.14ZM16.39,6.1c.84-.45,1.9-.14,2.43.07-.57.18-1.59.38-2.43-.07ZM18.17,9.36c.03-.95.83-1.72,1.28-2.07-.13.59-.46,1.56-1.28,2.07ZM20.76,5.09c.13-.58.46-1.56,1.28-2.07-.03.95-.83,1.72-1.28,2.07ZM20.72,7.31c.44.41,1.12,1.19,1.15,2.14-.81-.5-1.07-1.58-1.15-2.14Z"/>
      <path class="cls-2" d="M24.17,8.21c-.09.09-.19.18-.3.25-.02.11-.04.22-.08.33.12-.06.24-.14.35-.23.02-.12.03-.24.03-.35ZM20.04,10.57c-.12.06-.24.09-.37.12.02.02.05.03.08.05.09.05.19.1.3.14.13-.05.26-.1.37-.18-.13-.03-.25-.08-.37-.13Z"/>
    </g>
    <path class="cls-2" d="M16.76,9.82c-.4-.23-.69-.73-.78-1.33-.5-.41-.76-.95-.69-1.46.04-.34.23-.65.55-.93-.21-.16-.48-.43-.55-.81-.09-.5.21-1.09.75-1.51.11-.64.45-1.13.92-1.33.31-.13.69-.13,1.08,0,.04-.27.13-.63.43-.88.39-.33,1.05-.36,1.69-.11.6-.22,1.21-.17,1.61.13.28.21.45.52.53.94.25-.1.61-.2.97-.07.48.18.85.73.94,1.41.5.41.76.95.69,1.46-.04.34-.23.65-.55.93.21.16.48.43.55.81.09.5-.21,1.09-.75,1.51-.11.64-.45,1.13-.92,1.33-.31.13-.69.13-1.08-.01-.04.26-.13.63-.43.88-.39.33-1.05.37-1.69.11-.6.22-1.2.18-1.6-.13-.27-.21-.46-.54-.53-.94-.25.1-.61.2-.98.07-.06-.02-.11-.04-.16-.07h0ZM20.02,1.77c-.52-.21-1.05-.18-1.35.06-.29.24-.32.67-.33.87l-.02.23-.21-.1c-.38-.18-.74-.21-1.02-.09-.37.16-.65.6-.74,1.15v.07s-.06.04-.06.04c-.47.35-.74.84-.67,1.24.06.37.42.61.59.73l.19.13-.19.14c-.35.26-.55.54-.59.85-.05.4.19.86.62,1.21l.05.04v.07c.07.58.37,1.06.74,1.2.35.13.74-.06.92-.14l.21-.1.02.23c.02.24.1.68.43.93.32.24.84.27,1.35.06l.06-.03.06.03c.54.24,1.11.23,1.42-.03.29-.24.32-.67.33-.87l.02-.24.21.1c.22.1.64.25,1.02.09.37-.16.65-.6.73-1.15v-.07s.06-.04.06-.04c.48-.35.75-.84.68-1.24-.06-.37-.42-.61-.59-.73l-.19-.13.19-.14c.35-.26.55-.54.59-.84.05-.4-.19-.86-.62-1.21l-.05-.04v-.07c-.07-.58-.36-1.06-.74-1.2-.36-.13-.75.06-.92.14l-.21.1-.02-.23c-.04-.43-.19-.74-.43-.93-.31-.23-.81-.27-1.31-.08l-.11.04"/>
  </g>
  <g>
    <path class="cls-1" d="M25.12,19.56c-.52.2-1.11.22-1.51-.08-.43-.32-.48-.89-.5-1.05-.2.1-.63.31-1.05.15-.48-.17-.78-.75-.84-1.34-.44-.34-.74-.85-.68-1.35.07-.53.53-.87.66-.95-.18-.13-.58-.39-.66-.83-.08-.49.26-1.04.74-1.4.08-.55.37-1.07.83-1.27.49-.21,1.02.03,1.15.09.02-.22.05-.7.39-.98.39-.32,1.03-.3,1.58-.06.52-.2,1.11-.22,1.52.09.43.32.48.89.5,1.04.2-.1.63-.31,1.05-.15.47.17.77.75.84,1.34,0,0,0,0,0,0,.44.34.74.85.68,1.35-.07.53-.53.86-.66.95.18.12.58.39.66.83.08.5-.26,1.04-.74,1.4-.08.55-.37,1.07-.83,1.27-.49.21-1.02-.03-1.15-.09-.02.22-.05.7-.39.98-.39.32-1.03.3-1.58.06Z"/>
    <g class="cls-3">
      <path class="cls-2" d="M29.28,12.72c-.11-.1-.22-.17-.34-.24.04.13.06.26.07.39.11.08.21.17.29.27,0-.14,0-.27-.02-.42ZM25.62,10.51c-.12-.07-.24-.14-.37-.19-.13.05-.26.1-.38.18.13.03.25.07.37.13.12-.05.25-.09.38-.12Z"/>
      <path class="cls-2" d="M25.47,19.55c-.13-.04-.25-.08-.37-.14-.11.04-.21.08-.33.1.12.07.24.14.37.19.11-.04.22-.09.32-.15ZM29.19,17.43c.03-.14.04-.27.04-.41-.08.08-.16.15-.25.21-.02.13-.04.26-.08.39.1-.05.2-.12.29-.19Z"/>
      <path class="cls-2" d="M25.62,10.51c-.12-.07-.24-.14-.37-.19-.13.05-.26.1-.38.18.13.03.25.07.37.13.12-.05.25-.09.38-.12ZM21.41,12.77c.01-.13.04-.26.08-.39-.12.06-.24.14-.35.23-.03.13-.04.27-.04.4v.02c.09-.1.19-.18.3-.26Z"/>
      <path class="cls-2" d="M21.41,12.77c.01-.13.04-.26.08-.39-.12.06-.24.14-.35.23-.03.13-.04.27-.04.4v.02c.09-.1.19-.18.3-.26ZM21.36,17.15c-.11-.07-.2-.16-.29-.26,0,.03,0,.06,0,.09,0,.11,0,.22.03.33.11.09.22.17.34.24-.04-.13-.06-.26-.07-.39Z"/>
      <path class="cls-2" d="M29.28,12.72c-.11-.1-.22-.17-.34-.24.04.13.06.26.07.39.11.08.21.17.29.27,0-.14,0-.27-.02-.42ZM29.19,17.43c.03-.14.04-.27.04-.41-.08.08-.16.15-.25.21-.02.13-.04.26-.08.39.1-.05.2-.12.29-.19Z"/>
      <path class="cls-2" d="M25.15,19.7c-.13-.05-.26-.11-.37-.19-.02,0-.03,0-.05.01-.41.08-.78.02-1.03-.17-.23-.17-.38-.46-.43-.85,1.05-.57,1.43-1.79,1.56-2.43,0,.1-.02.2-.03.31-.09.74-.33,1.2-.5,1.54-.12.24-.23.44-.23.65,0,.11.03.22.09.33.13.24.35.45.61.61.11-.02.22-.06.33-.1-.32-.15-.59-.38-.73-.63-.13-.22-.05-.39.14-.75.18-.35.43-.83.53-1.62.03-.26.04-.49.05-.68,0-.14.01-.25.02-.34h0s.05-.04.06-.05c0,.01.02.03.04.04,0,.08,0,.19,0,.33,0,.18,0,.41.03.68.08.79.34,1.27.53,1.62.19.37.27.52.15.73-.16.28-.47.52-.82.67.12.06.24.1.37.14.31-.17.56-.4.71-.66.21-.36.05-.65-.14-1.01-.18-.35-.42-.79-.49-1.52-.02-.15-.02-.29-.03-.41.05.52.29,2.05,1.46,2.64-.02.23-.08.59-.35.82-.23.19-.58.26-.99.18-.06,0-.12-.02-.17-.04-.1.06-.21.11-.32.15.15.06.3.1.45.13.48.08.9,0,1.18-.24.31-.26.39-.64.42-.9.5.19.87.12,1.1.03.36-.16.65-.5.81-.97.04-.1.06-.21.08-.31-.09.07-.19.14-.29.19,0,.02,0,.03-.01.05-.14.4-.38.7-.68.82-.27.12-.6.1-.98-.06.05-1.18-.81-2.12-1.3-2.55.08.05.16.11.24.17.59.45.87.89,1.07,1.2.22.34.39.61.81.61.28,0,.58-.09.85-.24.04-.13.07-.26.08-.39-.3.21-.64.34-.94.34-.24,0-.34-.14-.56-.48-.22-.33-.51-.79-1.14-1.27-.21-.16-.4-.28-.56-.38-.13-.08-.23-.15-.3-.2,0-.02,0-.03,0-.05.03,0,.06-.01.09-.02h0c.07.04.16.08.26.14.16.09.36.2.6.31.71.32,1.26.34,1.66.35.41.02.59.03.72.25.12.22.19.49.19.79,0,.08,0,.15-.01.23.09-.06.17-.14.25-.21,0-.34-.07-.67-.22-.92-.2-.35-.52-.36-.93-.37-.4-.02-.9-.03-1.57-.33-.14-.06-.26-.13-.38-.19.45.21,1.93.77,3.03.07.18.13.46.36.51.68.05.28-.07.62-.33.93-.04.05-.08.09-.13.14,0,.14-.01.27-.04.41.14-.1.27-.22.39-.36.32-.38.46-.79.39-1.16-.06-.39-.35-.65-.56-.81.33-.27.51-.59.56-.93.05-.4-.11-.83-.44-1.21-.08-.09-.16-.17-.25-.24.02.14.03.28.02.42,0,0,0,0,.01.01.25.28.38.58.38.87,0,.04,0,.07,0,.11-.04.29-.21.56-.52.8-.92-.57-2.03-.39-2.69-.2.03-.02.06-.03.1-.05.69-.29,1.2-.31,1.57-.33.2,0,.39-.02.54-.06.16-.05.29-.14.39-.32.14-.23.21-.52.22-.83-.09-.1-.19-.19-.29-.27,0,.06,0,.12,0,.18,0,.29-.06.56-.18.77-.12.21-.29.22-.7.24-.4.02-.94.05-1.67.35-.24.1-.45.21-.61.29-.15.08-.27.14-.36.17,0,0-.02,0-.02,0,0-.02.02-.04.02-.07.07-.05.16-.1.28-.17.16-.09.36-.21.57-.37.64-.46.93-.93,1.14-1.27.22-.35.32-.49.56-.49.31,0,.67.14.97.37-.01-.13-.04-.26-.07-.39-.29-.17-.61-.26-.9-.26-.41,0-.59.27-.81.62-.21.34-.48.76-1.07,1.19-.02.01-.04.03-.05.04.52-.43,1.34-1.29,1.29-2.38.21-.09.54-.22.85-.1.27.1.5.37.64.75.02.05.03.09.05.14.12.07.24.15.34.24-.02-.16-.06-.33-.12-.48-.17-.46-.46-.79-.81-.92-.37-.14-.74-.03-.98.07-.08-.42-.25-.74-.53-.95-.32-.25-.77-.32-1.26-.22-.11.02-.23.05-.33.1.13.05.26.12.37.19,0,0,.01,0,.02,0,.41-.08.78-.02,1.03.17.23.17.38.46.43.85-.97.52-1.36,1.6-1.53,2.27,0-.05,0-.1.02-.15.09-.74.33-1.19.5-1.53.12-.24.23-.45.23-.66,0-.11-.03-.22-.1-.34-.14-.23-.35-.44-.61-.6-.13.03-.26.07-.38.12.32.15.59.38.74.63.12.21.05.36-.14.72-.18.36-.43.84-.54,1.63-.03.26-.04.49-.05.68,0,.15,0,.27-.02.36-.01,0-.03.02-.04.03,0-.01-.02-.03-.04-.04,0-.08,0-.19,0-.33,0-.18,0-.41-.03-.68-.08-.79-.34-1.27-.53-1.62-.19-.37-.27-.52-.15-.73.16-.27.45-.51.8-.66-.12-.06-.24-.1-.37-.13-.29.16-.53.39-.68.64-.07.12-.1.23-.1.35,0,.22.11.42.24.66.19.35.42.79.5,1.52,0,.04,0,.07,0,.11-.11-.66-.43-1.84-1.42-2.35.02-.23.08-.58.34-.79.22-.18.57-.25.97-.18.05,0,.1.02.15.04.12-.07.25-.13.38-.18-.15-.06-.31-.11-.48-.14-.48-.08-.91,0-1.2.24-.3.25-.39.63-.43.89-.4-.15-.77-.15-1.09-.02-.37.16-.66.51-.82.98-.04.11-.07.23-.09.34.11-.09.23-.17.35-.23,0,0,0-.01,0-.02.13-.39.37-.68.66-.81.27-.11.59-.1.95.05-.04,1.08.69,1.96,1.18,2.44-.03-.02-.06-.05-.1-.07-.59-.45-.87-.89-1.07-1.2-.22-.34-.39-.61-.8-.61-.27,0-.56.08-.83.22-.04.13-.07.26-.08.39.29-.2.62-.33.91-.33.24,0,.34.14.56.48.21.33.51.79,1.14,1.27.21.16.41.28.56.38.13.08.23.15.3.2,0,.02,0,.03,0,.05-.02,0-.03,0-.05,0-.08-.04-.17-.09-.29-.15-.16-.09-.36-.2-.6-.31-.72-.32-1.27-.34-1.67-.36-.41-.01-.58-.03-.7-.24-.16-.27-.21-.64-.17-1.02-.11.07-.21.16-.3.26,0,.34.08.65.22.91.2.36.53.37.94.38.4.01.89.03,1.56.33.02,0,.04.02.06.03-.64-.24-1.79-.52-2.7.07-.18-.13-.46-.36-.51-.68-.05-.28.07-.62.33-.93.03-.04.06-.07.1-.11v-.02c0-.13,0-.27.04-.4-.13.1-.25.21-.36.34-.27.32-.41.66-.41.98,0,.06,0,.12.01.18.07.39.35.65.56.81-.4.34-.53.69-.56.93-.05.4.11.83.44,1.21.08.09.16.17.26.24-.02-.11-.03-.22-.03-.33,0-.03,0-.06,0-.09,0,0,0,0-.02-.02-.27-.31-.4-.66-.37-.98.04-.29.21-.56.52-.8.92.57,2.05.39,2.71.19-.04.02-.08.04-.12.05-.69.29-1.2.31-1.58.33-.2,0-.39.02-.54.07-.16.05-.29.14-.39.32-.13.23-.21.52-.22.83.09.1.18.19.29.26-.03-.35.03-.7.18-.95.12-.21.29-.22.7-.24.4-.02.94-.05,1.67-.35.25-.1.45-.21.61-.29.13-.07.24-.12.32-.16.02,0,.05.01.07.02,0,0,0,.01,0,.02-.07.05-.17.12-.31.19-.16.09-.36.21-.57.37-.64.46-.93.93-1.14,1.27-.22.35-.32.49-.56.49-.31,0-.67-.14-.97-.37.01.13.04.26.07.39.29.17.61.27.9.27.41,0,.59-.27.81-.62.21-.34.48-.76,1.07-1.19.01,0,.03-.02.04-.03-.52.44-1.33,1.29-1.27,2.37-.2.09-.54.22-.85.1-.27-.1-.5-.37-.64-.75-.02-.05-.03-.1-.05-.15-.12-.06-.23-.15-.34-.24.02.16.06.32.11.48.17.46.46.79.81.92.37.14.74.03.98-.07.09.52.33.8.53.95.32.24.77.32,1.26.22.12-.03.25-.06.36-.11ZM26.98,18.32c-.88-.52-1.13-1.69-1.21-2.24.45.4,1.19,1.22,1.21,2.24ZM27.12,11.85c-.03.95-.83,1.72-1.28,2.07.13-.59.47-1.56,1.28-2.07ZM23.41,11.75c.81.5,1.07,1.58,1.15,2.14-.44-.41-1.12-1.19-1.15-2.14ZM21.47,14.92c.84-.45,1.9-.14,2.43.07-.57.18-1.58.38-2.43-.07ZM26.46,15.03c.57-.18,1.58-.38,2.43.07-.84.45-1.9.14-2.43-.07ZM24.52,16.11c-.13.59-.47,1.56-1.28,2.07.03-.95.83-1.71,1.28-2.07Z"/>
      <path class="cls-2" d="M25.47,19.55c-.13-.04-.25-.08-.37-.14-.11.04-.21.08-.33.1.12.07.24.14.37.19.11-.04.22-.09.32-.15ZM21.36,17.15c-.11-.07-.2-.16-.29-.26,0,.03,0,.06,0,.09,0,.11,0,.22.03.33.11.09.22.17.34.24-.04-.13-.06-.26-.07-.39Z"/>
    </g>
    <path class="cls-2" d="M20.36,13.93c0-.46.28-.96.77-1.34.11-.64.45-1.13.92-1.33.32-.13.68-.13,1.08,0,.04-.27.13-.63.43-.88.39-.33,1.05-.37,1.68-.11.61-.22,1.21-.17,1.61.13.27.2.46.53.53.94.25-.1.61-.2.98-.07.48.18.84.73.94,1.41.49.41.75.96.69,1.45-.04.34-.23.65-.55.93.21.16.48.42.55.81.09.5-.21,1.1-.75,1.51-.11.64-.45,1.13-.92,1.33-.32.13-.68.13-1.08,0-.04.27-.13.63-.43.88-.39.33-1.05.37-1.69.11-.61.22-1.21.17-1.61-.13-.27-.21-.46-.53-.53-.94-.25.1-.61.2-.98.07-.48-.18-.84-.73-.94-1.41-.49-.41-.75-.95-.69-1.45.04-.34.24-.66.55-.93-.21-.16-.48-.43-.55-.81,0-.06-.02-.12-.02-.18h0ZM28.97,12.73c-.08-.55-.37-1-.73-1.13-.35-.13-.74.05-.92.15l-.21.1-.02-.23c-.04-.41-.19-.74-.43-.93-.32-.24-.84-.27-1.36-.06l-.06.03-.06-.03c-.54-.24-1.1-.22-1.41.04-.29.24-.32.67-.34.87l-.02.23-.21-.09c-.4-.18-.74-.21-1.03-.09-.37.16-.65.59-.73,1.14v.07s-.06.04-.06.04c-.47.35-.74.85-.68,1.24.06.37.42.61.59.73l.19.13-.19.14c-.2.14-.54.43-.59.84-.05.4.19.86.62,1.2l.05.04v.07c.07.59.37,1.07.74,1.21.36.13.74-.05.92-.15l.21-.1.02.23c.02.24.1.68.43.93.32.24.84.27,1.36.06l.06-.03.06.03c.55.24,1.1.23,1.41-.04.29-.24.32-.67.34-.87l.02-.23.21.09c.4.18.74.21,1.02.09.37-.16.65-.59.73-1.14v-.07s.06-.04.06-.04c.47-.35.74-.84.68-1.24-.07-.38-.43-.62-.59-.72l-.19-.13.19-.14c.35-.25.55-.54.59-.84.05-.39-.17-.83-.58-1.17l-.09-.07"/>
  </g>
</svg>