<?xml version="1.0" encoding="UTF-8"?>
<svg id="Layer_1" data-name="Layer 1" xmlns="http://www.w3.org/2000/svg" viewBox="0 0 32.75 32.75">
  <defs>
    <style>
      .cls-1 {
        fill: #28656e;
      }

      .cls-1, .cls-2, .cls-3, .cls-4, .cls-5 {
        stroke: #27656d;
        stroke-miterlimit: 10;
        stroke-width: .75px;
      }

      .cls-2 {
        fill: #27656d;
      }

      .cls-3 {
        fill: #1e9983;
      }

      .cls-4 {
        fill: #209983;
      }

      .cls-5 {
        fill: none;
      }
    </style>
  </defs>
  <g>
    <g>
      <path class="cls-4" d="M19.16,21.58c.2-2,2.9-4.5,6.6-4.5s6.4,2.5,6.6,4.5c.2,1.6-1.4,2-3.7,5.2-2.4,3.4-2.6,5.6-3.5,5.6s-.6-2.2-2.5-5.5c-1.9-3.1-3.7-3.5-3.5-5.3h0Z"/>
      <circle class="cls-4" cx="25.76" cy="12.18" r="3.8"/>
    </g>
    <circle class="cls-2" cx="23.96" cy="11.27" r=".2"/>
    <circle class="cls-4" cx="27.96" cy="11.68" r=".2"/>
  </g>
  <g>
    <path class="cls-4" d="M.39,13.58c.2-2,2.9-4.5,6.6-4.5s6.4,2.5,6.6,4.5c.2,1.6-1.4,2-3.7,5.2-2.4,3.4-2.6,5.6-3.5,5.6s-.6-2.2-2.5-5.5C1.99,15.78.19,15.37.39,13.58H.39Z"/>
    <circle class="cls-4" cx="6.99" cy="4.18" r="3.8"/>
  </g>
  <circle class="cls-2" cx="5.19" cy="3.27" r=".2"/>
  <circle class="cls-1" cx="9.19" cy="3.68" r=".2"/>
  <line class="cls-5" x1="4.4" y1="1.4" x2="6.54" y2="2.38"/>
  <line class="cls-5" x1="9.71" y1="1.89" x2="7.93" y2="2.6"/>
  <path class="cls-5" d="M23.11,9.45c.7.33,1.4.66,2.09.98"/>
  <line class="cls-5" x1="28.69" y1="9.75" x2="26.71" y2="10.6"/>
  <circle class="cls-3" cx="20.26" cy="15.98" r="1.69"/>
  <circle class="cls-3" cx="15.46" cy="11.07" r="1.63"/>
  <circle class="cls-3" cx="17.15" cy="19.24" r="1.69"/>
  <circle class="cls-3" cx="12.42" cy="7.98" r="1.63"/>
  <path class="cls-5" d="M18.82,1.01c.1.59.18,1.18.24,1.78.05.43.08.89-.13,1.27-.26.46-.82.68-1.35.67s-1.03-.21-1.52-.41"/>
  <path class="cls-5" d="M24.75,3.82c-.59.1-1.18.18-1.78.24-.43.05-.89.08-1.27-.13-.46-.26-.68-.82-.67-1.35s.21-1.03.41-1.52"/>
  <path class="cls-5" d="M15.72,6.94c.59-.1,1.18-.18,1.78-.24.43-.05.89-.08,1.27.13.46.26.68.82.67,1.35s-.21,1.03-.41,1.52"/>
  <path class="cls-5" d="M21.65,9.73c-.1-.59-.18-1.18-.24-1.78-.05-.43-.08-.89.13-1.27.26-.46.82-.68,1.35-.67s1.03.21,1.52.41"/>
  <path class="cls-5" d="M11.66,21.82c.1.59.18,1.18.24,1.78.05.43.08.89-.13,1.27-.26.46-.82.68-1.35.67s-1.03-.21-1.52-.41"/>
  <path class="cls-5" d="M17.58,24.62c-.59.1-1.18.18-1.78.24-.43.05-.89.08-1.27-.13-.46-.26-.68-.82-.67-1.35s.21-1.03.41-1.52"/>
  <path class="cls-5" d="M8.55,27.74c.59-.1,1.18-.18,1.78-.24.43-.05.89-.08,1.27.13.46.26.68.82.67,1.35s-.21,1.03-.41,1.52"/>
  <path class="cls-5" d="M14.48,30.54c-.1-.59-.18-1.18-.24-1.78-.05-.43-.08-.89.13-1.27.26-.46.82-.68,1.35-.67s1.03.21,1.52.41"/>
</svg>