<?xml version="1.0" encoding="utf-8"?>
<!-- Generator: Adobe Illustrator 28.3.0, SVG Export Plug-In . SVG Version: 6.00 Build 0)  -->
<svg version="1.1" id="Layer_1" xmlns="http://www.w3.org/2000/svg" xmlns:xlink="http://www.w3.org/1999/xlink" x="0px" y="0px"
	 viewBox="0 0 32.8 32.8" style="enable-background:new 0 0 32.8 32.8;" xml:space="preserve">
<style type="text/css">
	.st0{fill:#1F9983;stroke:#26646C;stroke-width:0.75;stroke-miterlimit:10;}
	.st1{fill:#26646C;stroke:#26646C;stroke-width:0.75;stroke-miterlimit:10;}
	.st2{fill:none;stroke:#26646C;stroke-width:0.75;stroke-miterlimit:10;}
	.st3{clip-path:url(#SVGID_00000045607525861538650800000001628396301690403006_);}
	.st4{clip-path:url(#SVGID_00000127762641912972013930000014770059302768807606_);}
	.st5{clip-path:url(#SVGID_00000170262512118082114690000014381006611456671661_);}
	.st6{clip-path:url(#SVGID_00000169522125951954911280000007057180750119174793_);}
	.st7{fill:none;stroke:#26646C;stroke-width:0.75;stroke-linecap:round;stroke-miterlimit:10;}
	.st8{fill:#26646C;}
</style>
<g>
	<path class="st0" d="M19.2,21.5c0.2-2,2.9-4.5,6.6-4.5s6.4,2.5,6.6,4.5c0.2,1.6-1.4,2-3.7,5.2c-2.4,3.4-2.6,5.6-3.5,5.6
		s-0.6-2.2-2.5-5.5C20.8,23.7,19,23.3,19.2,21.5L19.2,21.5L19.2,21.5z"/>
	<circle class="st0" cx="25.8" cy="12.1" r="3.8"/>
</g>
<circle class="st1" cx="24" cy="11.2" r="0.2"/>
<circle class="st0" cx="28" cy="11.6" r="0.2"/>
<g>
	<path class="st0" d="M2.3,13.6c0.2-1.9,2.9-4.4,6.6-4.4s6.4,2.5,6.6,4.4c0.2,1.6-1.4,2-3.7,5.2c-2.4,3.4-2.6,5.6-3.5,5.6
		s-0.6-2.2-2.5-5.5C3.9,15.7,2.1,15.3,2.3,13.6L2.3,13.6L2.3,13.6z"/>
	<circle class="st0" cx="8.9" cy="4.1" r="3.8"/>
</g>
<circle class="st1" cx="7" cy="3.4" r="0.2"/>
<circle class="st1" cx="10.9" cy="3.8" r="0.2"/>
<line class="st2" x1="6.1" y1="1.7" x2="8" y2="2.5"/>
<line class="st2" x1="11.8" y1="2" x2="9.8" y2="2.7"/>
<g>
	<g>
		<g id="_Mirror_Repeat_">
			<g>
				<defs>
					<rect id="SVGID_1_" x="7.6" y="7.2" width="5.5" height="14.8"/>
				</defs>
				<clipPath id="SVGID_00000015325341549187895080000016983410039065891222_">
					<use xlink:href="#SVGID_1_"  style="overflow:visible;"/>
				</clipPath>
				<g style="clip-path:url(#SVGID_00000015325341549187895080000016983410039065891222_);">
					<path class="st0" d="M18,12.5c1,4.3-2.8,9.3-5.1,9c-0.9-0.1-1.7-1.4-3.1-3.9c-1.2-2.1-2.3-4-1.6-5.2c0.4-0.7,0.9-0.4,2-1.2
						c2-1.4,1.7-3.4,2.9-3.7C14.6,7.1,17.4,9.6,18,12.5z"/>
				</g>
			</g>
		</g>
		<g id="_Mirror_Repeat_-2">
			<g>
				<defs>
					<rect id="SVGID_00000016774112055599056250000002638126473483732377_" x="13.1" y="7.2" width="5.5" height="14.8"/>
				</defs>
				<clipPath id="SVGID_00000035519307516333228650000004726142440102701215_">
					<use xlink:href="#SVGID_00000016774112055599056250000002638126473483732377_"  style="overflow:visible;"/>
				</clipPath>
				<g style="clip-path:url(#SVGID_00000035519307516333228650000004726142440102701215_);">
					<path class="st0" d="M8.2,12.5c-1,4.3,2.8,9.3,5.1,9c0.9-0.1,1.7-1.4,3.1-3.9c1.2-2.1,2.3-4,1.6-5.2c-0.4-0.7-1-0.4-2-1.2
						c-2-1.4-1.7-3.4-2.9-3.7C11.7,7.1,8.9,9.6,8.2,12.5z"/>
				</g>
			</g>
		</g>
	</g>
	<g>
		<g id="_Mirror_Repeat_-3">
			<g>
				<defs>
					<rect id="SVGID_00000111157425298743321540000001850709322254483088_" x="9.2" y="9.7" width="3.9" height="10.4"/>
				</defs>
				<clipPath id="SVGID_00000103977108353670446590000016205758765528746372_">
					<use xlink:href="#SVGID_00000111157425298743321540000001850709322254483088_"  style="overflow:visible;"/>
				</clipPath>
				<g style="clip-path:url(#SVGID_00000103977108353670446590000016205758765528746372_);">
					<path class="st2" d="M16.5,13.5c0.7,3-1.9,6.4-3.5,6.2c-0.6-0.1-1.1-0.9-2.1-2.7c-0.9-1.5-1.6-2.8-1.1-3.6
						c0.3-0.5,0.6-0.3,1.4-0.8c1.4-1,1.2-2.3,2-2.6C14.1,9.8,16.1,11.5,16.5,13.5z"/>
				</g>
			</g>
		</g>
		<g id="_Mirror_Repeat_-4">
			<g>
				<defs>
					<rect id="SVGID_00000072272470002917605590000007833477842641914291_" x="13.1" y="9.7" width="3.9" height="10.4"/>
				</defs>
				<clipPath id="SVGID_00000119830101675283453960000001862166237690861197_">
					<use xlink:href="#SVGID_00000072272470002917605590000007833477842641914291_"  style="overflow:visible;"/>
				</clipPath>
				<g style="clip-path:url(#SVGID_00000119830101675283453960000001862166237690861197_);">
					<path class="st2" d="M9.8,13.5c-0.7,3,1.9,6.4,3.5,6.2c0.6-0.1,1.1-0.9,2.1-2.7c0.9-1.5,1.6-2.8,1.1-3.6
						c-0.3-0.5-0.6-0.3-1.4-0.8c-1.4-1-1.2-2.3-2-2.6C12.1,9.8,10.2,11.5,9.8,13.5z"/>
				</g>
			</g>
		</g>
	</g>
</g>
<path class="st0" d="M6.1,11.8l-2.2,1.1c-1.1-2-2.3-4-3.5-6.1c0-1.6,0-3.1,0-4.7c1.1,1,2.3,2,3.5,3C4.6,7.3,5.3,9.5,6.1,11.8z"/>
<circle class="st0" cx="5.7" cy="13.5" r="1.9"/>
<g>
	<line class="st7" x1="14.4" y1="3.6" x2="21.3" y2="7.7"/>
	<path class="st8" d="M21.2,7.6c-0.1-0.5,0.1-1.3,0.4-1.8c0.1,0.9,0.4,1.8,0.9,2.5c-0.9-0.1-1.8,0.1-2.7,0.4
		C20.1,8.3,20.6,7.8,21.2,7.6L21.2,7.6z"/>
</g>
</svg>
