<?xml version="1.0" encoding="UTF-8"?>
<svg id="Layer_1" data-name="Layer 1" xmlns="http://www.w3.org/2000/svg" xmlns:xlink="http://www.w3.org/1999/xlink" viewBox="0 0 33 28.24">
  <defs>
    <style>
      .cls-1 {
        fill: #d59a4d;
      }

      .cls-1, .cls-2 {
        stroke-width: 0px;
      }

      .cls-2, .cls-3 {
        fill: none;
      }

      .cls-4 {
        clip-path: url(#clippath-1);
      }

      .cls-3, .cls-5 {
        stroke: #d59a4d;
      }

      .cls-3, .cls-6 {
        stroke-linecap: round;
        stroke-linejoin: round;
      }

      .cls-7 {
        clip-path: url(#clippath);
      }

      .cls-5 {
        fill: #f3d040;
        stroke-miterlimit: 10;
      }

      .cls-6 {
        fill: #23213d;
        stroke: #23213d;
      }
    </style>
    <clipPath id="clippath">
      <rect class="cls-2" x="1.3" width="26.64" height="9.55"/>
    </clipPath>
    <clipPath id="clippath-1">
      <rect class="cls-2" x="5.06" width="26.64" height="9.55"/>
    </clipPath>
  </defs>
  <rect class="cls-6" x=".5" y="23.74" width="32" height="4"/>
  <path class="cls-5" d="M16.5,1.39c-6.63,0-12,10.75-12,24h24c0-13.25-5.37-24-12-24Z"/>
  <path class="cls-1" d="M17.87,9.51c-.52,6.04-.44,5.11-.62,7.19-.05.58-.66.51-.98.51-.72,0-.54-.35-1.12-7.55-.32-1.69,2.87-1.89,2.72-.15ZM17.65,19.16c0,1.52-2.29,1.51-2.29,0s2.29-1.51,2.29,0Z"/>
  <g>
    <g id="_Mirror_Repeat_" data-name="&amp;lt;Mirror Repeat&amp;gt;">
      <g class="cls-7">
        <line class="cls-3" x1="27.44" y1=".5" x2="24.65" y2="2.88"/>
        <line class="cls-3" x1="6.19" y1="5.57" x2="2.81" y2="4.14"/>
        <line class="cls-3" x1="5.42" y1="9.05" x2="1.8" y2="8.47"/>
      </g>
    </g>
    <g id="_Mirror_Repeat_-2" data-name="&amp;lt;Mirror Repeat&amp;gt;">
      <g class="cls-4">
        <line class="cls-3" x1="5.56" y1=".5" x2="8.35" y2="2.88"/>
        <line class="cls-3" x1="26.81" y1="5.57" x2="30.19" y2="4.14"/>
        <line class="cls-3" x1="27.58" y1="9.05" x2="31.2" y2="8.47"/>
      </g>
    </g>
  </g>
</svg>