<?xml version="1.0" encoding="UTF-8"?>
<svg id="Layer_1" data-name="Layer 1" xmlns="http://www.w3.org/2000/svg" viewBox="0 0 32.44 29.21">
  <defs>
    <style>
      .cls-1 {
        fill: #f3d040;
      }

      .cls-1, .cls-2 {
        stroke: #d59a4d;
        stroke-miterlimit: 10;
        stroke-width: 1.5px;
      }

      .cls-2 {
        fill: none;
      }
    </style>
  </defs>
  <g id="_Radial_Repeat_" data-name="&amp;lt;Radial Repeat&amp;gt;">
    <path class="cls-1" d="M22.24,7.71l-.9.92-5.15,5.27-5.27-5.16-.92-.9c-1.96-1.92-2.4-4.66-.98-6.11.58-.59,1.37-.87,2.23-.88,1.29-.01,2.74.58,3.91,1.73l.92.9.89-.92c1.15-1.17,2.59-1.8,3.88-1.81.86,0,1.65.25,2.24.83,1.45,1.42,1.07,4.16-.85,6.13Z"/>
  </g>
  <g id="_Radial_Repeat_-2" data-name="&amp;lt;Radial Repeat&amp;gt;">
    <path class="cls-2" d="M26.53,21.17l.35,1.24c.44,1.58.26,3.14-.37,4.26-.42.75-1.04,1.3-1.84,1.53-1.95.55-4.14-1.16-4.88-3.8l-.35-1.25-1.99-7.09"/>
    <path class="cls-1" d="M17.46,16.06l7.1-1.98,1.25-.35c2.64-.74,5.23.25,5.78,2.21.22.8.07,1.62-.35,2.37-.63,1.12-1.87,2.08-3.46,2.52l-1.25.35"/>
  </g>
  <g id="_Radial_Repeat_-3" data-name="&amp;lt;Radial Repeat&amp;gt;">
    <path class="cls-2" d="M6.57,13.93l1.25.32,7.14,1.82-1.83,7.14-.32,1.25c-.68,2.66-2.84,4.4-4.8,3.9-.8-.21-1.44-.75-1.88-1.49-.65-1.11-.87-2.66-.46-4.25l.32-1.25-1.25-.31c-1.59-.41-2.85-1.34-3.51-2.45-.44-.74-.61-1.56-.4-2.36.5-1.96,3.07-3.01,5.73-2.33Z"/>
  </g>
  <g id="_Radial_Repeat_-4" data-name="&amp;lt;Radial Repeat&amp;gt;">
    <path class="cls-2" d="M19.79,24.4l-.35-1.25-1.99-7.09,7.1-1.98,1.25-.35c2.64-.74,5.23.25,5.78,2.21.22.8.07,1.62-.35,2.37-.63,1.12-1.87,2.08-3.46,2.52l-1.25.35.35,1.24c.44,1.58.26,3.14-.37,4.26-.42.75-1.04,1.3-1.84,1.53-1.95.55-4.14-1.16-4.88-3.8Z"/>
  </g>
</svg>