<?xml version="1.0" encoding="UTF-8"?>
<svg id="Layer_1" data-name="Layer 1" xmlns="http://www.w3.org/2000/svg" viewBox="0 0 33.5 33.5">
  <defs>
    <style>
      .cls-1, .cls-2 {
        fill: #d59a4d;
      }

      .cls-1, .cls-3 {
        stroke-width: 0px;
      }

      .cls-2, .cls-4, .cls-5 {
        stroke: #d59a4d;
        stroke-miterlimit: 10;
      }

      .cls-4, .cls-5 {
        stroke-width: 1.5px;
      }

      .cls-4, .cls-3 {
        fill: #f3d040;
      }

      .cls-5 {
        fill: none;
      }
    </style>
  </defs>
  <path class="cls-4" d="M16.75,32.75C7.91,32.75.75,25.59.75,16.75S7.91.75,16.75.75"/>
  <path class="cls-5" d="M16.75.75c8.84,0,16,7.16,16,16s-7.16,16-16,16"/>
  <ellipse class="cls-2" cx="9.43" cy="12.06" rx="1.67" ry="3.85"/>
  <g>
    <path class="cls-1" d="M24.07,8.21c-.43,0-.83.38-1.12,1,.2-.11.42-.15.64-.11.06.01.12.02.17.04.53.18.82.76.64,1.3-.17.54-.75.83-1.29.65-.05-.02-.09-.03-.13-.05-.2-.1-.35-.26-.45-.44-.08.45-.12.94-.12,1.46,0,2.13.74,3.86,1.66,3.86s1.67-1.73,1.67-3.86-.75-3.85-1.67-3.85Z"/>
    <path class="cls-1" d="M24.07,7.71c-1.4,0-2.16,2.25-2.16,4.35s.76,4.36,2.16,4.36,2.17-2.25,2.17-4.36-.76-4.35-2.17-4.35ZM22.46,9.79c.08-.26.27-.46.49-.58.2-.11.42-.15.64-.11.16-.25.33-.39.48-.39.47,0,1.17,1.34,1.17,3.35s-.7,3.36-1.17,3.36-1.16-1.34-1.16-3.36c0-.36.02-.7.07-1.02-.2-.1-.35-.26-.45-.44-.13-.24-.16-.53-.07-.81Z"/>
  </g>
  <path class="cls-4" d="M16.75,27.7c-.76,0-3.71-.12-6.32-2.4-2.53-2.22-3.07-5.03-3.19-5.79h9.51"/>
  <path class="cls-5" d="M16.72,27.7h8.03c-.64-4.79-4.2-8.3-8.22-8.19"/>
  <circle class="cls-3" cx="8.81" cy="10.11" r="1.02"/>
</svg>