<?xml version="1.0" encoding="utf-8"?>
<!-- Generator: Adobe Illustrator 28.3.0, SVG Export Plug-In . SVG Version: 6.00 Build 0)  -->
<svg version="1.1" id="Layer_1" xmlns="http://www.w3.org/2000/svg" xmlns:xlink="http://www.w3.org/1999/xlink" x="0px" y="0px"
	 viewBox="0 0 32.8 29.2" style="enable-background:new 0 0 32.8 29.2;" xml:space="preserve">
<style type="text/css">
	.st0{fill:#F3D040;stroke:#D59A4D;stroke-width:0.75;stroke-miterlimit:10;}
	.st1{fill:#23223D;}
</style>
<path class="st0" d="M17.6,15.2c0,2.7-1.5,6.2-3.5,8c-0.9-1.6-1.6-2.9-3.1-4.9C11.7,12.6,9.7,6.6,6.6,2C5.7,0.6,5.9,0.2,7,0.6
	c5.3,2.6,10.4,8.2,10.6,14.2V15.2L17.6,15.2z"/>
<path class="st0" d="M21,14.2c-0.2,1.5,0.2,3.3,0.2,4.7c-0.7,1.3-1.5,2.4-2,3.6c-0.2,0.4-0.4,0.9-0.5,0.9c-0.7-0.4-1.3-1.5-1.8-2.2
	c-2.6-3.5-2.9-8.2-0.9-12.1c3.1-6.4,11-10.6,10-8.6c-2.4,3.8-4.8,8.4-4.9,13.1V14.2z"/>
<path class="st0" d="M18.1,23.4c0.2,1.1-0.9,6.9-2.4,4.9c-0.4-0.7-0.9-2.2-1.5-3.8c-0.9-2.4-2.2-4.8-4-6.9c-3.1-3.5-6.2-5.1-8-6
	c-1.6-0.7-2.9-1.3-0.5-1.5c2.7-0.4,5.9,0.2,8.8,1.5C15.2,13.3,18.5,18,18.1,23.4L18.1,23.4L18.1,23.4z"/>
<path class="st0" d="M32.4,10.4c0.2,0.7-5.1,1.6-9.7,7.1c-2,2.4-3.6,5.3-4.6,7.9c-0.4,0.9-0.9,3.8-2,3.3c-2.7-3.5-1.8-10.2,0.9-13.5
	C19.6,12,24,10.4,27.6,10C29.2,9.8,31.8,9.6,32.4,10.4L32.4,10.4L32.4,10.4z"/>
<path class="st1" d="M27.8,16.7c1.7-0.2,2.3,1.4,2.5,2.9c0.3,1.3,0.2,3-1.3,3.4c-0.5,0.2-1.2,0.1-1.7,0.1c-1.1,0.1-0.5,1.8-0.8,2.5
	c-0.1,0.5-0.9,0.6-1.2,0.3c-0.3-0.3-0.2-0.8-0.1-1.2c0.2-1,0-2.6,1.4-2.8c0.8-0.1,1.8,0.2,2.4-0.3c0.6-0.6,0.1-2.8-0.6-3.3
	c-0.7-0.5-1.8,0-2.5,0.1C25.4,18.4,25,18,25,17.6C25.3,17,26.9,16.7,27.8,16.7L27.8,16.7L27.8,16.7z M26.5,27.4c0,0,0.2,0.1,0.4,0.3
	c0.4,0.4-0.2,1-0.6,1.1c-0.3,0-0.9-0.6-0.7-0.9C25.7,27.5,26.2,27.3,26.5,27.4L26.5,27.4L26.5,27.4z"/>
<g>
	<path class="st1" d="M25.1,27.3c-0.1,0.1-0.1,0.2-0.1,0.4c0,0.1,0.1,0.3,0.1,0.4c0.2,0.3,0.6,0.7,1.1,0.7h0
		c0.4-0.1,0.7-0.3,0.9-0.6c0.1-0.1,0.1-0.2,0.2-0.3c0.1-0.3,0-0.7-0.2-1c-0.1-0.1-0.2-0.3-0.5-0.3c-0.3-0.1-0.6,0-0.7,0
		C25.7,26.7,25.3,26.9,25.1,27.3z"/>
	<path class="st1" d="M30.8,19.2c-0.3-2.2-1.4-3.4-3-3.3h-0.1c0,0-2.7,0.1-3.1,1.3l0,0.1c0,0.3,0.1,0.6,0.4,0.9
		c0.3,0.3,0.7,0.4,1,0.3c0.2,0,0.5-0.1,0.8-0.2c0.5-0.1,1.1-0.2,1.4,0c0.2,0.1,0.5,0.9,0.6,1.7c0,0.5-0.1,0.8-0.1,0.8
		c-0.2,0.2-0.7,0.2-1.1,0.2c-0.3,0-0.7,0-1,0c-1.5,0.2-1.6,1.7-1.8,2.6c0,0.2,0,0.4-0.1,0.6l0,0.1c-0.1,0.4-0.1,1,0.3,1.5
		c0.3,0.3,0.7,0.4,1.1,0.3c0.1,0,0.2,0,0.2-0.1c0.4-0.1,0.6-0.4,0.7-0.7c0.1-0.3,0.1-0.7,0.1-1.1c0-0.9,0.1-1,0.2-1.1
		c0.6,0,1.2,0,1.8-0.2C30.8,22.7,31.1,20.8,30.8,19.2z"/>
</g>
</svg>
