<?xml version="1.0" encoding="utf-8"?>
<!-- Generator: Adobe Illustrator 28.3.0, SVG Export Plug-In . SVG Version: 6.00 Build 0)  -->
<svg version="1.1" id="Layer_1" xmlns="http://www.w3.org/2000/svg" xmlns:xlink="http://www.w3.org/1999/xlink" x="0px" y="0px"
	 viewBox="0 0 30.7 31" style="enable-background:new 0 0 30.7 31;" xml:space="preserve">
<style type="text/css">
	.st0{fill:#1E9983;}
	.st1{fill:#23636B;}
	.st2{fill:#1E9983;stroke:#23636B;stroke-miterlimit:10;}
</style>
<path class="st0" d="M8.1,20.4c-0.3,0-0.7-0.3-0.9-0.8c-0.5-1.5-0.9-3-1.3-4.4c0-0.3-0.2-0.4-0.3-0.5c0,0-0.1-0.1-0.1-0.1l0-0.1
	l-0.1-0.1C4,12.9,3.2,11,3.2,8.8c0-0.3,0-0.5-0.3-0.9C2.5,7.7,2.3,7.5,2.1,7.2c-0.4-0.3-0.8-0.6-1-0.8L1,6.4l-0.1,0
	c0,0-0.1-0.1-0.1-0.1C0.7,6.2,0.7,6.1,0.5,6c0,0,0-0.1,0-0.2c0-0.2,0.1-0.4,0.2-0.6c0.6-0.6,1.2-1.2,1.9-1.8c0.7-0.6,1.3-1.3,2-1.9
	c0.3-0.2,0.5-0.5,0.7-0.7c0.1-0.1,0.2-0.2,0.3-0.3c0,0,0.1-0.1,0.1-0.1c0,0,0.5,0.3,0.5,0.3c0.7,0.8,1.6,1.5,2.3,2.2
	c0.5,0.4,1.2,0.8,1.9,1c1.4,0.5,2.9,1.1,4.3,1.7c1.4,0.6,2.8,1.1,4.3,1.7c0.5,0.2,0.9,0.5,1.2,0.8c0.7,0.7,1.3,1.4,1.9,2
	c0.6,0.7,1.3,1.4,1.9,2c0.6,0.7,0.9,1.6,0.7,2.3c-0.1,0.4-0.3,0.9-0.9,1.3C23.6,16,23.3,16,23.1,16c-0.2,0-0.5,0-0.7-0.1l-0.9-0.3
	l0.3,0.9c0.1,0.3,0.2,0.5,0.3,0.8c0.4,1,0,2.2-0.9,2.6C21,20,20.8,20,20.6,20c-0.7,0-1.5-0.5-1.8-1.2c0-0.1-0.1-0.3-0.2-0.4
	c-0.1-0.1-0.1-0.3-0.2-0.4l-1,0.2l0-0.1c0,0.1-0.1,0.2-0.1,0.3c-0.3,0.7-0.8,1.1-1.6,1.1c-0.2,0-0.4,0-0.6-0.1
	c-0.9-0.3-1.5-1.5-1.4-2.5c0.1-0.5,0.1-0.9,0.2-1.4c0.1-0.4,0.1-0.8,0.2-1.1c0-0.1,0-0.2,0.1-0.3l0.3-0.5l-0.9-0.3
	c-0.5-0.2-0.9-0.3-1.4-0.4c-0.1,0-0.2,0-0.4,0c-0.4,0-0.8,0.2-1.1,0.5c-0.3,0.4-0.5,0.9-0.4,1.5c0,0.7,0,1.6,0.1,2.5
	C10.4,18.9,9.6,20,8.1,20.4L8.1,20.4z"/>
<path class="st1" d="M24.3,12c-1.3-1.3-2.5-2.7-3.8-4c-0.4-0.5-0.9-0.8-1.4-1c-2.9-1.1-5.7-2.3-8.6-3.4C9.9,3.3,9.3,3,8.7,2.6
	C7.9,1.9,7.2,1.1,6.3,0.4C6.1,0.2,5.9,0,5.6,0C5.5,0,5.3,0.1,5.2,0.2c-0.3,0.3-0.6,0.7-1,1C2.9,2.5,1.6,3.7,0.3,5C0.1,5.2,0,5.5,0,6
	c0.1,0.1,0.1,0.3,0.2,0.4c0.2,0.1,0.3,0.3,0.5,0.4c0.3,0.3,0.7,0.5,1,0.8C2,7.9,2.2,8.1,2.5,8.3c0.1,0.1,0.2,0.2,0.2,0.5
	c0,2.4,0.8,4.4,2.5,6c0.1,0.1,0.2,0.3,0.3,0.5c0.5,1.5,0.9,3,1.3,4.5c0.2,0.7,0.9,1.2,1.5,1c1.6-0.3,2.6-1.8,2.6-3.7
	c0-0.8,0-1.6-0.1-2.5c0-0.9,0.6-1.5,1.3-1.4c0.6,0.1,1.1,0.3,1.7,0.5c0,0.2-0.1,0.3-0.1,0.5c-0.1,0.8-0.3,1.7-0.4,2.5
	c-0.2,1.3,0.6,2.6,1.7,3.1c1.2,0.5,2.4-0.1,2.8-1.4c0-0.1,0.1-0.2,0.1-0.3c0.2,0.3,0.3,0.6,0.4,0.9c0.6,1.2,2,1.8,3.1,1.3
	s1.6-2,1.1-3.3c-0.1-0.2-0.2-0.4-0.3-0.7c0.7,0.2,1.2,0.2,1.8-0.1C25.5,15.5,25.6,13.4,24.3,12z M16.7,15.8
	c-0.1,0.5-0.2,1.1-0.3,1.7c-0.1,0.6-0.5,0.9-0.9,0.7c-0.4-0.1-0.7-0.6-0.6-1.2c0.2-0.9,0.3-1.8,0.5-2.8c0.5,0.1,1,0.3,1.2,0.9
	C16.7,15.4,16.8,15.6,16.7,15.8z M23.2,14.7L23.2,14.7c-0.3,0.1-0.6,0.1-0.9-0.2c-0.6-0.6-1.2-1.3-1.8-1.9c-0.1-0.1-0.2-0.3-0.2-0.4
	c-0.5-0.9-1.1-1.5-1.9-1.8c-0.5-0.2-1.1-0.5-1.7-0.7c-0.5-0.2-0.9,0-1,0.5s0.1,1,0.6,1.2s0.9,0.4,1.4,0.5c0.6,0.2,1.1,0.7,1.4,1.4
	c0.6,1.4,1.3,2.9,1.9,4.3c0.2,0.6,0.2,0.9-0.2,1.1c-0.4,0.2-0.9,0-1.2-0.4c-0.2-0.4-0.4-0.9-0.6-1.4c-0.4-0.8-0.8-1.7-1.1-2.5
	c-0.4-0.9-1.1-1.5-1.9-1.7c-1.2-0.4-2.3-0.7-3.5-1c-1.8-0.5-3.3,0.9-3.3,2.9c0,0.8,0,1.7,0.1,2.5c0,0.9-0.2,1.5-0.9,1.9
	c-0.1,0-0.2,0-0.2,0c-0.3-1-0.6-2-0.9-3c-0.2-0.6-0.3-1.2-0.5-1.7c-0.1-0.2-0.2-0.4-0.4-0.6c-1.5-1.4-2.2-3.2-2.1-5.3
	c0-0.2,0-0.3-0.1-0.5c0-0.2-0.2-0.4-0.3-0.5L3.4,7L2,5.9c0,0,0.1,0,0.1-0.1c0.2-0.2,0.4-0.4,0.5-0.5c1-1,2.1-2,3.1-3l0,0
	c1.3,1.4,2.8,2.4,4.5,3c2.9,1.1,5.7,2.3,8.6,3.4c0.2,0.1,0.5,0.2,0.7,0.4c1.3,1.4,2.6,2.8,3.9,4.1C23.8,13.7,23.7,14.4,23.2,14.7z"
	/>
<path class="st2" d="M30.2,24.5c-0.2,3.2-3,6.1-6.1,6.1c-4.8,0-7.4-6.8-6.4-8c0.8-1,3.8,1.3,5.7-0.2c1.7-1.3,0.6-4.3,1.7-4.7
	C26.4,17.1,30.5,20.4,30.2,24.5L30.2,24.5z"/>
</svg>
