<?xml version="1.0" encoding="UTF-8"?>
<svg id="Layer_1" data-name="Layer 1" xmlns="http://www.w3.org/2000/svg" viewBox="0 0 29 29">
  <defs>
    <style>
      .cls-1 {
        fill: #bd515a;
      }

      .cls-1, .cls-2, .cls-3 {
        stroke: #913d63;
        stroke-width: 2px;
      }

      .cls-1, .cls-2, .cls-4 {
        stroke-miterlimit: 10;
      }

      .cls-2, .cls-3 {
        fill: none;
      }

      .cls-3 {
        stroke-linecap: round;
        stroke-linejoin: round;
      }

      .cls-4 {
        fill: #f3d040;
        stroke: #d59a4d;
      }
    </style>
  </defs>
  <rect class="cls-4" x=".5" y=".5" width="28" height="28"/>
  <path class="cls-2" d="M5.93,19.64c-1.9,0-3.43,1.53-3.43,3.43s1.53,3.43,3.43,3.43,3.43-1.53,3.43-3.43"/>
  <path class="cls-2" d="M5.93,19.64c-1.9,0-3.43,1.53-3.43,3.43s1.53,3.43,3.43,3.43,3.43-1.53,3.43-3.43"/>
  <path class="cls-2" d="M5.93,19.64c-1.9,0-3.43,1.53-3.43,3.43s1.53,3.43,3.43,3.43,3.43-1.53,3.43-3.43"/>
  <path class="cls-2" d="M5.93,19.64c-1.9,0-3.43,1.53-3.43,3.43s1.53,3.43,3.43,3.43,3.43-1.53,3.43-3.43"/>
  <path class="cls-3" d="M5.93,2.5c11.34,0,20.57,9.22,20.57,20.57"/>
  <path class="cls-2" d="M5.93,19.64c-1.9,0-3.43,1.53-3.43,3.43s1.53,3.43,3.43,3.43,3.43-1.53,3.43-3.43"/>
  <path class="cls-3" d="M5.93,5.93c9.45,0,17.14,7.69,17.14,17.14"/>
  <path class="cls-2" d="M5.93,19.64c-1.9,0-3.43,1.53-3.43,3.43s1.53,3.43,3.43,3.43,3.43-1.53,3.43-3.43"/>
  <path class="cls-3" d="M5.93,9.36c7.57,0,13.71,6.15,13.71,13.71"/>
  <path class="cls-2" d="M5.93,19.64c-1.9,0-3.43,1.53-3.43,3.43s1.53,3.43,3.43,3.43,3.43-1.53,3.43-3.43"/>
  <path class="cls-3" d="M5.93,12.79c5.67,0,10.29,4.62,10.29,10.29"/>
  <path class="cls-2" d="M5.93,19.64c-1.9,0-3.43,1.53-3.43,3.43s1.53,3.43,3.43,3.43,3.43-1.53,3.43-3.43"/>
  <path class="cls-3" d="M5.93,16.21c3.78,0,6.86,3.07,6.86,6.86"/>
  <circle class="cls-1" cx="5.93" cy="23.07" r="3.43"/>
</svg>