<?xml version="1.0" encoding="UTF-8"?>
<svg id="Layer_1" data-name="Layer 1" xmlns="http://www.w3.org/2000/svg" viewBox="0 0 32 32">
  <defs>
    <style>
      .cls-1 {
        fill: #d59a4d;
      }

      .cls-1, .cls-2 {
        stroke-width: 0px;
      }

      .cls-3, .cls-4 {
        fill: none;
      }

      .cls-3, .cls-4, .cls-5 {
        stroke: #913d63;
        stroke-width: 1.5px;
      }

      .cls-3, .cls-5 {
        stroke-miterlimit: 10;
      }

      .cls-4 {
        stroke-linecap: round;
        stroke-linejoin: round;
      }

      .cls-5 {
        fill: #bd515a;
      }

      .cls-2 {
        fill: #f3d040;
      }
    </style>
  </defs>
  <g>
    <g>
      <polygon class="cls-2" points="27.1 5.96 31.25 1.81 31.25 26.04 27.1 30.19 27.1 5.96"/>
      <path class="cls-1" d="M30.5,3.62v22.11l-2.65,2.65V6.27l2.65-2.65M32,0l-5.65,5.65v26.35l5.65-5.65V0h0Z"/>
    </g>
    <g>
      <rect class="cls-2" x=".75" y="6.4" width="24.85" height="24.85"/>
      <path class="cls-1" d="M24.85,7.15v23.35H1.5V7.15h23.35M26.35,5.65H0v26.35h26.35V5.65h0Z"/>
    </g>
    <g>
      <polygon class="cls-2" points="1.81 4.9 5.96 .75 30.19 .75 26.04 4.9 1.81 4.9"/>
      <path class="cls-1" d="M28.38,1.5l-2.65,2.65H3.62l2.65-2.65h22.11M32,0H5.65L0,5.65h26.35l5.65-5.65h0Z"/>
    </g>
  </g>
  <g>
    <path class="cls-3" d="M6.12,23.35c-1.56,0-2.82,1.26-2.82,2.82s1.26,2.82,2.82,2.82,2.82-1.26,2.82-2.82"/>
    <path class="cls-3" d="M6.12,23.35c-1.56,0-2.82,1.26-2.82,2.82s1.26,2.82,2.82,2.82,2.82-1.26,2.82-2.82"/>
    <path class="cls-3" d="M6.12,23.35c-1.56,0-2.82,1.26-2.82,2.82s1.26,2.82,2.82,2.82,2.82-1.26,2.82-2.82"/>
    <path class="cls-3" d="M6.12,23.35c-1.56,0-2.82,1.26-2.82,2.82s1.26,2.82,2.82,2.82,2.82-1.26,2.82-2.82"/>
    <path class="cls-4" d="M6.12,9.24c9.34,0,16.94,7.59,16.94,16.94"/>
    <path class="cls-3" d="M6.12,23.35c-1.56,0-2.82,1.26-2.82,2.82s1.26,2.82,2.82,2.82,2.82-1.26,2.82-2.82"/>
    <path class="cls-4" d="M6.12,12.06c7.78,0,14.12,6.33,14.12,14.12"/>
    <path class="cls-3" d="M6.12,23.35c-1.56,0-2.82,1.26-2.82,2.82s1.26,2.82,2.82,2.82,2.82-1.26,2.82-2.82"/>
    <path class="cls-4" d="M6.12,14.88c6.23,0,11.29,5.06,11.29,11.29"/>
    <path class="cls-3" d="M6.12,23.35c-1.56,0-2.82,1.26-2.82,2.82s1.26,2.82,2.82,2.82,2.82-1.26,2.82-2.82"/>
    <path class="cls-4" d="M6.12,17.7c4.67,0,8.47,3.8,8.47,8.47"/>
    <path class="cls-3" d="M6.12,23.35c-1.56,0-2.82,1.26-2.82,2.82s1.26,2.82,2.82,2.82,2.82-1.26,2.82-2.82"/>
    <path class="cls-4" d="M6.12,20.53c3.11,0,5.65,2.53,5.65,5.65"/>
    <circle class="cls-5" cx="6.12" cy="26.17" r="2.82"/>
  </g>
</svg>