<?xml version="1.0" encoding="utf-8"?>
<!-- Generator: Adobe Illustrator 28.3.0, SVG Export Plug-In . SVG Version: 6.00 Build 0)  -->
<svg version="1.1" id="Layer_1" xmlns="http://www.w3.org/2000/svg" xmlns:xlink="http://www.w3.org/1999/xlink" x="0px" y="0px"
	 viewBox="0 0 30.5 30.4" style="enable-background:new 0 0 30.5 30.4;" xml:space="preserve">
<style type="text/css">
	.st0{fill:#209983;stroke:#27656D;stroke-width:0.75;stroke-miterlimit:10;}
	.st1{fill:#27656D;stroke:#27656D;stroke-width:0.75;stroke-miterlimit:10;}
	.st2{fill:#27656D;}
	.st3{fill:none;stroke:#27656D;stroke-width:1.5;stroke-linecap:round;stroke-miterlimit:10;}
</style>
<g>
	<path class="st0" d="M12.7,16.7c0.2-2,2.9-4.5,6.6-4.5s6.4,2.5,6.6,4.5c0.2,1.6-1.4,2-3.7,5.2c-2.4,3.4-2.6,5.6-3.5,5.6
		s-0.6-2.2-2.5-5.5C14.3,18.9,12.5,18.5,12.7,16.7L12.7,16.7z"/>
	<circle class="st0" cx="19.3" cy="7.3" r="3.8"/>
</g>
<circle class="st1" cx="17.5" cy="6.4" r="0.2"/>
<circle class="st1" cx="21.5" cy="6.8" r="0.2"/>
<g>
	<path class="st0" d="M0.4,9.2c0.1-1.3,1.9-3,4.4-3s4.3,1.7,4.4,3c0.1,1.1-0.9,1.3-2.5,3.5C5.1,15,5,16.4,4.4,16.4S4,14.9,2.7,12.7
		C1.5,10.6,0.3,10.4,0.4,9.2L0.4,9.2z"/>
	<circle class="st0" cx="4.8" cy="2.9" r="2.5"/>
</g>
<circle class="st1" cx="3.6" cy="2.3" r="0.1"/>
<circle class="st2" cx="6.1" cy="2.7" r="0.5"/>
<g>
	<line class="st3" x1="23.5" y1="22.5" x2="28.8" y2="28.4"/>
	<polygon class="st2" points="27,29.2 30.5,30.4 29.8,26.7 	"/>
</g>
<line class="st3" x1="12.7" y1="21.2" x2="5.3" y2="19.3"/>
<line class="st3" x1="10.9" y1="15" x2="8.3" y2="13.5"/>
<line class="st3" x1="13.9" y1="10.7" x2="11.1" y2="7"/>
<path class="st3" d="M2.2,7.3c1.4,1.5,2.9,3,4.3,4.4"/>
<line class="st3" x1="6.8" y1="7.3" x2="2.7" y2="11.7"/>
</svg>
