<?xml version="1.0" encoding="UTF-8"?>
<svg id="Layer_1" data-name="Layer 1" xmlns="http://www.w3.org/2000/svg" viewBox="0 0 31.47 27.99">
  <defs>
    <style>
      .cls-1 {
        fill: #23636b;
      }

      .cls-1, .cls-2 {
        stroke-width: 0px;
      }

      .cls-3 {
        fill: none;
        stroke: #23636b;
        stroke-linecap: round;
        stroke-linejoin: round;
      }

      .cls-2 {
        fill: #1e9983;
      }
    </style>
  </defs>
  <g>
    <path class="cls-2" d="M26.9,11.35c-.16.28-.47.46-.81.46h-6.08c-.53,0-.97-.43-.97-.96v-5.69l-.17-.14c-.43-.34-.94-.91-.94-1.65,0-1.18,1.34-2.22,3.19-2.67.6-.14,1.25-.22,1.93-.22h.05c.23,0,.45,0,.67.04.71.05,1.39.2,1.98.42-.19,0-.37,0-.54.03-.24.02-.48.05-.7.09h-.03c-1.94.35-3.21,1.37-3.21,2.3,0,.56.42,1.02.78,1.3l.33.27v5.91c0,.28.23.51.52.51h4.01Z"/>
    <path class="cls-1" d="M20,11.35c-.28,0-.52-.23-.52-.51v-5.91l-.33-.27c-.35-.28-.78-.74-.78-1.3s.43-1.13,1.19-1.57c.49-.3,1.1-.54,1.82-.69.2-.05.4-.08.61-.11.33-.05.68-.06,1.04-.06.25,0,.49,0,.72.04.24.02.48.05.7.09h.03c.23-.05.46-.07.7-.09.17-.02.35-.03.54-.03.05,0,.12,0,.18,0,.36,0,.7.02,1.03.06-.18-.11-.37-.21-.58-.3-.56-.25-1.2-.44-1.9-.55-.23-.05-.47-.07-.72-.09-.23-.02-.47-.03-.71-.03-3.07,0-5.57,1.5-5.57,3.34,0,.75.42,1.45,1.11,2.01v5.48c0,.78.63,1.41,1.42,1.41h6.07c.4,0,.77-.17,1.01-.44.14-.13.23-.29.31-.46h-7.39Z"/>
    <path class="cls-2" d="M28.35,11.35c-.16.28-.47.46-.81.46h-6.08c-.35,0-.65-.18-.82-.46-.09-.14-.14-.32-.14-.5v-5.69l-.17-.14c-.43-.34-.94-.91-.94-1.65,0-.91.8-1.74,2.02-2.27.36-.16.75-.3,1.17-.4.38-.09.79-.15,1.2-.18.23-.03.48-.04.72-.04.66,0,1.3.07,1.89.21.44.11.86.24,1.23.41-.21-.05-.42-.08-.65-.11-.33-.05-.67-.06-1.03-.06-.06,0-.13,0-.18,0-.19,0-.37,0-.54.03-.24.02-.48.05-.7.09h-.03c-1.94.35-3.21,1.37-3.21,2.3,0,.56.42,1.02.78,1.3l.33.27v5.91c0,.28.23.51.52.51h5.46Z"/>
    <path class="cls-1" d="M21.45,11.35c-.28,0-.52-.23-.52-.51v-5.91l-.33-.27c-.35-.28-.78-.74-.78-1.3s.43-1.13,1.19-1.57c.69-.42,1.63-.73,2.75-.82.23-.03.47-.04.72-.04s.49,0,.71.04c.17-.02.35-.03.54-.03.05,0,.12,0,.18,0,.36,0,.7.02,1.03.06.23.03.44.06.65.11.7.15,1.29.39,1.76.67-.83-.92-2.37-1.57-4.18-1.72-.23-.02-.47-.03-.71-.03s-.49,0-.72.03c-.99.08-1.89.31-2.64.65-.64.29-1.17.66-1.55,1.08-.42.47-.66,1-.66,1.57,0,.75.42,1.45,1.11,2.01v5.48c0,.18.04.35.1.51.06.17.16.33.3.46.25.27.61.44,1.02.44h6.07c.6,0,1.11-.38,1.32-.9h-7.38Z"/>
    <path class="cls-1" d="M24.49.93c-.25,0-.49,0-.72.04-.23-.03-.47-.04-.72-.04-.36,0-.71.02-1.04.06-.4.23-.73.51-.99.8-.43.47-.67,1-.67,1.57,0,.75.42,1.45,1.11,2.01v5.48c0,.18.04.35.1.51h1.33c-.28,0-.52-.23-.52-.51v-5.91l-.33-.27c-.35-.28-.78-.74-.78-1.3,0-.93,1.27-1.95,3.21-2.3h.03c.23-.05.46-.07.7-.09-.23-.03-.47-.04-.71-.04ZM25.91.02c-.24,0-.49,0-.72.03-.24.02-.49.05-.71.09-.5.07-.96.19-1.38.34-.18.06-.36.14-.53.22-.2.08-.39.18-.56.29-.4.23-.73.51-.99.8-.43.47-.67,1-.67,1.57,0,.75.42,1.45,1.11,2.01v5.48c0,.18.04.35.1.51.06.17.16.33.3.46.25.27.61.44,1.02.44h6.07c.78,0,1.41-.63,1.41-1.41v-5.48c.7-.56,1.11-1.26,1.11-2.01C31.47,1.51,29,.02,25.91.02ZM29.8,4.66l-.33.27v5.91c0,.28-.23.51-.51.51h-6.07c-.28,0-.52-.23-.52-.51v-5.91l-.33-.27c-.35-.28-.78-.74-.78-1.3,0-.93,1.27-1.95,3.21-2.3h.03c.23-.05.46-.07.7-.09.17-.02.35-.03.54-.03.05,0,.12,0,.18,0,.36,0,.7.02,1.03.06.23.03.44.06.65.11.7.15,1.29.39,1.76.67h0c.77.45,1.21,1.03,1.21,1.59s-.42,1.02-.78,1.3Z"/>
  </g>
  <path class="cls-1" d="M3.5,10.82v-5.93l-.35-.28c-.34-.28-.77-.73-.77-1.28,0-1.04,1.58-2.18,3.91-2.37h.15c.05-.06.12-.13.18-.18.39-.27.86-.44,1.34-.45-.51-.15-1.07-.26-1.67-.31C6.05,0,5.81,0,5.56,0,2.49,0,0,1.5,0,3.34c0,.75.41,1.45,1.11,2.01v5.48c0,.78.63,1.41,1.42,1.41h6.07c.61,0,1.13-.39,1.32-.93H3.97c-.26,0-.48-.22-.48-.48h0ZM2.54,11.3c-.27,0-.49-.22-.49-.48v-5.93l-.34-.28c-.35-.28-.77-.73-.77-1.28s.42-1.09,1.14-1.54c-.41.46-.63.98-.63,1.54,0,.75.41,1.45,1.12,2.01v5.48c0,.17.03.33.09.48h-.12Z"/>
  <path class="cls-1" d="M8.45.9c2.75,0,4.66,1.28,4.66,2.43,0,.56-.42,1.02-.78,1.3l-.33.27v5.91c0,.28-.23.51-.51.51h-6.07c-.28,0-.51-.23-.51-.51v-5.91l-.33-.27c-.35-.28-.78-.74-.78-1.3,0-1.15,1.91-2.43,4.66-2.43M8.45,0C5.37,0,2.88,1.5,2.88,3.33c0,.75.42,1.45,1.11,2.01v5.47c0,.78.63,1.41,1.42,1.41h6.07c.78,0,1.41-.63,1.41-1.41v-5.47c.7-.56,1.11-1.26,1.11-2.01,0-1.84-2.48-3.33-5.56-3.33h0Z"/>
  <path class="cls-2" d="M10.96,27.55c-.53,0-.97-.43-.97-.96v-5.69l-.17-.14c-.43-.34-.94-.91-.94-1.65,0-1.56,2.34-2.88,5.12-2.88s5.12,1.32,5.12,2.88c0,.74-.52,1.31-.94,1.65l-.17.14v5.69c0,.53-.43.96-.96.96,0,0-6.08,0-6.08,0Z"/>
  <path class="cls-1" d="M14,16.67c2.75,0,4.66,1.28,4.66,2.43,0,.56-.42,1.02-.78,1.3l-.33.27v5.91c0,.28-.23.51-.51.51h-6.08c-.28,0-.52-.23-.52-.51v-5.91l-.33-.27c-.35-.28-.78-.74-.78-1.3,0-1.15,1.92-2.43,4.66-2.43M14,15.76c-3.07,0-5.57,1.5-5.57,3.34,0,.75.42,1.45,1.11,2.01v5.48c0,.78.63,1.41,1.42,1.41h6.07c.78,0,1.41-.63,1.41-1.41v-5.48c.7-.56,1.11-1.26,1.11-2.01,0-1.84-2.49-3.34-5.57-3.34h0Z"/>
  <path class="cls-2" d="M12.41,27.55c-.53,0-.97-.43-.97-.96v-5.69l-.17-.14c-.43-.34-.94-.91-.94-1.65,0-1.56,2.34-2.88,5.12-2.88s5.12,1.32,5.12,2.88c0,.74-.52,1.31-.94,1.65l-.17.14v5.69c0,.53-.43.96-.96.96h-6.08Z"/>
  <path class="cls-1" d="M15.44,16.67c2.75,0,4.66,1.28,4.66,2.43,0,.56-.42,1.02-.78,1.3l-.33.27v5.91c0,.28-.23.51-.51.51h-6.07c-.28,0-.52-.23-.52-.51v-5.91l-.33-.27c-.35-.28-.78-.74-.78-1.3,0-1.15,1.92-2.43,4.66-2.43M15.44,15.76c-3.07,0-5.57,1.5-5.57,3.34,0,.75.42,1.45,1.11,2.01v5.48c0,.78.63,1.41,1.42,1.41h6.07c.78,0,1.41-.63,1.41-1.41v-5.48c.7-.56,1.11-1.26,1.11-2.01,0-1.84-2.49-3.34-5.57-3.34h0Z"/>
  <path class="cls-2" d="M13.85,27.55c-.53,0-.97-.43-.97-.96v-5.69l-.17-.14c-.43-.34-.94-.91-.94-1.65,0-1.56,2.34-2.88,5.12-2.88s5.12,1.32,5.12,2.88c0,.74-.52,1.31-.94,1.65l-.17.14v5.69c0,.53-.43.96-.96.96h-6.08Z"/>
  <path class="cls-1" d="M16.87,16.67c2.75,0,4.66,1.28,4.66,2.43,0,.56-.42,1.02-.78,1.3l-.33.27v5.91c0,.28-.23.51-.51.51h-6.07c-.28,0-.52-.23-.52-.51v-5.91l-.33-.27c-.35-.28-.78-.74-.78-1.3,0-1.15,1.92-2.43,4.66-2.43M16.87,15.76c-3.07,0-5.57,1.5-5.57,3.34,0,.75.42,1.45,1.11,2.01v5.48c0,.78.63,1.41,1.42,1.41h6.07c.78,0,1.41-.63,1.41-1.41v-5.48c.7-.56,1.11-1.26,1.11-2.01,0-1.84-2.49-3.34-5.57-3.34h0Z"/>
  <g>
    <path class="cls-3" d="M27.74,13.72c.19.62.7,2.61-.2,4.84-.37.92-.9,1.66-1.45,2.24"/>
    <polygon class="cls-1" points="23.13 22.73 26.06 18.23 26.25 20.57 28.38 21.57 23.13 22.73"/>
  </g>
  <g>
    <path class="cls-3" d="M6.56,23.51c-.56-.33-2.29-1.43-3.16-3.67-.36-.93-.48-1.82-.47-2.63"/>
    <polygon class="cls-1" points="3.79 13.78 4.71 19.07 2.98 17.49 .74 18.21 3.79 13.78"/>
  </g>
  <g>
    <line class="cls-3" x1="14" y1="7.64" x2="16.73" y2="7.64"/>
    <path class="cls-1" d="M18.24,7.64c-.71.26-1.59.71-2.14,1.19l.43-1.19-.43-1.19c.55.48,1.43.93,2.14,1.19Z"/>
  </g>
</svg>