<?xml version="1.0" encoding="utf-8"?>
<!-- Generator: Adobe Illustrator 28.3.0, SVG Export Plug-In . SVG Version: 6.00 Build 0)  -->
<svg version="1.1" id="Layer_1" xmlns="http://www.w3.org/2000/svg" xmlns:xlink="http://www.w3.org/1999/xlink" x="0px" y="0px"
	 viewBox="0 0 31.5 31.6" style="enable-background:new 0 0 31.5 31.6;" xml:space="preserve">
<style type="text/css">
	.st0{fill:#23636B;}
	.st1{fill:#1E9983;stroke:#23636B;stroke-miterlimit:10;}
	.st2{fill:#1E9983;stroke:#23636B;stroke-width:0.75;stroke-miterlimit:10;}
	.st3{fill:#1E9983;stroke:#23636B;stroke-width:0.75;stroke-linecap:round;stroke-linejoin:round;}
</style>
<g>
	<path class="st0" d="M24.5,1.8c0,0.4-0.2,0.9-0.6,1.2c-0.1,0.1-0.2,0.2-0.4,0.3c-0.1,0.1-0.3,0.2-0.4,0.4L21,5.9l0-0.1
		c-1.1,1.1-2.1,2.2-2.2,2.3h0l-0.4,0.4C13.1,13.9,7.8,19.2,2.7,24.3l-0.2,0.2C2.3,24.7,2.1,25,1.7,25h0c-0.3,0-0.6-0.2-0.8-0.5
		c-1.1-1.2-1.1-1.5,0-2.6c2.4-2.4,4.7-4.7,7.1-7.1c4.7-4.7,9.5-9.6,14.3-14.3c0.7-0.7,1-0.7,1.7,0C24.3,0.9,24.5,1.4,24.5,1.8z"/>
</g>
<path class="st1" d="M23.6,2.6C23.7,2.4,19,7.1,19.2,7c3.4,4.7,10.1,10.6,9.3,15.9C34.6,18.1,28.1,8.9,23.6,2.6z"/>
<path class="st2" d="M18.4,23.8c0,0.2,0,0.4,0,0.5c0,0.3-0.1,0.5-0.1,0.8c-0.1,0.5-0.3,1-0.6,1.5c-0.2,0.4-0.5,0.8-0.7,1.1
	c-0.2,0.2-0.3,0.4-0.5,0.6c-0.4-0.9-0.9-1.8-1.7-2.8c0.1-0.6,0.1-1.3,0.1-2.1c0-0.5-0.1-1.1-0.2-1.5c-0.7-3.6-2.9-5.6-2.5-5.9
	c0.4-0.3,4,1.8,5.5,4.9C18.1,21.7,18.4,22.8,18.4,23.8L18.4,23.8z"/>
<path class="st2" d="M20.5,23.4c0,1,0,1.8,0.2,2.6c-0.7,0.9-1.1,1.8-1.5,2.6c-0.1-0.1-0.2-0.2-0.4-0.4l0,0c-0.4-0.5-0.9-1-1.2-1.7
	c-0.1-0.3-0.3-0.5-0.4-0.8c-0.2-0.4-0.3-0.9-0.3-1.4c0-0.3,0-0.7,0-1c0.1-0.9,0.3-1.7,0.7-2.5c1.5-3.1,5.1-5.2,5.5-4.9
	c0.4,0.3-1.9,2.4-2.5,6.1C20.6,22.5,20.5,22.9,20.5,23.4L20.5,23.4z"/>
<path class="st2" d="M18.8,28.2c0,1.6-0.5,2.9-1,3c0,0,0,0-0.1,0c-0.4,0.1-0.6-1.2-1.4-3c-0.4-0.9-0.9-1.8-1.7-2.8
	c-0.1-0.1-0.2-0.2-0.3-0.4c-2.6-3-5.5-3.5-5.3-3.9c0.1-0.4,2.9-0.5,5.5,0.6c0.8,0.4,1.6,0.8,2.3,1.5c0.4,0.3,0.7,0.7,1,1.2
	c0.1,0.1,0.1,0.2,0.2,0.3c0,0.1,0.1,0.2,0.1,0.3C18.7,26.1,18.9,27.2,18.8,28.2L18.8,28.2z"/>
<path class="st2" d="M26.7,21.2c0.1,0.4-2.8,0.9-5.3,3.9c-1.1,1.3-2,2.9-2.5,4.3c-0.2,0.5-0.5,2.1-1.1,1.8c-1.5-1.9-1-5.6,0.5-7.4
	c1.4-1.7,3.8-2.6,5.8-2.8C24.9,20.9,26.3,20.9,26.7,21.2L26.7,21.2z"/>
<polygon class="st3" points="11.9,5 11.9,7.5 8.1,7.5 8.1,11.3 5.6,11.3 5.6,7.5 1.9,7.5 1.9,5 5.6,5 5.6,1.3 8.1,1.3 8.1,5 "/>
</svg>
