<?xml version="1.0" encoding="utf-8"?>
<!-- Generator: Adobe Illustrator 28.3.0, SVG Export Plug-In . SVG Version: 6.00 Build 0)  -->
<svg version="1.1" id="Layer_1" xmlns="http://www.w3.org/2000/svg" xmlns:xlink="http://www.w3.org/1999/xlink" x="0px" y="0px"
	 viewBox="0 0 32.8 32.8" style="enable-background:new 0 0 32.8 32.8;" xml:space="preserve">
<style type="text/css">
	.st0{fill:#F3D040;stroke:#D59A4D;stroke-width:0.75;stroke-miterlimit:10;}
	.st1{fill:#D59A4D;stroke:#D59A4D;stroke-width:0.75;stroke-miterlimit:10;}
</style>
<path class="st0" d="M29.9,0.4h-27c-1.4,0-2.5,1.1-2.5,2.5v27c0,1.4,1.1,2.5,2.5,2.5h27c1.4,0,2.5-1.1,2.5-2.5v-27
	C32.4,1.5,31.3,0.4,29.9,0.4z M25.6,23.8c-0.2,0.3-0.5,0.7-0.7,1l0,0c-0.5,0.9-1,1.9-1.3,2.8c-0.1,0.4-0.2,0.7-0.3,1
	c-0.1,0.5-0.3,1.9-0.8,2h-0.1l0,0l0,0l0,0h-0.1l0,0c-0.2-0.2-0.3-0.4-0.5-0.6c-0.1-0.2-0.2-0.5-0.4-0.8l0,0
	c-0.1-0.3-0.3-0.6-0.4-0.9c-0.2-0.4-0.4-0.8-0.6-1.1c-0.5-0.8-1.1-1.6-1.8-2.4c-0.1-0.1-0.2-0.2-0.4-0.4c-2-1.9-4-2.6-5.1-3.1
	c-1-0.3-1.8-0.6-0.4-0.8c1.6-0.4,3.5-0.2,5.3,0.4l0,0c-0.6-1.9-1.7-3.8-2.9-5.3c-0.6-0.8-0.5-1,0.1-0.9c2.3,0.8,4.6,2.6,5.9,4.8
	v-0.1c1.5-3.9,5.9-6.9,5.4-5.6c-1,2-2,4.3-2.1,6.7c1.1-0.7,2.4-1.1,3.5-1.4c1-0.2,2.5-0.5,2.8-0.1C31,19.5,27.9,20.3,25.6,23.8
	L25.6,23.8z"/>
<g>
	<path class="st1" d="M12,11.4c-0.4,1.5-1.5,3.4-2.9,4.2c-0.1,0-0.1-0.3-0.2-0.4c-0.3-0.9-0.7-1.8-1-2.7c0.8-3.3,0.6-6.7-0.6-9.8
		c0-0.1-0.8-1.6,0-1.3C10.4,3.5,12.7,7.6,12,11.4L12,11.4z"/>
	<path class="st1" d="M13.9,11.4c-0.3,0.7-0.2,2.1-0.6,2.9c-0.6,0.7-1.2,1.3-1.7,2c-0.4,0.3-0.6-0.4-0.8-0.8
		c-0.5-1.1-0.9-2.3-0.8-3.5c0-1.6,0.6-3.2,1.7-4.5c2.5-3.1,7.2-4.6,6.7-3.6C16.5,6.1,14.5,8.5,13.9,11.4L13.9,11.4z"/>
	<path class="st1" d="M11.1,16.3c0,0.5-1,3-1.6,2.8c-0.3-0.1-0.4-0.5-0.4-0.8c-0.1-0.7-0.2-1.5-0.3-2.2C8.2,12.4,5.6,9,2.6,6.9
		C2.2,6.6,2.4,6.5,2.8,6.5c2.5,0.1,4.8,1.3,6.5,2.9C11.1,11.2,11.9,13.8,11.1,16.3L11.1,16.3z"/>
	<path class="st1" d="M20.9,10.4c0,0.3-1.9,0.4-4.4,1.6c-0.8,0.4-1.4,0.8-2.1,1.4c-1.6,1.3-3,2.9-3.9,4.5c-0.3,0.5-0.6,1.2-1.1,1.2
		c-1.5-2.3,0.1-6.3,2.2-7.9c1.9-1.4,4.6-1.8,6.8-1.6C19.3,9.8,20.4,9.8,20.9,10.4L20.9,10.4z"/>
</g>
</svg>
