<?xml version="1.0" encoding="UTF-8"?>
<svg id="Layer_1" data-name="Layer 1" xmlns="http://www.w3.org/2000/svg" viewBox="0 0 31.03 30.52">
  <defs>
    <style>
      .cls-1 {
        fill: #27656d;
      }

      .cls-1, .cls-2, .cls-3 {
        stroke: #27656d;
        stroke-miterlimit: 10;
      }

      .cls-1, .cls-3 {
        stroke-width: .75px;
      }

      .cls-2 {
        fill: none;
        stroke-dasharray: 0 0 4 2;
        stroke-width: 1.5px;
      }

      .cls-3 {
        fill: #209983;
      }
    </style>
  </defs>
  <path class="cls-2" d="M25.68,29.78c-3.79-.68-7.57-1.36-11.36-2.04-1.94-.35-3.95-.72-5.6-1.79-1.66-1.08-2.89-3.05-2.5-4.98.26-1.26,1.17-2.32,2.26-3.02,1.09-.7,2.34-1.08,3.59-1.41,6.36-1.67,7.77-1.78,8.44-1.67.09.01.2.05.44.1,4.73,1.11,5.49,2.06,6.4,1.84,2.97-.71,4.43-12.94.74-14.67-1.85-.86-4.79,1.02-5.04,1.19-1.46.96-1.73,1.84-2.99,3.25-.41.46-3.16,3.53-6.56,4.23-4.22.88-6.25-2.55-9.04-1.11-1.76.91-2.32,3.45-2.67,4.81-.43,1.73-.68,2.72-.16,3.44,1.51,2.11,7.4-1,9.12,1.22.96,1.23-.37,2.77.67,4.07,1.32,1.66,5.53,1.36,6.44-.37.65-1.23-.96-2.05-1.26-4.67-.42-3.69,2.47-4.71,2.59-9.72.05-1.86-.37-3.02-.72-3.88-.5-1.22-1.37-2.34-2.55-2.93-1.94-.98-4.27-.41-6.34.24-2.07.65-4.31,1.37-6.36.66C1.95,2.14,1.13,1.17.62.43"/>
  <g>
    <g>
      <path class="cls-3" d="M21.47,22.28c.13-1.33,1.93-3,4.4-3s4.27,1.67,4.4,3c.13,1.07-.93,1.33-2.47,3.47-1.6,2.27-1.73,3.73-2.33,3.73s-.4-1.47-1.67-3.67c-1.27-2.07-2.47-2.33-2.33-3.53h0Z"/>
      <circle class="cls-3" cx="25.87" cy="16.01" r="2.53"/>
    </g>
    <circle class="cls-1" cx="24.67" cy="15.41" r=".13"/>
    <circle class="cls-3" cx="27.33" cy="15.68" r=".13"/>
  </g>
</svg>