<?xml version="1.0" encoding="UTF-8"?>
<svg id="Layer_1" data-name="Layer 1" xmlns="http://www.w3.org/2000/svg" viewBox="0 0 30.16 31.12">
  <defs>
    <style>
      .cls-1 {
        fill: #1e9983;
        stroke: #26646c;
        stroke-miterlimit: 10;
      }
    </style>
  </defs>
  <path class="cls-1" d="M17.8,8.92c1.29-1.61,4.61-2.82,6.31-1.15,1.33,1.47,1.59,5.58-.72,6.34-1.21.19-1.92-1.1-2.81-1.7-.62-.46-1.48-.68-2.14-1.12-.82-.52-1.13-1.47-.73-2.23l.08-.14Z"/>
  <path class="cls-1" d="M21.18,6.09c-.56.81-1.88.92-2.44.05-1.23-1.37.08-5.28,2.21-3.88,1.08.86,1.02,2.64.34,3.69l-.1.14Z"/>
  <path class="cls-1" d="M23.02,2.02c2.65-3.27,3.91,2.39,1.24,3.55-2.14.98-2.21-2.47-1.24-3.55Z"/>
  <path class="cls-1" d="M28.66,3.66c1.38,1.49-.93,4.36-2.77,3.87-2.42-1.04,1.1-4.96,2.77-3.87Z"/>
  <path class="cls-1" d="M29.27,10.21c-.75,1.06-3.25,1.94-3.78.23-.68-2.76,5.58-3.85,3.88-.38l-.1.14Z"/>
  <path class="cls-1" d="M18.97,23.12c-.17,2.45-3.52,4.74-4.92,4.01-.39-.2-.23-.5-1.1-3.46-.45-1.53-1.67-4.06.86-4.34,1.89-.05,4.54,1.23,5.12,3.08.04.21.06.45.04.71Z"/>
  <path class="cls-1" d="M17.86,19.81c-.82.1-1.65-.58-1.66-1.43-.08-1.59,1.79-2.92,3.25-2.64,2.34.84.38,3.86-1.43,4.05l-.16.02Z"/>
  <path class="cls-1" d="M22.1,18.27c1.32-.34,2.69.6,1.88,2-.74,1.19-3.67,2.09-4.35.47-.2-1.26,1.24-2.19,2.3-2.43l.17-.03Z"/>
  <path class="cls-1" d="M21.92,22.12c.98-.15,2.57.04,2.98,1.11.24,2.05-3.38,2.45-4.53,1.07-.84-1,.38-2.01,1.36-2.14l.18-.04Z"/>
  <path class="cls-1" d="M20.83,28.35c-1.13.2-2.97-.43-3.11-1.77.45-3.54,7.34.27,3.27,1.74l-.16.03Z"/>
  <path class="cls-1" d="M8.54,11.84c-1.22-3.2-1.89-7.73.28-10.56,1.4-1.68,3.67-.41,4.45,1.44,1.3,2.52,1.09,5.67.39,8.42-.21.85-4.41,2.07-5.12.7Z"/>
  <path class="cls-1" d="M9.5,13.9c.43-.22.8.3,1.83.21.93-.08,1.19-.55,1.51-.39.74.36.89,3.46-.8,4.25-.74.34-1.68.18-2.3-.32-1.3-1.04-1-3.36-.24-3.75Z"/>
  <path class="cls-1" d="M.86,24.05c-.68-3.36-.61-7.94,2.01-10.37,1.66-1.43,3.69.2,4.15,2.15.87,2.7.15,5.77-.99,8.37-.34.81-4.69,1.32-5.17-.15Z"/>
  <path class="cls-1" d="M1.96,26.36c.43-.22.8.3,1.83.21.93-.08,1.19-.55,1.51-.39.74.36.89,3.46-.8,4.25-.74.34-1.68.18-2.3-.32-1.3-1.04-1-3.36-.24-3.75Z"/>
</svg>