<?xml version="1.0" encoding="UTF-8"?>
<svg id="Layer_1" data-name="Layer 1" xmlns="http://www.w3.org/2000/svg" viewBox="0 0 33 29">
  <defs>
    <style>
      .cls-1, .cls-2 {
        fill: #1e9983;
      }

      .cls-1, .cls-2, .cls-3 {
        stroke: #23636b;
      }

      .cls-1, .cls-3 {
        stroke-linecap: round;
        stroke-linejoin: round;
      }

      .cls-2 {
        stroke-miterlimit: 10;
      }

      .cls-3 {
        fill: none;
      }
    </style>
  </defs>
  <rect class="cls-2" x=".5" y=".5" width="32" height="28" rx="10" ry="10"/>
  <path class="cls-3" d="M2.17,8.68c.43,0,.86,7.89,1.3,7.89s.86-.75,1.3-.75.86,1.96,1.3,1.96.86-11.82,1.3-11.82.86,7.11,1.3,7.11.86-.24,1.3-.24.86,1.64,1.3,1.64.86-1.18,1.3-1.18.86,5.25,1.3,5.25.86-8.28,1.3-8.28.86,5.84,1.3,5.84.86-2.57,1.3-2.57.86,8.87,1.3,8.87.86-15.97,1.3-15.97.86,9.99,1.3,9.99.86-2.88,1.3-2.88.86,3.54,1.3,3.54.86-1.9,1.3-1.9.86,5.33,1.3,5.33.86-10.62,1.3-10.62.86,10.08,1.3,10.08.86-8.92,1.3-8.92"/>
  <path class="cls-1" d="M2.17,14.5h28.52"/>
</svg>