<?xml version="1.0" encoding="UTF-8"?>
<svg id="Layer_1" data-name="Layer 1" xmlns="http://www.w3.org/2000/svg" viewBox="0 0 31.02 30.85">
  <defs>
    <style>
      .cls-1 {
        stroke-width: .5px;
      }

      .cls-1, .cls-2, .cls-3, .cls-4 {
        stroke: #27656d;
        stroke-miterlimit: 10;
      }

      .cls-1, .cls-4 {
        fill: #209983;
      }

      .cls-2 {
        fill: #27656d;
      }

      .cls-2, .cls-4 {
        stroke-width: .75px;
      }

      .cls-3 {
        fill: none;
        stroke-dasharray: 0 0 4 2;
        stroke-width: 1.5px;
      }
    </style>
  </defs>
  <path class="cls-3" d="M3.07,2.25l21.83,1.41c-1.64,2.15-3.69,4.49-6.26,6.82-5.72,5.18-11.59,8.11-15.89,9.78,7.74,1.38,15.48,2.77,23.22,4.15-2.76-5.42-5.49-9.96-7.98-13.71-.13-.19-.17-.25-.21-.31C13.78,4.52,7.93,2.72,3.07,2.25Z"/>
  <g>
    <g>
      <path class="cls-4" d="M21.84,23.27c.13-1.33,1.93-3,4.4-3s4.27,1.67,4.4,3c.13,1.07-.93,1.33-2.47,3.47-1.6,2.27-1.73,3.73-2.33,3.73s-.4-1.47-1.67-3.67c-1.27-2.07-2.47-2.33-2.33-3.53h0Z"/>
      <circle class="cls-4" cx="26.24" cy="17.01" r="2.53"/>
    </g>
    <circle class="cls-2" cx="25.04" cy="16.41" r=".13"/>
    <circle class="cls-4" cx="27.7" cy="16.67" r=".13"/>
  </g>
  <rect class="cls-1" x="23.62" y="2.24" width="2.83" height="2.83" transform="translate(4.75 18.77) rotate(-45)"/>
  <circle class="cls-1" cx="2.76" cy="20.25" r="2"/>
  <polygon class="cls-1" points="4.22 .25 1.91 .25 .76 2.25 1.91 4.25 4.22 4.25 5.38 2.25 4.22 .25"/>
  <polygon class="cls-1" points="18 8.48 18.44 10.09 20.11 10.01 18.71 10.92 19.3 12.48 18 11.43 16.7 12.48 17.3 10.92 15.9 10.01 17.57 10.09 18 8.48"/>
</svg>