<?xml version="1.0" encoding="utf-8"?>
<!-- Generator: Adobe Illustrator 28.3.0, SVG Export Plug-In . SVG Version: 6.00 Build 0)  -->
<svg version="1.1" id="Layer_1" xmlns="http://www.w3.org/2000/svg" xmlns:xlink="http://www.w3.org/1999/xlink" x="0px" y="0px"
	 viewBox="0 0 24.8 32.1" style="enable-background:new 0 0 24.8 32.1;" xml:space="preserve">
<style type="text/css">
	.st0{fill:#1E9983;stroke:#23636B;stroke-width:0.75;stroke-miterlimit:10;}
	.st1{fill:none;stroke:#23636B;stroke-width:1.5;stroke-linecap:round;stroke-linejoin:round;}
	.st2{fill:#23636B;}
</style>
<path class="st0" d="M12.9,8.4c0,1.5-0.8,3.4-1.9,4.4c-0.5-0.9-0.9-1.6-1.7-2.7C9.7,7,8.6,3.7,6.9,1.2c-0.5-0.8-0.4-1,0.2-0.8
	c2.9,1.4,5.7,4.5,5.8,7.8V8.4z"/>
<path class="st0" d="M14.8,7.9c-0.1,0.8,0.1,1.8,0.1,2.6c-0.4,0.7-0.8,1.3-1.1,2c-0.1,0.2-0.2,0.5-0.3,0.5c-0.4-0.2-0.7-0.8-1-1.2
	c-1.4-1.9-1.6-4.5-0.5-6.6c1.7-3.5,6-5.8,5.5-4.7c-1.3,2.1-2.6,4.6-2.7,7.2L14.8,7.9z"/>
<path class="st0" d="M13.2,12.8c0.1,0.6-0.5,3.8-1.3,2.7c-0.2-0.4-0.5-1.2-0.8-2.1c-0.5-1.3-1.2-2.6-2.2-3.8
	C7.2,7.7,5.5,6.8,4.5,6.3C3.6,5.9,2.9,5.6,4.2,5.5C5.7,5.3,7.4,5.6,9,6.3C11.6,7.3,13.4,9.9,13.2,12.8L13.2,12.8z"/>
<path class="st0" d="M21,5.7c0.1,0.4-2.8,0.9-5.3,3.9c-1.1,1.3-2,2.9-2.5,4.3c-0.2,0.5-0.5,2.1-1.1,1.8c-1.5-1.9-1-5.6,0.5-7.4
	c1.4-1.7,3.8-2.6,5.8-2.8C19.3,5.4,20.7,5.3,21,5.7L21,5.7z"/>
<ellipse class="st0" cx="12.4" cy="29.7" rx="12" ry="2"/>
<g>
	<line class="st1" x1="12.3" y1="17.2" x2="12.3" y2="22.1"/>
	<path class="st2" d="M12.3,26.7c-0.8-2.1-2.1-4.8-3.6-6.4l3.6,1.3l3.6-1.3C14.4,21.9,13.1,24.6,12.3,26.7z"/>
</g>
</svg>
