<?xml version="1.0" encoding="utf-8"?>
<!-- Generator: Adobe Illustrator 28.3.0, SVG Export Plug-In . SVG Version: 6.00 Build 0)  -->
<svg version="1.1" id="Layer_1" xmlns="http://www.w3.org/2000/svg" xmlns:xlink="http://www.w3.org/1999/xlink" x="0px" y="0px"
	 viewBox="0 0 30.8 32.3" style="enable-background:new 0 0 30.8 32.3;" xml:space="preserve">
<style type="text/css">
	.st0{fill:#1E9983;stroke:#23636B;stroke-width:0.75;stroke-linecap:round;stroke-linejoin:round;stroke-miterlimit:10;}
	.st1{fill:none;stroke:#23636B;stroke-width:0.75;stroke-linecap:round;stroke-linejoin:round;stroke-miterlimit:10;}
	.st2{fill:#1E9983;stroke:#23636B;stroke-width:0.75;stroke-miterlimit:10;}
	.st3{fill:none;stroke:#23636B;stroke-width:0.75;stroke-miterlimit:10;}
	.st4{fill:#23636B;stroke:#23636B;stroke-width:0.75;stroke-miterlimit:10;}
	.st5{fill:#1E9983;}
	.st6{fill:none;stroke:#23636B;stroke-width:0.75;stroke-linecap:round;stroke-linejoin:round;}
	.st7{fill:#23636B;}
</style>
<g>
	<path class="st0" d="M6.4,2.9C8.2,4.1,9,7.4,7.7,8.7C6.3,10,3,9.1,1.9,7.4C1.7,7.2,1.5,6.5,1,5.2C0.6,4,0.2,1.5,0.6,1.3
		c0.7-0.1,1.7-0.1,3,0.2C4.9,1.9,5.8,2.5,6.4,2.9z"/>
	<path class="st1" d="M7.4,8.8C7,9,6.2,8.6,5.7,8.3c-2.5-1.5-4.5-4.1-5-6.8c1.5,0.2,3,1,4.2,2C6.8,5.2,8,8,7.4,8.8L7.4,8.8z"/>
</g>
<g>
	<path class="st2" d="M17.6,4.4c0,2.2-1.1,4-2.5,4s-2.5-1.8-2.5-4c0-0.3,2-4,2.5-4C16,0.4,17.6,3.5,17.6,4.4z"/>
	<path class="st3" d="M15,8.4c-0.6,0-1-2.1-0.9-3.8C14.2,3,14.8,1.8,15.2,1c0.2,0.3,0.5,0.8,0.7,1.4c0,0.1,0.4,1,0.5,1.9
		C16.6,6.2,15.7,8.4,15,8.4z"/>
</g>
<path class="st2" d="M27.3,16.4c0,0.5-1.1,1-3,1.3c-0.2,0-0.3,0-0.5,0.1c-2.2,0.4-5.2,0.6-8.5,0.6S9,18.2,6.9,17.8
	c-0.2,0-0.3-0.1-0.5-0.1c-0.3,0-0.5-0.1-0.8-0.1c-1.4-0.3-2.3-0.7-2.3-1.2c0-1.1,5.4-2,12-2S27.3,15.3,27.3,16.4z"/>
<path class="st2" d="M24.7,19.8v10c0,1.2-1,2.2-2.2,2.2H8.2C7,32,6,31,6,29.8v-10c2.4,0.4,5.7,0.6,9.3,0.6S22.3,20.1,24.7,19.8
	L24.7,19.8z"/>
<path class="st4" d="M27.3,18.4c0,0.5-1.1,1-3,1.3c-0.2,0-0.3,0-0.5,0.1c-2.2,0.4-5.2,0.6-8.5,0.6S9,20.2,6.9,19.8
	c-0.2,0-0.3-0.1-0.5-0.1c-0.3,0-0.5-0.1-0.8-0.1c-1.4-0.3-2.3-0.7-2.3-1.2c0-1.1,5.4-2,12-2S27.3,17.3,27.3,18.4z"/>
<path class="st2" d="M27.3,16.4v2.7c0,0.5-1.3,1-3.4,1.4c-2.2,0.4-5.2,0.6-8.6,0.6S9,20.9,6.8,20.5c-0.4-0.1-0.8-0.1-1.2-0.2
	c-1.4-0.3-2.3-0.7-2.3-1.2v-2.7c0,0.4,0.8,0.9,2.3,1.2c0.2,0,0.5,0.1,0.8,0.1c0.2,0,0.3,0.1,0.5,0.1c2.2,0.4,5.2,0.6,8.5,0.6
	s6.3-0.2,8.5-0.6c0.2,0,0.3-0.1,0.5-0.1C26.2,17.4,27.3,16.9,27.3,16.4z"/>
<g>
	<path class="st5" d="M21.6,9.5L18,13.4"/>
	<g>
		<path class="st6" d="M21.6,9.5c-0.6,0.6-1.2,1.3-1.8,1.9"/>
		<polygon class="st7" points="18,13.4 19.4,9.6 19.9,11.3 21.6,11.7 		"/>
	</g>
</g>
<g>
	<path class="st5" d="M15.1,9.5l0.2,4.2"/>
	<g>
		<path class="st6" d="M15.1,9.5c0,0.5,0.1,1.1,0.1,1.6"/>
		<polygon class="st7" points="15.3,13.8 13.6,10.1 15.2,10.9 16.7,10 		"/>
	</g>
</g>
<g>
	<path class="st5" d="M8.6,9.7l3.9,3.6"/>
	<g>
		<path class="st6" d="M8.6,9.7c0.6,0.6,1.3,1.2,1.9,1.8"/>
		<polygon class="st7" points="12.4,13.3 8.7,11.8 10.4,11.3 10.8,9.6 		"/>
	</g>
</g>
<g>
	<path class="st2" d="M26.7,1.4c0.8-0.2,1.5-0.2,1.5-0.2c0.1,0,0.1,0,0.2,0c0.5,0,1,0,1.3,0.1c0.5,0.2,0,2.6-0.4,3.8
		c-0.5,1.3-0.7,2-0.8,2.2C27.6,9,24.1,10,22.7,8.6c-1.3-1.2-0.6-4.2,0.8-5.6C23.5,3,24.5,1.9,26.7,1.4z"/>
	<path class="st1" d="M22.9,8.6c-0.6-0.8,0.7-3.6,2.5-5.3c1.2-1,2.7-1.8,4.2-2c-0.5,2.7-2.5,5.3-5,6.8C24.1,8.5,23.4,8.9,22.9,8.6z"
		/>
</g>
<path class="st1" d="M32.2,0.5"/>
<path class="st2" d="M31.7,2.9"/>
</svg>
