<?xml version="1.0" encoding="UTF-8"?>
<svg id="Layer_1" data-name="Layer 1" xmlns="http://www.w3.org/2000/svg" viewBox="0 0 32 32">
  <defs>
    <style>
      .cls-1 {
        fill: #d59a4d;
      }

      .cls-1, .cls-2 {
        stroke-width: 0px;
      }

      .cls-3 {
        stroke-dasharray: 0 0 2.11 2.11;
      }

      .cls-3, .cls-4, .cls-5 {
        fill: none;
      }

      .cls-3, .cls-4, .cls-5, .cls-6 {
        stroke: #913d63;
        stroke-width: 1.5px;
      }

      .cls-3, .cls-5 {
        stroke-linecap: round;
        stroke-linejoin: round;
      }

      .cls-4, .cls-6 {
        stroke-miterlimit: 10;
      }

      .cls-6 {
        fill: #bd515a;
      }

      .cls-2 {
        fill: #f3d040;
      }
    </style>
  </defs>
  <g>
    <g>
      <polygon class="cls-2" points="27.1 5.96 31.25 1.81 31.25 26.04 27.1 30.19 27.1 5.96"/>
      <path class="cls-1" d="M30.5,3.62v22.11l-2.65,2.65V6.27l2.65-2.65M32,0l-5.65,5.65v26.35l5.65-5.65V0h0Z"/>
    </g>
    <g>
      <rect class="cls-2" x=".75" y="6.4" width="24.85" height="24.85"/>
      <path class="cls-1" d="M24.85,7.15v23.35H1.5V7.15h23.35M26.35,5.65H0v26.35h26.35V5.65h0Z"/>
    </g>
    <g>
      <polygon class="cls-2" points="1.81 4.9 5.96 .75 30.19 .75 26.04 4.9 1.81 4.9"/>
      <path class="cls-1" d="M28.38,1.5l-2.65,2.65H3.62l2.65-2.65h22.11M32,0H5.65L0,5.65h26.35l5.65-5.65h0Z"/>
    </g>
  </g>
  <path class="cls-4" d="M6.12,23.35c-1.56,0-2.82,1.26-2.82,2.82s1.26,2.82,2.82,2.82,2.82-1.26,2.82-2.82"/>
  <path class="cls-4" d="M6.12,23.35c-1.56,0-2.82,1.26-2.82,2.82s1.26,2.82,2.82,2.82,2.82-1.26,2.82-2.82"/>
  <path class="cls-4" d="M6.12,23.35c-1.56,0-2.82,1.26-2.82,2.82s1.26,2.82,2.82,2.82,2.82-1.26,2.82-2.82"/>
  <path class="cls-4" d="M6.12,23.35c-1.56,0-2.82,1.26-2.82,2.82s1.26,2.82,2.82,2.82,2.82-1.26,2.82-2.82"/>
  <path class="cls-4" d="M6.12,23.35c-1.56,0-2.82,1.26-2.82,2.82s1.26,2.82,2.82,2.82,2.82-1.26,2.82-2.82"/>
  <path class="cls-4" d="M6.12,23.35c-1.56,0-2.82,1.26-2.82,2.82s1.26,2.82,2.82,2.82,2.82-1.26,2.82-2.82"/>
  <path class="cls-4" d="M6.12,23.35c-1.56,0-2.82,1.26-2.82,2.82s1.26,2.82,2.82,2.82,2.82-1.26,2.82-2.82"/>
  <path class="cls-4" d="M6.12,23.35c-1.56,0-2.82,1.26-2.82,2.82s1.26,2.82,2.82,2.82,2.82-1.26,2.82-2.82"/>
  <circle class="cls-6" cx="6.12" cy="26.17" r="2.82"/>
  <g>
    <line class="cls-5" x1="6.12" y1="8.39" x2="6.12" y2="9.39"/>
    <line class="cls-3" x1="6.12" y1="11.5" x2="6.12" y2="18.91"/>
    <line class="cls-5" x1="6.12" y1="19.96" x2="6.12" y2="20.96"/>
  </g>
  <g>
    <line class="cls-5" x1="11.63" y1="9.28" x2="11.32" y2="10.23"/>
    <line class="cls-3" x1="10.66" y1="12.24" x2="8.38" y2="19.28"/>
    <line class="cls-5" x1="8.05" y1="20.28" x2="7.74" y2="21.23"/>
  </g>
  <g>
    <line class="cls-5" x1="16.59" y1="11.82" x2="16" y2="12.63"/>
    <line class="cls-3" x1="14.76" y1="14.34" x2="10.41" y2="20.33"/>
    <line class="cls-5" x1="9.79" y1="21.18" x2="9.2" y2="21.99"/>
  </g>
  <g>
    <line class="cls-5" x1="20.53" y1="15.78" x2="19.72" y2="16.36"/>
    <line class="cls-3" x1="18.01" y1="17.61" x2="12.02" y2="21.96"/>
    <line class="cls-5" x1="11.16" y1="22.58" x2="10.35" y2="23.17"/>
  </g>
  <g>
    <line class="cls-5" x1="23.05" y1="20.75" x2="22.1" y2="21.06"/>
    <line class="cls-3" x1="20.09" y1="21.72" x2="13.05" y2="24"/>
    <line class="cls-5" x1="12.04" y1="24.33" x2="11.09" y2="24.64"/>
  </g>
  <g>
    <line class="cls-5" x1="23.91" y1="26.27" x2="22.91" y2="26.27"/>
    <line class="cls-3" x1="20.79" y1="26.27" x2="13.39" y2="26.27"/>
    <line class="cls-5" x1="12.33" y1="26.27" x2="11.33" y2="26.27"/>
  </g>
</svg>