<?xml version="1.0" encoding="utf-8"?>
<!-- Generator: Adobe Illustrator 28.3.0, SVG Export Plug-In . SVG Version: 6.00 Build 0)  -->
<svg version="1.1" id="Layer_1" xmlns="http://www.w3.org/2000/svg" xmlns:xlink="http://www.w3.org/1999/xlink" x="0px" y="0px"
	 viewBox="0 0 31.5 31" style="enable-background:new 0 0 31.5 31;" xml:space="preserve">
<style type="text/css">
	.st0{fill:#1F9983;stroke:#26646C;stroke-width:0.75;stroke-linecap:round;stroke-linejoin:round;stroke-miterlimit:10;}
	.st1{fill:#1E9983;}
	.st2{fill:#23636B;}
	.st3{fill:none;stroke:#26646C;stroke-width:2;stroke-linecap:round;stroke-miterlimit:10;}
	.st4{fill:#26646C;}
</style>
<g>
	<path class="st0" d="M10,8.7c0,1.6-0.9,3.5-2,4.5c-0.6-0.9-0.9-1.7-1.7-2.8C6.5,7.8,6,5,4.7,2.7C4.4,2,2.6,0,4,0.5
		C7.1,1.9,10,5.1,10,8.7L10,8.7z"/>
	<path class="st0" d="M12.2,8.3c-0.1,0.8,0.1,1.8,0.1,2.6c-0.4,0.7-0.9,1.4-1.2,2.1c-0.1,0.2-0.2,0.5-0.3,0.6
		c-0.4-0.2-0.8-0.8-1.1-1.2c-3.1-3.9,0-9.1,3.4-11.2c1.3-0.8,2.1-1.1,1.8-0.4C13.6,2.9,12.2,5.6,12.2,8.3L12.2,8.3L12.2,8.3z"/>
	<path class="st0" d="M10.5,13.3c0.1,0.6-0.5,4-1.4,2.8c-0.2-0.4-0.5-1.3-0.9-2.2C7.7,12.6,7,11.2,5.9,10C4.2,8,2.5,7.1,1.4,6.6
		C0.5,6.2-0.2,5.9,1.1,5.7c1.6-0.1,3.4,0.2,5,0.9C8.8,7.6,10.7,10.3,10.5,13.3C10.5,13.2,10.5,13.3,10.5,13.3z"/>
	<path class="st0" d="M18.6,5.9c0.1,0.4-2.9,0.9-5.5,4c-1.2,1.3-2,3-2.6,4.5c-0.3,0.5-0.5,2.1-1.1,1.9c-1.6-2-1.1-5.8,0.6-7.7
		c1.4-1.8,3.9-2.7,6-2.9C16.8,5.6,18.2,5.6,18.6,5.9L18.6,5.9L18.6,5.9z"/>
</g>
<path class="st1" d="M16.7,30.4c-0.7,0-1.2-0.6-1.2-1.2v-7.3l-0.2-0.2c-0.6-0.4-1.2-1.2-1.2-2.1c0-2,3-3.7,6.6-3.7s6.6,1.7,6.6,3.7
	c0,1-0.7,1.7-1.2,2.1l-0.2,0.2v7.3c0,0.7-0.6,1.2-1.2,1.2C24.6,30.4,16.7,30.4,16.7,30.4z"/>
<path class="st2" d="M20.6,16.4c3.5,0,6,1.6,6,3.1c0,0.7-0.5,1.3-1,1.7l-0.4,0.4v7.6c0,0.4-0.3,0.6-0.6,0.6h-7.8
	c-0.4,0-0.7-0.3-0.7-0.6v-7.6l-0.4-0.4c-0.4-0.4-1-1-1-1.7C14.6,18,17.1,16.4,20.6,16.4 M20.6,15.2c-4,0-7.2,1.9-7.2,4.3
	c0,1,0.5,1.9,1.4,2.6v7.1c0,1,0.8,1.8,1.8,1.8h7.8c1,0,1.8-0.8,1.8-1.8v-7.1c0.9-0.7,1.4-1.6,1.4-2.6C27.8,17.1,24.6,15.2,20.6,15.2
	L20.6,15.2L20.6,15.2z"/>
<path class="st1" d="M18.6,30.4c-0.7,0-1.2-0.6-1.2-1.2v-7.3l-0.2-0.2c-0.6-0.4-1.2-1.2-1.2-2.1c0-2,3-3.7,6.6-3.7s6.6,1.7,6.6,3.7
	c0,1-0.7,1.7-1.2,2.1l-0.2,0.2v7.3c0,0.7-0.6,1.2-1.2,1.2C26.4,30.4,18.6,30.4,18.6,30.4z"/>
<path class="st2" d="M22.5,16.4c3.5,0,6,1.6,6,3.1c0,0.7-0.5,1.3-1,1.7l-0.4,0.4v7.6c0,0.4-0.3,0.6-0.6,0.6h-7.8
	c-0.4,0-0.7-0.3-0.7-0.6v-7.6l-0.4-0.4c-0.5-0.4-1-1-1-1.7C16.5,18,19,16.4,22.5,16.4 M22.5,15.2c-4,0-7.2,1.9-7.2,4.3
	c0,1,0.5,1.9,1.4,2.6v7.1c0,1,0.8,1.8,1.8,1.8h7.8c1,0,1.8-0.8,1.8-1.8v-7.1c0.9-0.7,1.4-1.6,1.4-2.6C29.6,17.1,26.4,15.2,22.5,15.2
	L22.5,15.2L22.5,15.2z"/>
<path class="st1" d="M20.4,30.4c-0.7,0-1.2-0.6-1.2-1.2v-7.3L19,21.7c-0.6-0.4-1.2-1.2-1.2-2.1c0-2,3-3.7,6.6-3.7s6.6,1.7,6.6,3.7
	c0,1-0.7,1.7-1.2,2.1l-0.2,0.2v7.3c0,0.7-0.6,1.2-1.2,1.2C28.3,30.4,20.4,30.4,20.4,30.4z"/>
<path class="st2" d="M24.3,16.4c3.5,0,6,1.6,6,3.1c0,0.7-0.5,1.3-1,1.7l-0.4,0.4v7.6c0,0.4-0.3,0.6-0.6,0.6h-7.8
	c-0.4,0-0.7-0.3-0.7-0.6v-7.6l-0.4-0.4c-0.5-0.4-1-1-1-1.7C18.3,18,20.8,16.4,24.3,16.4 M24.3,15.2c-4,0-7.2,1.9-7.2,4.3
	c0,1,0.5,1.9,1.4,2.6v7.1c0,1,0.8,1.8,1.8,1.8h7.8c1,0,1.8-0.8,1.8-1.8v-7.1c0.9-0.7,1.4-1.6,1.4-2.6C31.5,17.1,28.3,15.2,24.3,15.2
	L24.3,15.2L24.3,15.2z"/>
<g>
	<path class="st3" d="M4.2,14.8C4,15.3,2.7,19,5.5,22.2c1,1.2,2.3,1.9,3,2.2"/>
	<polygon class="st4" points="13.3,25.5 5.8,26.5 8.1,24.2 7.3,21 	"/>
</g>
</svg>
