<?xml version="1.0" encoding="UTF-8"?>
<svg id="Layer_1" data-name="Layer 1" xmlns="http://www.w3.org/2000/svg" viewBox="0 0 24.75 31.61">
  <defs>
    <style>
      .cls-1 {
        stroke-width: .5px;
      }

      .cls-1, .cls-2, .cls-3, .cls-4 {
        stroke: #26646c;
        stroke-miterlimit: 10;
      }

      .cls-1, .cls-2, .cls-4 {
        fill: #1f9983;
      }

      .cls-2 {
        stroke-width: .25px;
      }

      .cls-3 {
        fill: #26646c;
      }

      .cls-3, .cls-4 {
        stroke-width: .75px;
      }
    </style>
  </defs>
  <g>
    <path class="cls-4" d="M24.38,15.65c0,.51-1.14.97-3.03,1.34-.16.02-.33.05-.5.08-2.17.36-5.16.58-8.47.58s-6.3-.22-8.47-.58c-.17-.03-.33-.06-.49-.09-.27-.04-.52-.1-.75-.15-1.44-.33-2.29-.74-2.29-1.18,0-1.1,5.37-2,12-2s12,.9,12,2Z"/>
    <path class="cls-4" d="M21.72,19v10.05c0,1.2-.98,2.18-2.18,2.18H5.23c-1.2,0-2.18-.98-2.18-2.18v-10.05c2.38.4,5.68.65,9.34.65s6.96-.25,9.34-.65h-.01Z"/>
    <path class="cls-3" d="M24.38,17.65c0,.51-1.14.97-3.03,1.34-.16.02-.33.05-.5.08-2.17.36-5.16.58-8.47.58s-6.3-.22-8.47-.58c-.17-.03-.33-.06-.49-.09-.27-.04-.52-.1-.75-.15-1.44-.33-2.29-.74-2.29-1.18,0-1.1,5.37-2,12-2s12,.9,12,2Z"/>
    <path class="cls-4" d="M24.38,15.65v2.67c0,.54-1.31,1.04-3.44,1.4-2.18.37-5.21.6-8.56.6s-6.38-.23-8.56-.6c-.42-.07-.8-.15-1.15-.23-1.44-.33-2.29-.73-2.29-1.17v-2.67c0,.44.85.85,2.29,1.18.23.05.48.11.75.15.16.03.32.06.49.09,2.17.36,5.17.58,8.47.58s6.3-.22,8.47-.58c.17-.03.34-.06.5-.08,1.89-.37,3.03-.83,3.03-1.34Z"/>
  </g>
  <g>
    <path class="cls-4" d="M13.02,15.59c0,1.08-.34,1.96-.68,2.03h-.07c-.27.07-.41-.81-.95-2.03-.27-.61-.61-1.22-1.15-1.9-.07-.07-.14-.14-.2-.27-1.76-2.03-3.73-2.37-3.59-2.64.07-.27,1.96-.34,3.73.41.54.27,1.08.54,1.56,1.02.27.2.47.47.68.81.07.07.07.14.14.2,0,.07.07.14.07.2.41.75.54,1.49.47,2.17h0Z"/>
    <path class="cls-4" d="M18.37,10.85c.07.27-1.9.61-3.59,2.64-.75.88-1.35,1.96-1.69,2.91-.14.34-.34,1.42-.75,1.22-1.02-1.29-.68-3.79.34-5.01.95-1.15,2.57-1.76,3.93-1.9.54-.07,1.49-.07,1.76.14h0Z"/>
  </g>
  <path class="cls-1" d="M15.37,7.61c.11,1.18-1.13,2.99-2.99,2.99-1.86,0-3.12-1.83-2.99-2.99.1-.94,1.04-.99,2.01-2.74.67-1.21.69-2.02,1.06-2.03.41-.01.48,1.03,1.45,2.58.89,1.43,1.4,1.48,1.47,2.19Z"/>
  <path class="cls-1" d="M10.37,3.43c.07.79-.75,2-2,2-1.24,0-2.08-1.22-2-2,.07-.62.69-.66,1.34-1.83.45-.8.46-1.35.7-1.36.27,0,.32.68.96,1.72.59.95.94.99.98,1.46Z"/>
  <path class="cls-2" d="M16.79,2.69c.04.39-.38,1-1,1-.62,0-1.04-.61-1-1,.03-.31.35-.33.67-.91.22-.4.23-.67.35-.68.14,0,.16.34.48.86.3.48.47.49.49.73Z"/>
</svg>