<?xml version="1.0" encoding="UTF-8"?>
<svg id="Layer_1" data-name="Layer 1" xmlns="http://www.w3.org/2000/svg" viewBox="0 0 30.79 27.28">
  <defs>
    <style>
      .cls-1 {
        fill: #37622f;
      }

      .cls-1, .cls-2, .cls-3 {
        stroke-width: 0px;
      }

      .cls-2 {
        fill: #597f39;
      }

      .cls-3 {
        fill: #82ab40;
      }
    </style>
  </defs>
  <path class="cls-1" d="M8.84,27.28C5.58,25.85.08,20.52,0,14.05-.1,6.59,7.04.24,9.12,1.14c1.63.71-.59,5.58.45,15.8.56,5.71,1.71,8.62,1.64,9.91-.93-.74-1.72-1.9-2.37-2.91-1.92-3.24-3.43-6.88-3.88-10.65-.03-.36-.14-1.14-.02-1.42.2-.14.55-.19.8-.25-.19-.27-.55-.45-.84-.63-.35.05-.75.13-.98.38.09.1.39.2.47.3.24.14.29.22.25.46-.18,2.74.47,5.47,1.21,8.09.83,2.53,1.53,4.89,3,7.07Z"/>
  <path class="cls-2" d="M19.66,12.74c-.33,3.73-1.96,8.68-3.84,9.42-.35-3.65-.28-7.29-.12-10.95.02-.14-.02-.28.09-.42.16-.26.8-.53.84-.85.04-.14-.2-.28-.42-.43-.37-.28-.59-.56-.89-.84-.3.28-.52.56-.89.85-.21.14-.46.28-.42.42.04.32.68.59.85.85.11.14.06.28.08.42.17,3.66.25,7.3-.1,10.95-2.46-.99-5.11-8.91-3.38-15.75C11.98,4.34,13.52-.03,15.42,0c2.33.04,4.79,6.73,4.24,12.74Z"/>
  <path class="cls-3" d="M30.74,14.08C31.33,7.64,26.41,1.79,23.31.02c1.22,2.33,1.68,4.74,2.25,7.33.48,2.68.85,5.46.38,8.17-.06.24-.03.32.2.48.07.11.36.24.44.35-.25.23-.65.27-1.02.28-.27-.21-.61-.43-.78-.7.25-.04.61-.06.82-.17.15-.27.11-1.05.13-1.42-.06-3.8-1.18-7.57-2.77-10.99-.53-1.08-1.21-2.29-2.05-3.12-.2,1.27.63,4.28.61,10-.02,10.28-2.72,14.9-1.17,15.77,1.98,1.12,9.73-4.47,10.4-11.91Z"/>
</svg>