<?xml version="1.0" encoding="UTF-8"?>
<svg id="Layer_1" data-name="Layer 1" xmlns="http://www.w3.org/2000/svg" viewBox="0 0 31.06 26.27">
  <defs>
    <style>
      .cls-1 {
        fill: #37622f;
      }

      .cls-1, .cls-2, .cls-3 {
        stroke-width: 0px;
      }

      .cls-2 {
        fill: #597f39;
      }

      .cls-3 {
        fill: #82ab40;
      }
    </style>
  </defs>
  <path class="cls-3" d="M12.86,26.27c-3.54-.43-10.34-3.94-12.29-10.11C-1.68,9.04,3.32.9,5.57,1.16c1.77.21,1.05,5.51,5,15,2.19,5.3,4.13,7.76,4.43,9.01-1.1-.44-2.2-1.32-3.11-2.1-2.78-2.55-5.27-5.6-6.79-9.08-.13-.34-.46-1.05-.43-1.35.15-.19.47-.34.69-.47-.26-.2-.66-.27-.99-.36-.32.15-.68.34-.83.65.12.07.43.08.54.15.27.06.34.13.37.37.62,2.68,2.03,5.1,3.5,7.39,1.52,2.18,2.88,4.24,4.91,5.9Z"/>
  <path class="cls-2" d="M19.82,12.74c-.33,3.73-1.96,8.68-3.84,9.42-.35-3.65-.28-7.29-.12-10.95.02-.14-.02-.28.09-.42.16-.26.8-.53.84-.85.04-.14-.2-.28-.42-.43-.37-.28-.59-.56-.89-.84-.3.28-.52.56-.89.85-.21.14-.46.28-.42.42.04.32.68.59.85.85.11.14.06.28.08.42.17,3.66.25,7.3-.1,10.95-2.46-.99-5.11-8.91-3.38-15.75C12.14,4.34,13.68-.03,15.58,0c2.33.04,4.79,6.73,4.24,12.74Z"/>
  <path class="cls-1" d="M30.49,16.12c-1.94,6.17-8.74,9.67-12.28,10.11,2.02-1.68,3.38-3.72,4.9-5.9,1.48-2.29,2.89-4.71,3.5-7.39.04-.24.1-.31.37-.37.11-.07.42-.08.54-.15-.14-.31-.5-.5-.83-.65-.33.09-.73.16-.99.35.22.13.54.29.69.47.03.31-.3,1.01-.43,1.36-1.52,3.48-4.01,6.53-6.79,9.07-.91.79-2,1.65-3.1,2.09.31-1.25,2.23-3.71,4.42-8.99,3.95-9.49,3.24-14.79,5-15,2.26-.27,7.25,7.88,5,15Z"/>
</svg>