<?xml version="1.0" encoding="UTF-8"?>
<svg id="Layer_2" data-name="Layer 2" xmlns="http://www.w3.org/2000/svg" viewBox="0 0 30.88 27.35">
  <defs>
    <style>
      .cls-1 {
        fill: none;
        stroke: #f2f2f0;
        stroke-miterlimit: 10;
        stroke-width: .25px;
      }

      .cls-2 {
        fill: #f2f2f0;
      }

      .cls-2, .cls-3, .cls-4 {
        stroke-width: 0px;
      }

      .cls-3 {
        fill: #82ab40;
      }

      .cls-4 {
        fill: #597f39;
      }
    </style>
  </defs>
  <g id="Layer_1-2" data-name="Layer 1">
    <g>
      <path class="cls-4" d="M30.24,3.69c.05.17-1.04.36-2.17,1.47-.9.89-1,1.55-1.55,2.4-.87,1.35-2.32,2.34-3.4,2.72-.12.05-.27.1-.43.14-.13.02-.27.04-.42.05h-.04c-.75.05-1.7-.1-2.5-.41-.02-.01-.05-.02-.07-.03-.3.54-.68,1.2-1.12,2.04-.48.9-.77,1.53-1,1.98.27.66.53,1.53.83,2.61.32,1.12.61,2.18.61,3.65-.01,1.4-.01,2.9-.95,4.19-1.39,1.91-4.21,2.52-4.65,1.91-.33-.45.9-1.32,1.8-3.89.45-1.31.79-2.28.63-3.43-.24-1.71-1.42-2.61-2.16-3.44.08-.09.16-.17.22-.26-.22-.06-.41-.13-.56-.19.09.15.21.3.34.45-.55.59-1.5,1.2-2.79,2.02-.98.62-1.91,1.21-3.32,1.63-1.34.4-2.78.83-4.29.3-2.22-.78-3.62-3.31-3.17-3.9.35-.45,1.53.48,4.25.6,1.39.06,2.42.1,3.47-.39,1.95-.9,2.28-2.85,3.13-3.66.4-.9,1.63-1.63,1.98-3.43.17-.88.06-1.64-.06-2.28-.22-.12-.43-.25-.62-.38-.34.93-.95,1.94-1.78,2.71-2.56,2.35-6.65,1.65-6.71,1.3-.04-.17.93-.21,1.95-1.11,1.05-.92,1.08-1.83,1.69-2.84.84-1.4,2.44-2.4,3.63-2.69.1-.03.22-.06.34-.07.16-.02.34-.03.53-.02h.02c.78.02,1.73.22,2.44.45.31.1.62.22.94.36.01,0,.02,0,.03.01.57.13,1.42.5,3.09,1.54.87.53,1.46.9,1.81,1.19.13.03.26.08.38.13.59.24,1.17.59,1.66.98.44-.89,1.12-1.86,1.96-2.64,2.44-2.23,5.94-2.06,6.03-1.77Z"/>
      <path class="cls-3" d="M30.87,4.45c.05.17-1.04.36-2.17,1.47-.9.89-1,1.55-1.55,2.4-.87,1.35-2.32,2.34-3.4,2.72-.12.05-.27.1-.43.14-.13.02-.27.04-.42.05h-.04c-.75.05-1.7-.1-2.5-.41-.02-.01-.05-.02-.07-.03-.3.54-.68,1.2-1.12,2.04-.48.9-.77,1.53-1,1.98.86.78,1.33,1.56,1.58,2.07.63,1.28.71,2.46.78,3.37.05.65.07,1.04,0,1.56-.26,1.84-1.48,3.07-1.87,3.45-1.67,1.63-4.23,2.48-4.65,1.91-.33-.45.9-1.32,1.8-3.89.45-1.31.79-2.28.63-3.43-.24-1.71-1.42-2.61-2.16-3.44-.55.59-1.5,1.2-2.79,2.02-.98.62-1.91,1.21-3.32,1.63-1.34.4-2.78.83-4.29.3-2.22-.78-3.62-3.31-3.17-3.9.35-.45,1.53.48,4.25.6,1.39.06,2.42.1,3.47-.39,1.95-.9,2.28-2.85,3.13-3.66.4-.9,1.63-1.63,1.98-3.43.17-.88.06-1.64-.06-2.28-.22-.12-.43-.25-.62-.38-.34.93-.95,1.94-1.78,2.71-2.56,2.35-6.65,1.65-6.71,1.3-.04-.17.93-.21,1.95-1.11,1.05-.92,1.08-1.83,1.69-2.84.84-1.4,2.44-2.4,3.63-2.69.1-.03.22-.06.34-.07.16-.02.34-.03.53-.02h.02c.78.02,1.73.22,2.44.45.31.1.62.22.94.36.01,0,.02,0,.03.01.57.13,1.42.5,3.09,1.54.87.53,1.46.9,1.81,1.19.13.03.26.08.38.13.59.24,1.17.59,1.66.98.44-.89,1.12-1.86,1.96-2.64,2.44-2.23,5.94-2.06,6.03-1.77Z"/>
      <circle class="cls-4" cx="19.98" cy="2.65" r="2.65"/>
      <circle class="cls-3" cx="20.61" cy="3.41" r="2.65"/>
      <polygon class="cls-2" points="19.67 7.76 18.17 8.31 17.46 6.35 19.67 7.76"/>
      <path class="cls-2" d="M17.63,10.94c-.88.77-1.76,1.55-2.63,2.32.38-1.1.76-2.2,1.14-3.31.62-.38,1.25-.77,1.87-1.15-.13.71-.25,1.43-.38,2.14Z"/>
      <path class="cls-2" d="M12.72,4.21c-.07,1.3-.78,2.54-1.88,3.23-.55.39-1.23.41-1.63.76-.22.17-.38.41-.5.67-.06.13-.11.27-.15.41l-.05.21-.02.11s0,.07-.14.09c-.12-.05-.11-.09-.1-.13l.02-.12.04-.23c.04-.15.08-.31.14-.46.12-.3.3-.58.54-.8.24-.23.57-.37.85-.47.28-.11.53-.23.76-.4.92-.68,1.51-1.78,1.57-2.91l.55.03h0Z"/>
      <path class="cls-2" d="M11.27,7.15c.09-.47.04-.37.01-.39l-.08-.02-.16-.04-.32-.07c-.22-.04-.43-.1-.65-.12-.22-.02-.44-.03-.66,0s-.38.19-.56.31l-.08-.09c.2-.12.38-.28.62-.31.23-.05.46-.05.68-.05s.45.04.68.07l.34.05.17.02h.08s.03.11.18-.35l-.25.97v.02Z"/>
      <path class="cls-2" d="M22.93,9.81c1.13-.13,2.19-.78,2.81-1.74.35-.51.35-1.16.77-1.66.36-.45.9-.7,1.44-.82.11,0,.16-.1.25.07-.02.19-.09.12-.19.17-.47.13-.96.38-1.24.78-.33.42-.31,1.1-.66,1.67-.62,1.13-1.82,1.92-3.11,2.07l-.07-.55h0Z"/>
      <path class="cls-2" d="M24.9,9.05c.45-.18.34-.17.35-.2-.12-.64-.32-1.28-.23-1.94.01-.24.16-.44.27-.64l.1.08c-.57.68-.13,1.6.06,2.35l.02.08s-.08.08.39-.04l-.95.31h-.01Z"/>
      <circle class="cls-2" cx="20.03" cy="2.41" r=".36"/>
      <circle class="cls-2" cx="21.63" cy="4.56" r=".36"/>
      <path class="cls-1" d="M20.15,3.38c-.1.19-.2.42-.1.61.13.24.47.22.73.17"/>
      <path class="cls-2" d="M12.35,15.66c-.85,1.3-2.1,2.34-3.54,2.92-.72.29-1.47.48-2.24.55-.38.04-.77.05-1.15.03-.19,0-.38-.02-.57-.04l-.28-.04-.14-.02s-.1,0-.12-.14c.07-.12.11-.11.16-.1l.14.02.28.02c.18.01.37.02.55.02.37,0,.74-.03,1.1-.08.73-.1,1.44-.31,2.1-.62,1.33-.62,2.46-1.61,3.25-2.82,0,0,.46.3.46.3Z"/>
      <path class="cls-2" d="M17.04,16.06c1.98,2.37,2.25,5.87.83,8.58-.05.16-.32.04-.22-.11l.06-.13c1.19-2.61.73-5.81-1.09-8l.43-.35h-.01Z"/>
    </g>
  </g>
</svg>