<?xml version="1.0" encoding="UTF-8"?>
<svg id="Layer_1" data-name="Layer 1" xmlns="http://www.w3.org/2000/svg" viewBox="0 0 32.23 32.25">
  <defs>
    <style>
      .cls-1 {
        stroke-width: .5px;
      }

      .cls-1, .cls-2 {
        fill: #955949;
        stroke: #5c3942;
        stroke-miterlimit: 10;
      }

      .cls-3 {
        fill: #5c3942;
        stroke-width: 0px;
      }

      .cls-2 {
        stroke-width: .75px;
      }
    </style>
  </defs>
  <path class="cls-2" d="M31.04,13.65c-.17-.12-.39-.16-.6-.24-.83-.31-1.67-.61-2.5-.94-1.02-.4-1.32-1.13-.89-2.15.38-.88.77-1.75,1.2-2.6.52-1.01.06-1.72-.69-2.32-.9-.71-1.43-2.21-3.04-1.43-.89.42-1.78.85-2.69,1.23-.95.4-1.68.1-2.07-.89-.39-.96-.76-1.95-1.11-2.93-.25-.68-.75-1.03-1.42-.95-1.22.17-2.65-.62-3.6.75-.12.18-.16.4-.24.6-.31.81-.61,1.61-.92,2.41-.41,1.09-1.12,1.43-2.18.97-.94-.4-1.85-.84-2.77-1.27-.69-.32-1.32-.2-1.75.37-.72.95-2.24,1.4-2,2.99.03.18.15.34.22.51.38.84.78,1.67,1.14,2.52.46,1.06.17,1.75-.95,2.19-.89.34-1.77.69-2.68.99-.94.32-1.22,1.01-1.1,1.89.16,1.18-.64,2.71,1.1,3.37.9.34,1.79.66,2.68,1.01,1.1.42,1.4,1.11.95,2.19-.13.31-.29.61-.42.92-1.43,3.23-1.56,2.45,1.05,5.12.55.56,1.15.64,1.85.32.9-.42,1.79-.84,2.69-1.23,1.01-.44,1.73-.15,2.14.89.39.96.75,1.95,1.11,2.93.27.72.84,1.01,1.54.92,1.18-.16,2.59.6,3.49-.78.12-.18.15-.4.23-.6.3-.78.59-1.56.9-2.32.47-1.22,1.09-1.49,2.29-.96.29.12.56.26.85.37,3.2,1.43,2.43,1.58,5.17-1.14.23-.23.32-.58.46-.88-.11-.41-.16-.73-.28-1-.36-.85-.77-1.67-1.14-2.52-.46-1.08-.18-1.77.92-2.21.95-.37,1.89-.74,2.85-1.08.72-.27,1.04-.81.95-1.51-.17-1.19.6-2.59-.75-3.52ZM8.24,26.51c-1.32,0-2.39-1.07-2.39-2.39s1.07-2.39,2.39-2.39,2.39,1.07,2.39,2.39-1.07,2.39-2.39,2.39ZM16.44,20.75c-3.03-.04-5.01-2.42-4.88-4.67,0-2.58,2-4.57,4.59-4.57s4.52,2.01,4.53,4.53c0,2.35-2.12,4.74-4.23,4.71Z"/>
  <path class="cls-3" d="M27.38,14.06c-.12-.09-.26-.13-.37-.16-.05-.01-.09-.03-.14-.05l-.39-.14c-.49-.18-.98-.36-1.47-.55-.3-.12-.5-.28-.58-.47-.08-.2-.06-.45.08-.76.28-.64.57-1.29.88-1.91.58-1.14-.3-1.84-.59-2.08-.15-.12-.29-.28-.44-.45-.46-.52-1.03-1.17-2.12-.65-.63.3-1.31.62-1.99.91-.28.12-.52.14-.71.06-.19-.08-.35-.27-.46-.57-.31-.76-.59-1.53-.82-2.17-.23-.64-.74-.97-1.36-.89-.25.03-.52,0-.8-.02-.66-.07-1.49-.15-2.08.7-.08.12-.12.25-.16.36-.01.05-.03.09-.05.14l-.68,1.8c-.13.34-.3.56-.5.64-.19.08-.44.06-.75-.08-.69-.3-1.37-.62-2.05-.94-.65-.29-1.24-.16-1.64.36-.15.19-.35.36-.57.54-.5.41-1.12.92-.97,1.9.02.13.08.24.13.34.02.04.04.07.06.12l.19.41c.22.48.45.97.66,1.46.14.32.17.57.09.76-.08.2-.29.36-.66.5-.64.25-1.3.5-1.96.73-.76.26-1.12.86-1.01,1.71.03.21,0,.45-.01.7-.06.71-.13,1.6,1.01,2.03.27.1.54.2.81.31.39.15.79.29,1.18.45.34.13.55.29.63.48.08.19.05.45-.08.77-.06.13-.12.26-.18.4l-.13.28c-.12.27-.23.5-.32.7-.11.24-.19.43-.26.61.21-.15.47-.24.73-.28.01-.03.02-.05.04-.09.09-.2.2-.44.32-.71l.12-.27c.07-.14.13-.28.19-.42.2-.47.23-.87.08-1.21-.15-.34-.45-.6-.94-.79-.39-.16-.79-.31-1.19-.45-.27-.1-.54-.2-.81-.3-.71-.27-.71-.71-.65-1.46.02-.27.04-.55,0-.82-.08-.58.12-.93.63-1.1.67-.23,1.34-.49,2-.74.5-.19.81-.45.95-.8.14-.34.11-.73-.09-1.2-.21-.49-.44-.98-.66-1.47l-.18-.4s-.05-.1-.07-.15c-.03-.06-.07-.13-.07-.17-.1-.63.23-.93.77-1.38.23-.19.47-.39.66-.64.24-.31.56-.38.96-.2.68.32,1.37.65,2.07.95.45.19.85.22,1.19.08.35-.15.62-.47.8-.96l.68-1.79c.02-.06.04-.11.06-.17.03-.09.05-.17.09-.22.38-.54.84-.53,1.56-.46.31.03.62.06.93.02.36-.04.61.13.76.52.23.65.52,1.42.83,2.19.17.44.43.73.76.87.33.14.72.12,1.14-.06.69-.29,1.37-.62,2.01-.92.67-.32.98-.03,1.46.52.16.18.32.36.51.51.59.47.71.86.44,1.38-.33.64-.62,1.3-.9,1.95-.19.45-.22.85-.08,1.19.14.34.44.6.89.78.49.19.99.38,1.48.56l.38.14c.05.02.11.04.17.06.09.03.17.05.22.09h0c.53.37.52.82.46,1.52-.03.3-.06.61-.02.91.05.4-.13.68-.53.82-.71.26-1.42.53-2.13.81-.48.19-.79.45-.93.79-.14.34-.11.74.1,1.22.12.28.25.56.38.84.16.34.32.69.47,1.04.05.13.09.27.12.43.01.06.03.12.04.18-.02.04-.04.09-.06.13-.06.14-.11.27-.19.35-.24.24-.45.46-.63.64q-1.01,1.03-2.2.48c-.2-.09-.43-.2-.71-.33-.1-.04-.2-.09-.3-.13-.11-.05-.22-.1-.32-.14-.53-.23-.94-.27-1.27-.13-.34.14-.6.46-.8,1-.21.54-.42,1.08-.63,1.62l-.04.11c-.02.06-.04.12-.06.19-.02.08-.05.16-.08.21-.36.55-.81.54-1.52.47-.19-.02-.38-.03-.57-.03-.11,0-.21,0-.32.02-.41.06-.7-.11-.84-.5l-.14-.38c-.22-.61-.45-1.21-.69-1.81-.18-.46-.44-.76-.78-.9-.34-.14-.74-.11-1.18.08-.45.2-.89.41-1.34.61,0,.19-.02.38-.08.55-.01.04-.04.08-.05.12.57-.26,1.13-.53,1.7-.78.31-.13.56-.16.75-.08.19.08.35.28.47.59.24.59.46,1.19.68,1.79l.14.38c.23.63.77.95,1.44.86.23-.03.49,0,.76.02.18.02.37.03.56.03.52,0,1.07-.13,1.48-.75.08-.12.12-.25.15-.36.01-.05.03-.09.05-.14l.04-.11c.21-.54.41-1.08.62-1.61.15-.39.31-.61.5-.69.19-.08.46-.04.84.13.1.04.21.09.31.14.11.05.21.1.31.14.27.12.49.23.69.32,1.48.69,1.61.66,2.84-.59.18-.18.38-.39.63-.63.16-.16.24-.36.31-.53.03-.07.05-.13.09-.19l.05-.09-.09-.36c-.05-.19-.09-.36-.15-.52-.15-.35-.31-.7-.47-1.05-.13-.27-.25-.55-.38-.82-.14-.33-.17-.59-.09-.79.08-.19.28-.35.62-.49.7-.28,1.4-.55,2.11-.8.65-.24.97-.76.89-1.42-.03-.24,0-.5.02-.78.06-.65.14-1.46-.69-2.03Z"/>
  <path class="cls-1" d="M15.29,22.95c-.08-.06-.19-.07-.28-.11-.39-.14-.79-.29-1.18-.44-.48-.19-.62-.53-.42-1.01.18-.41.36-.83.57-1.23.25-.48.03-.81-.33-1.1-.42-.33-.67-1.04-1.44-.67-.42.2-.84.4-1.27.58-.45.19-.79.05-.98-.42-.19-.46-.36-.92-.53-1.38-.12-.32-.35-.49-.67-.45-.58.08-1.25-.29-1.7.35-.06.08-.07.19-.11.28-.14.38-.29.76-.43,1.14-.2.52-.53.67-1.03.46-.44-.19-.87-.4-1.31-.6-.33-.15-.62-.09-.83.18-.34.45-1.06.66-.94,1.41.01.08.07.16.1.24.18.4.37.79.54,1.19.22.5.08.83-.45,1.03-.42.16-.84.33-1.26.47-.44.15-.58.48-.52.89.07.56-.3,1.28.52,1.59.42.16.85.31,1.26.48.52.2.66.53.45,1.03-.06.14-.13.29-.2.43-.67,1.52-.73,1.16.5,2.42.26.26.54.3.87.15.42-.2.85-.4,1.27-.58.48-.21.82-.07,1.01.42.19.46.35.92.53,1.38.13.34.4.48.72.43.56-.07,1.22.28,1.65-.37.06-.08.07-.19.11-.28.14-.37.28-.73.42-1.1.22-.58.52-.7,1.08-.46.13.06.26.12.4.18,1.51.67,1.15.74,2.44-.54.11-.11.15-.27.22-.41-.05-.2-.07-.34-.13-.47-.17-.4-.36-.79-.54-1.19-.22-.51-.08-.84.43-1.04.45-.18.89-.35,1.34-.51.34-.13.49-.38.45-.71-.08-.56.28-1.22-.35-1.66ZM10.39,24.08c0,1.11-1,2.24-2,2.22-1.43-.02-2.37-1.14-2.3-2.2,0-1.22.94-2.16,2.17-2.16s2.13.95,2.14,2.14Z"/>
  <path class="cls-3" d="M13.56,23.14c-.06-.04-.12-.06-.18-.08-.02,0-.04-.01-.06-.02l-.18-.07c-.23-.08-.46-.17-.69-.26-.14-.06-.24-.13-.27-.22-.04-.09-.03-.21.04-.36.13-.3.27-.61.42-.9.28-.54-.14-.87-.28-.98-.07-.06-.14-.13-.21-.21-.22-.25-.49-.55-1-.31-.3.14-.62.29-.94.43-.13.06-.25.07-.33.03-.09-.04-.16-.13-.22-.27-.15-.36-.28-.72-.39-1.03-.11-.3-.35-.46-.64-.42-.12.02-.24,0-.38,0-.31-.03-.7-.07-.98.33-.04.06-.06.12-.07.17,0,.02-.01.04-.02.07l-.32.85c-.06.16-.14.26-.24.3-.09.04-.21.03-.35-.04-.33-.14-.65-.29-.97-.45-.31-.14-.59-.08-.78.17-.07.09-.17.17-.27.26-.24.19-.53.43-.46.9.01.06.04.11.06.16,0,.02.02.03.03.06l.09.19c.11.23.21.46.31.69.07.15.08.27.04.36-.04.09-.14.17-.31.24-.3.12-.61.24-.93.34-.36.12-.53.41-.48.81.01.1,0,.21,0,.33-.03.34-.06.75.48.96.13.05.26.1.38.14.19.07.37.14.56.21.16.06.26.14.3.23.04.09.03.21-.04.37-.03.06-.06.12-.09.19l-.06.13c-.06.13-.11.24-.15.33-.32.7-.31.76.25,1.32.08.08.18.18.29.29.23.23.5.28.8.14.31-.15.63-.29.94-.43.14-.06.26-.07.35-.04.09.04.17.13.22.28.11.28.22.56.32.85l.07.18c.11.3.36.45.68.41.11-.01.23,0,.36,0,.08,0,.17.02.26.02.25,0,.5-.06.7-.36.04-.06.06-.12.07-.17,0-.02.01-.04.02-.07l.02-.05c.1-.25.19-.51.29-.76.07-.18.15-.29.24-.33.09-.04.22-.02.4.06.05.02.1.04.15.06.05.02.1.05.15.07.13.06.23.11.33.15.7.33.76.31,1.34-.28.08-.09.18-.19.3-.3.07-.07.11-.17.15-.25.01-.03.03-.06.04-.09l.02-.04-.04-.17c-.02-.09-.04-.17-.07-.25-.07-.17-.15-.33-.22-.5-.06-.13-.12-.26-.18-.39-.07-.16-.08-.28-.04-.37.04-.09.13-.17.29-.23.33-.13.66-.26,1-.38.31-.11.46-.36.42-.67-.02-.11,0-.24,0-.37.03-.31.07-.69-.33-.96ZM13.62,24.07c-.01.14-.03.29,0,.43.02.19-.06.32-.25.39-.34.12-.67.25-1,.38-.23.09-.37.21-.44.37-.07.16-.05.35.04.58.06.13.12.26.18.39.07.16.15.33.22.49.03.06.04.13.06.2,0,.03.01.05.02.08,0,.02-.02.04-.03.06-.03.07-.05.13-.09.17-.12.11-.21.22-.3.3q-.48.49-1.04.22c-.1-.04-.2-.1-.34-.15-.05-.02-.1-.04-.14-.06-.05-.02-.1-.05-.15-.07-.25-.11-.44-.13-.6-.06-.16.07-.28.22-.38.47-.1.25-.2.51-.3.77l-.02.05s-.02.06-.03.09c-.01.04-.02.08-.04.1-.17.26-.38.25-.72.22-.09,0-.18-.02-.27-.02-.05,0-.1,0-.15,0-.19.03-.33-.05-.4-.24l-.07-.18c-.11-.29-.21-.57-.32-.85-.08-.22-.21-.36-.37-.42-.16-.07-.35-.05-.56.04-.32.14-.63.28-.95.43-.2.09-.35.07-.5-.08-.11-.12-.21-.21-.3-.3q-.46-.45-.2-1.02c.04-.1.1-.21.15-.33l.06-.13c.03-.07.06-.13.09-.2.09-.22.11-.41.04-.57-.07-.16-.21-.28-.44-.37-.19-.07-.37-.14-.56-.21-.13-.05-.25-.09-.38-.14-.34-.13-.34-.33-.31-.69.01-.13.02-.26,0-.39-.04-.27.06-.44.3-.52.32-.11.63-.23.95-.35.23-.09.38-.21.45-.38.07-.16.05-.34-.04-.57-.1-.23-.21-.46-.31-.69l-.09-.19s-.02-.05-.03-.07c-.02-.03-.03-.06-.03-.08-.05-.3.11-.44.37-.65.11-.09.22-.18.31-.3.11-.15.27-.18.45-.09.32.15.65.31.98.45.21.09.4.1.56.04.16-.07.29-.22.38-.45l.32-.85s.02-.05.03-.08c.01-.04.03-.08.04-.1.18-.26.4-.25.74-.22.14.01.29.03.44,0,.17-.02.29.06.36.25.11.31.24.67.39,1.03.08.21.2.35.36.41.16.07.34.06.54-.03.33-.14.65-.29.95-.43.32-.15.46-.01.69.24.07.08.15.17.24.24.28.22.33.41.21.65-.15.3-.29.61-.43.92-.09.21-.1.4-.04.56.07.16.21.28.42.37.23.09.47.18.7.26l.18.07s.05.02.08.03c.04.01.08.02.1.04h0c.25.18.25.39.21.72Z"/>
</svg>