<?xml version="1.0" encoding="utf-8"?>
<!-- Generator: Adobe Illustrator 28.3.0, SVG Export Plug-In . SVG Version: 6.00 Build 0)  -->
<svg version="1.1" id="Layer_1" xmlns="http://www.w3.org/2000/svg" xmlns:xlink="http://www.w3.org/1999/xlink" x="0px" y="0px"
	 viewBox="0 0 30.9 28.5" style="enable-background:new 0 0 30.9 28.5;" xml:space="preserve">
<style type="text/css">
	.st0{fill:#23213D;}
	.st1{fill:#5C3942;}
	.st2{fill:none;stroke:#F2F2F2;stroke-miterlimit:10;}
	.st3{fill:#F2F2F0;stroke:#F2F2F2;stroke-miterlimit:10;}
	.st4{fill:#F2F2F0;}
	.st5{enable-background:new    ;}
	.st6{font-family:'ComicSansMS';}
	.st7{font-size:4px;}
</style>
<path class="st0" d="M10.2,27.5c-0.9,0-1.7-0.5-2.2-1.2L1.3,14.7C0.6,13.5,1,12,2.2,11.3l17.2-9.9C19.8,1.1,20.2,1,20.7,1
	c0.9,0,1.7,0.5,2.2,1.2l6.7,11.6c0.7,1.2,0.3,2.7-0.9,3.4l-17.2,9.9C11.1,27.4,10.6,27.5,10.2,27.5L10.2,27.5z"/>
<path class="st1" d="M20.7,1.5L20.7,1.5c0.7,0,1.4,0.4,1.7,1l6.7,11.6c0.5,1,0.2,2.2-0.7,2.7l-17.2,9.9c-0.3,0.2-0.6,0.3-1,0.3
	c-0.7,0-1.4-0.4-1.7-1L1.8,14.4c-0.5-1-0.2-2.2,0.7-2.7l17.2-9.9C20,1.6,20.3,1.5,20.7,1.5 M20.7,0.5c-0.5,0-1,0.1-1.5,0.4L2,10.8
	c-1.4,0.8-1.9,2.7-1.1,4.1l6.7,11.6c0.6,1,1.6,1.5,2.6,1.5c0.5,0,1-0.1,1.5-0.4l17.2-9.9c1.4-0.8,1.9-2.7,1.1-4.1L23.3,2
	C22.7,1,21.7,0.5,20.7,0.5L20.7,0.5z"/>
<rect x="5.4" y="12.2" class="st2" width="3.7" height="3.7"/>
<circle class="st2" cx="15" cy="19.1" r="2.2"/>
<circle class="st3" cx="15.3" cy="9.8" r="1.1"/>
<circle class="st3" cx="23.4" cy="13.4" r="1.6"/>
<circle class="st3" cx="20.3" cy="5.2" r="0.7"/>
<path class="st3" d="M16,9.3c1.3-1.2,2.6-2.5,4-3.7"/>
<path class="st3" d="M15.8,10.3c2,0.9,4,1.8,6.1,2.7"/>
<path class="st4" d="M7.7,20.2c-0.2,0-1,0-1-0.1C6.6,20,7.1,20,7.2,19.8c0.1-0.5,0.1-1.3,0-1.7c-0.1-0.2-0.4,0.1-0.6-0.2
	c0-0.1,0.7-0.7,0.9-0.5c0.1,0.1,0.1,0.2,0.1,0.3c-0.1,0.7-0.1,1.1-0.1,1.6c0,0.1,0,0.2,0,0.3c0,0,0,0.1,0.1,0.2
	c0.1,0.2,0.3,0.2,0.3,0.2c0.1,0.1,0.1,0.2,0,0.2L7.7,20.2z"/>
<path class="st4" d="M13,10.4c-0.1,0.1-0.3,0.3-0.5,0.5c-0.2,0.2-0.3,0.5-0.5,0.5c-0.2,0.1-0.6-0.3-0.7-0.7
	c-0.1-0.4,0.1-0.9,0.1-1.2c0.1-0.5-0.4-0.8-0.8-0.3c-0.1,0.1-0.4,0.8-0.5,0.4c-0.1-1,1.3-1.8,1.7-0.6c0.2,0.4-0.1,0.9-0.1,1.3
	c0.1,1,0.5,0.3,0.9-0.1c0.3-0.2,0.5,0,0.4,0.1L13,10.4z"/>
<g class="st5">
	<text transform="matrix(1 0 0 1 19.96 19.78)" class="st4 st6 st7">3</text>
</g>
</svg>
