<?xml version="1.0" encoding="UTF-8"?>
<svg id="Layer_2" data-name="Layer 2" xmlns="http://www.w3.org/2000/svg" viewBox="0 0 31.6 32.07">
  <defs>
    <style>
      .cls-1 {
        stroke-width: .75px;
      }

      .cls-1, .cls-2 {
        fill: #955949;
        stroke: #5c3942;
      }

      .cls-3 {
        fill: #5a8039;
        stroke: #37622f;
      }

      .cls-3, .cls-2 {
        stroke-width: .25px;
      }
    </style>
  </defs>
  <g id="Layer_1-2" data-name="Layer 1">
    <path class="cls-1" d="M8.18,13.85C11.68,7.53,16.62,2.97,23.29.35c-6.73,5.64-11.56,12.63-14.88,20.8-.48-.78-.92-1.51-1.38-2.22-1.73-2.63-3.6-5.14-6.04-7.18-.66-.55-.78-1.13-.42-1.9.4-.87,1.09-1.43,1.97-1.76.67-.25,1.18.07,1.56.53,1.18,1.4,2.32,2.84,3.47,4.27.21.27.37.57.61.96Z"/>
    <path class="cls-1" d="M30.32,27.77c-.26.73-.48,1.47-.72,2.27-2.14-2.86-4.47-5.46-7.04-7.76-1.85,2.79-3.4,5.78-4.71,8.97-.43-.7-.83-1.36-1.24-2.01-.77-1.15.94-4.79,1.05-4.6.83-1.5,1.76-2.89,2.76-4.17-2.63-2.09-5.49-3.86-8.6-5.36,3.77.46,7.17,1.64,10.23,3.5,2.57-2.7,5.65-4.79,9.3-6.22-2.75,2.3-5.14,4.84-7.2,7.63,1.4,1.04,2.73,2.22,3.99,3.56.06-.21,2.6,2.89,2.17,4.2h.01Z"/>
    <g>
      <path class="cls-2" d="M19.18,8.59c-1.8-.28-3.26-.19-4.45.2-.06-.14-.11-.27-.18-.4-.23-.48,3.02-.39,4.63.19h0Z"/>
      <path class="cls-3" d="M16.5,8.2c.82,0,1.24.02,1.24.08s-.46.14-1.38.27c.26.31.61.56,1.03.69,1.25.4,2.58-.28,2.99-1.53.54-1.7-1.34-3.07-1.53-2.99-.14.07.44.88.1,1.34-.5.68-2.46-.47-3.07.21-.21.23-.31.72.21,1.88l.43.07-.02-.02Z"/>
    </g>
    <g>
      <path class="cls-2" d="M15.38,20.86c.82,1.84,1.78,3.14,2.86,4.01-.09.14-.18.27-.26.4-.31.5-2.17-2.57-2.6-4.41Z"/>
      <path class="cls-3" d="M16.63,23.58c-.5-.76-.72-1.16-.68-1.2.05-.04.41.34,1.08,1.13.13-.43.15-.9.02-1.37-.38-1.4-1.82-2.23-3.22-1.85-1.9.51-2.05,3.09-1.85,3.22.15.08.55-.93,1.18-.9.94.05,1.05,2.57,2.03,2.73.34.05.85-.15,1.62-1.32l-.19-.44h.01Z"/>
    </g>
  </g>
</svg>