<?xml version="1.0" encoding="utf-8"?>
<!-- Generator: Adobe Illustrator 28.3.0, SVG Export Plug-In . SVG Version: 6.00 Build 0)  -->
<svg version="1.1" id="Layer_2_00000029739818027893505620000003833562495427051707_"
	 xmlns="http://www.w3.org/2000/svg" xmlns:xlink="http://www.w3.org/1999/xlink" x="0px" y="0px" viewBox="0 0 31.6 32.1"
	 style="enable-background:new 0 0 31.6 32.1;" xml:space="preserve">
<style type="text/css">
	.st0{fill:#955949;stroke:#5C3942;stroke-width:0.5;}
</style>
<path class="st0" d="M8.2,13.9C11.7,7.6,16.6,3,23.3,0.4C16.6,6,11.7,13,8.4,21.2C7.9,20.4,7.5,19.7,7,19c-1.7-2.6-3.6-5.1-6-7.2
	c-0.7-0.6-0.8-1.1-0.4-1.9C1,9,1.7,8.5,2.5,8.1c0.7-0.2,1.2,0.1,1.6,0.5c1.2,1.4,2.3,2.8,3.5,4.3C7.8,13.2,7.9,13.5,8.2,13.9z"/>
<path class="st0" d="M25.2,29.7c-0.5,0.6-0.9,1.2-1.4,1.8c-0.8-3.3-1.9-6.5-3.2-9.4c-2.6,1.9-5,4-7.3,6.5c-0.1-0.8-0.2-1.5-0.3-2.2
	c-0.2-1.3,2.5-4,2.6-3.8c1.3-1.1,2.5-2,3.9-2.8C17.8,17,16,14.4,13.9,12c3.1,1.7,5.6,3.9,7.5,6.7c3.2-1.6,6.6-2.4,10.2-2.4
	c-3.2,1.1-6.1,2.6-8.9,4.4c0.8,1.4,1.5,2.9,2.1,4.6C25,25,26,28.7,25.2,29.7L25.2,29.7L25.2,29.7z"/>
</svg>
