<?xml version="1.0" encoding="utf-8"?>
<!-- Generator: Adobe Illustrator 28.3.0, SVG Export Plug-In . SVG Version: 6.00 Build 0)  -->
<svg version="1.1" id="Layer_1" xmlns="http://www.w3.org/2000/svg" xmlns:xlink="http://www.w3.org/1999/xlink" x="0px" y="0px"
	 viewBox="0 0 28.3 28.9" style="enable-background:new 0 0 28.3 28.9;" xml:space="preserve">
<style type="text/css">
	.st0{fill:#597F39;}
	.st1{fill:#82AB40;}
</style>
<path class="st0" d="M0.9,24c1.3-1.3,3.5-1.3,4.8,0c1.6,1.6,1,4.4,0,4.8c-1.2,0.5-2.9-2.3-4.1-1.8c-0.7,0.4-0.5,1.8-0.7,1.8
	C0.6,28.9-0.9,25.9,0.9,24z"/>
<path class="st1" d="M1.4,24.7c1.3-1.3,4-1.3,5,0.2c0.9,1.4,0.3,3.6-0.7,3.9c-1.3,0.5-3-2.3-4.1-1.8c-0.7,0.4-0.6,1.8-0.7,1.8
	C0.7,28.8-0.1,26.2,1.4,24.7L1.4,24.7z"/>
<g>
	<path class="st0" d="M15.1,0.1C14.5,0.7,18.9,4,17.9,7C16.4,11.6,3.8,8.8,2,13.3c-0.9,2.2,0.9,6.5,4.3,9.6c2.2-0.8,4.7-1.1,6.9-1.8
		l-0.8-2.2l0,0c-0.2-1-0.1-2.1,0.3-3.1l0.7-1.3l0.1,0l-0.6,1.4c-0.2,0.8-0.2,2.2,0.1,2.8l1.2,2.1c1.3-0.5,2.5-1.3,3.5-2.5
		c1.1-1.2,3.9-4.5,5-5.8l0.1,0.1l-2.9,4.3c-0.3,0.4-0.5,0.8-0.8,1.2c1.1,0.4,2,1,3,1c1.1-0.1,2.7-0.6,3.8-0.8l0,0.1
		c-2.1,0.6-3.7,1.7-5.8,0.9c-0.5-0.2-1.1-0.4-1.6-0.5c-0.6,0.8-1.2,1.6-1.9,2.2c-2.3,1.9-5.4,2.5-8.1,3.6c1.9,1.2,4.2,1.9,6.6,1.9
		c7.3,0,13.2-5.9,13.2-13.2C28.3,3.4,16-0.7,15.1,0.1z"/>
	<polygon class="st0" points="28.3,13.3 28.3,13.3 28.3,13.3 	"/>
</g>
<path class="st1" d="M28.3,13.3c0-9.9-9.5-12.5-10.3-11.6c-0.6,0.6,3.5,5.8,2.5,8.7c-1.5,4.7-15.3,0-17.1,4.4
	c-0.9,2.1,0.2,5.5,2.8,8.1c2.3-0.8,4.8-1.1,7-1.8l-0.8-2.2l0,0c-0.2-1-0.1-2.1,0.3-3.1l0.7-1.3l0.1,0l-0.6,1.4
	c-0.2,0.8-0.2,2.2,0.1,2.8l1.2,2.1c1.3-0.5,2.5-1.3,3.5-2.5c1.1-1.2,3.9-4.5,5-5.8l0.1,0.1l-2.9,4.3c-0.3,0.4-0.5,0.8-0.8,1.2
	c1.1,0.4,2,1,3,1c1.1-0.1,2.7-0.6,3.8-0.8l0,0.1c-2.1,0.6-3.7,1.7-5.8,0.9c-0.5-0.2-1.1-0.4-1.6-0.5c-0.6,0.8-1.2,1.6-1.9,2.2
	c-2.4,1.9-5.5,2.6-8.2,3.6c1.8,1.1,4.1,1.9,6.8,1.9C22.4,26.5,28.3,20.6,28.3,13.3L28.3,13.3z"/>
</svg>
