<?xml version="1.0" encoding="utf-8"?>
<!-- Generator: Adobe Illustrator 28.3.0, SVG Export Plug-In . SVG Version: 6.00 Build 0)  -->
<svg version="1.1" id="Layer_1" xmlns="http://www.w3.org/2000/svg" xmlns:xlink="http://www.w3.org/1999/xlink" x="0px" y="0px"
	 viewBox="0 0 30.9 21" style="enable-background:new 0 0 30.9 21;" xml:space="preserve">
<style type="text/css">
	.st0{fill:#DFE56C;}
	.st1{fill:#82AB40;}
	.st2{fill:#955949;}
	.st3{fill:#5C3942;}
</style>
<path class="st0" d="M27.4,18.5c-3.6,3-8.9,2.5-11.9-1c-3,3.6-8.3,4-11.9,1c-3.6-3-4-8.3-1-11.9c0.8-1,1.8-1.7,2.9-2.2
	c0.8-0.9,1.7-1.7,2.9-2.2s2.4-0.8,3.6-0.8c0,0,0,0,0,0c1.1-0.5,2.3-0.8,3.6-0.8s2.5,0.3,3.6,0.8h0c1.2,0,2.4,0.2,3.6,0.8
	c1.1,0.5,2.1,1.3,2.9,2.2c1.1,0.5,2.1,1.2,2.9,2.2C31.3,10.2,30.9,15.5,27.4,18.5L27.4,18.5z"/>
<path class="st1" d="M28.8,6.2c-0.8-1-1.8-1.8-3-2.3c-0.8-1-1.8-1.7-3-2.3s-2.4-0.8-3.7-0.8C18,0.3,16.8,0,15.4,0s-2.6,0.3-3.7,0.8
	c-1.2,0-2.5,0.3-3.7,0.8C6.9,2.2,5.9,3,5.1,3.9c-1.1,0.5-2.1,1.3-3,2.3c-3.2,3.8-2.7,9.5,1.1,12.7C4.9,20.3,6.9,21,9,21
	c2.4,0,4.7-0.9,6.5-2.7c1.7,1.8,4.1,2.7,6.5,2.7c2,0,4.1-0.7,5.8-2.1c1.8-1.5,3-3.7,3.2-6.1C31.1,10.4,30.3,8.1,28.8,6.2L28.8,6.2z
	 M26.4,7.1c0.3,0.9,0.5,1.8,0.5,2.7c0,1.1-0.2,2.3-0.7,3.3c-0.9,1.9-2.5,3.3-4.4,4.1c-1.2,0.4-2.4,0.6-3.6,0.4
	c3.7-1.1,6.4-4.6,6.4-8.6c0-1.8-0.5-3.4-1.4-4.8c0.7,0.1,1.4,0.3,2,0.6C25.7,5.5,26.1,6.3,26.4,7.1L26.4,7.1z M20,6
	c-0.2-0.5-0.5-1-0.8-1.4c0.8-0.3,1.6-0.4,2.4-0.5c1.1,1.3,1.7,3,1.7,4.9c0,3.5-2.3,6.4-5.4,7.5c1.9-1.7,3-4.2,3-6.7
	C20.9,8.5,20.6,7.2,20,6L20,6z M22.4,2.7c0.3,0.1,0.6,0.3,0.8,0.5c-0.2,0-0.3-0.1-0.5-0.1c-0.2,0-0.4,0-0.5,0
	c-0.2-0.3-0.5-0.5-0.7-0.7C21.8,2.4,22.1,2.5,22.4,2.7z M18.9,1.9c0.6,0.3,1.2,0.7,1.8,1.2c-0.7,0.1-1.5,0.3-2.2,0.6
	c-0.5-0.6-1.1-1-1.7-1.5C17.5,2,18.2,1.9,18.9,1.9z M17.4,4.2c-0.5,0.3-0.9,0.6-1.3,0.9c-0.2,0.2-0.5,0.4-0.7,0.6
	c-0.2-0.2-0.4-0.4-0.7-0.6c-0.4-0.3-0.8-0.7-1.3-0.9c0.6-0.6,1.2-1.1,2-1.4c0.2,0.1,0.4,0.2,0.6,0.3C16.6,3.4,17,3.8,17.4,4.2
	L17.4,4.2z M15.4,1.1c0.3,0,0.6,0,1,0.1c-0.3,0.1-0.6,0.2-1,0.4c-0.3-0.1-0.6-0.2-0.9-0.4C14.8,1.1,15.1,1.1,15.4,1.1z M12,1.9
	c0.7,0,1.4,0.1,2.1,0.3c-0.6,0.4-1.2,0.9-1.7,1.5c-0.7-0.3-1.4-0.5-2.2-0.6C10.8,2.6,11.4,2.2,12,1.9z M10.6,12.9
	c0.5,1.4,1.4,2.6,2.4,3.6c-3.1-1-5.4-4-5.4-7.5c0-1.8,0.6-3.5,1.7-4.8c0.8,0,1.6,0.2,2.4,0.4C11.4,5,11.1,5.5,10.9,6
	C9.9,8.1,9.8,10.6,10.6,12.9L10.6,12.9z M8.6,2.7c0.3-0.1,0.6-0.2,0.9-0.3C9.2,2.5,9,2.8,8.7,3C8.6,3,8.4,3,8.2,3
	c-0.2,0-0.3,0-0.5,0.1C8,2.9,8.3,2.8,8.6,2.7z M5.8,4.8c0.7-0.3,1.3-0.5,2-0.6C6.9,5.6,6.5,7.3,6.5,9c0,4.1,2.7,7.5,6.4,8.6
	c-1.2,0.2-2.5,0-3.6-0.4c-2-0.7-3.6-2.2-4.4-4.1C3.5,10.3,3.9,7.1,5.8,4.8L5.8,4.8z M3.9,18c-3.3-2.8-3.8-7.8-1-11.1
	c0.2-0.2,0.4-0.5,0.7-0.7c-1,2.3-1,4.9,0.1,7.3c1,2.2,2.8,3.8,5.1,4.7c1,0.4,2.1,0.5,3.1,0.5c0.4,0,0.8,0,1.3-0.1
	C10.3,20.4,6.6,20.3,3.9,18L3.9,18z M11.6,12.5c-0.7-2-0.6-4.1,0.3-6c0.2-0.5,0.5-1,0.8-1.4c0.5,0.2,0.9,0.6,1.3,0.9
	c0.2,0.2,0.5,0.4,0.7,0.6c-1,1.3-1.6,2.9-1.8,4.6c-0.1,1.5,0.1,3,0.7,4.3C12.7,14.7,12,13.7,11.6,12.5z M15.4,16.5
	c-1.1-1.5-1.5-3.3-1.4-5.2c0.1-1.4,0.6-2.7,1.4-3.8c0.8,1.1,1.3,2.4,1.4,3.8C17,13.2,16.5,15,15.4,16.5z M18,11.2
	c-0.1-1.7-0.8-3.3-1.8-4.6c0.2-0.2,0.4-0.4,0.7-0.6c0.4-0.3,0.9-0.7,1.3-0.9C18.5,5.5,18.8,6,19,6.5c1.5,3.2,0.7,6.8-1.8,9.1
	C17.8,14.2,18.1,12.7,18,11.2L18,11.2z M29.8,12.7c-0.2,2.1-1.2,4-2.8,5.3c-2.7,2.2-6.4,2.4-9.2,0.6c0.4,0.1,0.8,0.1,1.2,0.1
	c1,0,2.1-0.2,3.1-0.5c2.2-0.8,4.1-2.5,5.1-4.7c1-2.2,1.1-4.6,0.3-6.9c-0.1-0.2-0.1-0.3-0.2-0.5c0.2,0.2,0.5,0.4,0.7,0.7
	C29.3,8.6,29.9,10.6,29.8,12.7L29.8,12.7z"/>
<g>
	<path class="st2" d="M15.5,17.2c-0.1,0-0.1,0-0.2,0c-0.1-0.1-0.3-0.2-0.3-0.3c0,0,0-0.1,0-0.1c-0.1-0.2-0.1-0.4-0.1-0.6
		c0.1-0.2,0.2-0.5,0.2-0.7c0.1-0.3,0.2-0.6,0.3-0.9c0.2-0.8,0-1.5-0.5-2.5c-0.1-0.2-0.2-0.5-0.4-0.7c-0.1,0.2-0.1,0.5-0.2,0.7
		c-0.2,0.6-0.7,0.9-1.3,0.9c0,0,0,0,0,0c-0.2,0-0.4-0.1-0.5-0.4c-0.1-0.4,0-0.8,0.3-1.2c0.1-0.1,0.2-0.4,0.3-0.7
		c0.1-0.6,0.3-1.3,1.1-1.7c0-0.2,0.1-0.5,0.2-0.7c0.1-0.5,0.3-1,0.6-1.5c0.3-0.6,0.4-1,0.3-1.4c-0.5,0.9-1.2,1.5-2,2.1
		c-0.5,0.3-1,0.7-1.5,1.1c-0.4,0.3-0.6,0.7-0.4,1.2c0.3,0.8,0.6,1.6,0.9,2.4c0.4,1,0.4,1.8-0.1,2.6c-0.1,0.2-0.5,0.5-0.8,0.5
		c-0.1,0-0.1,0-0.2,0c-0.2-0.1-0.4-0.2-0.5-0.4c-0.1-0.2-0.1-0.5,0.1-0.8c0.2-0.4,0.2-0.8,0-1.3c-0.1-0.3-0.3-0.6-0.4-0.9l0,0
		c-0.5,0.2-1,0.5-1.5,0.8c-0.1,0.1-0.3,0.1-0.5,0.1c0,0-0.1,0-0.1,0c-0.2,0-0.3-0.1-0.4-0.2c-0.1-0.1-0.2-0.2-0.3-0.3
		s-0.1-0.3,0-0.4c0.1-0.2,0.2-0.4,0.4-0.6c0.2-0.1,0.3-0.1,0.5-0.2c0.1,0,0.2-0.1,0.3-0.1c0.2-0.1,0.5-0.2,0.7-0.4
		c0.4-0.3,0.4-0.4,0.4-0.7c-0.2-0.9,0.1-1.8,0.9-2.4c0.6-0.4,1.2-0.9,1.8-1.3c0.4-0.3,0.8-0.7,1.2-1.1c-0.7,0.3-1.4,0.4-2.1,0.4
		c-0.1,0-0.2,0-0.3,0h-0.1c-0.2,0-0.3,0-0.4,0.4c-0.1,0.3-0.2,0.6-0.3,0.9c-0.1,0.3-0.1,0.6-0.2,0.9c-0.4,1.4-1.3,2.5-2.6,3
		c-0.1,0-0.2,0.1-0.3,0.1c-0.2,0-0.3-0.1-0.4-0.1c0,0-0.1,0-0.1,0c-0.2,0-0.3-0.1-0.3-0.3s-0.1-0.3,0-0.4c0,0,0-0.1,0-0.1
		c0.1-0.2,0.2-0.4,0.4-0.6c0.9-0.4,1.5-1.1,1.8-2.2C8,7,7.4,7.2,6.9,7.2C6.4,7.2,6,7.1,5.6,6.9C5.3,6.8,5.1,6.7,4.9,6.5
		C4.8,6.5,4.4,6.3,4.4,5.9c0-0.2,0.1-0.4,0.2-0.6C4.8,5.1,5,5.1,5.2,5.1c0.1,0,0.4,0,0.6,0.2c0.3,0.2,0.7,0.3,1,0.3
		c0.1,0,0.3,0,0.4-0.1C7.5,5.5,7.8,5.4,8,5.2C8.2,5.1,8.4,5,8.6,4.9c0.4-0.2,0.8-0.4,1-0.8c0.3-0.4,0.9-0.6,1.4-0.6
		c0.2,0,0.2,0,0.3,0c1.1,0,2.1-0.4,3.1-1.2c0,0,0.1-0.1,0.1-0.2C14.6,2.1,14.6,2,14.7,2c0.1-0.1,0.3-0.4,0.6-0.4l0,0
		c0.4,0,0.6,0.2,0.8,0.5c0.5,0.9,1.5,1.5,2.5,1.5c0.1,0,0.3,0,0.3,0c0.1,0,0.2,0,0.3,0c0.3-0.1,0.7-0.1,1-0.1c0.9,0,1.8,0.2,2.7,0.8
		c0.5,0.3,1,0.5,1.4,0.6c0.2,0.1,0.4,0.1,0.6,0.1c0.2,0,0.3,0,0.5,0c0.2,0,0.3,0.1,0.5,0.2L26,5c0.1,0.1,0.2,0.2,0.3,0.3
		c0,0.1,0,0.3,0,0.4c0,0,0,0.1,0,0.1C26.1,6,26,6.3,25.7,6.4l-0.1,0c-0.2,0-0.5,0.1-0.7,0.1c-0.2,0-0.3,0-0.5-0.1
		c-0.6-0.2-1.1-0.4-1.6-0.6c-0.2-0.1-0.5-0.2-0.7-0.3c-0.2-0.1-0.3-0.1-0.5-0.2l0.4,0.8c0.1,0.2,0.3,0.3,0.7,0.3h0.1
		c0.1,0,0.3,0,0.4,0.1c0.2,0.1,0.3,0.2,0.4,0.3c0.1,0.1,0.2,0.3,0.2,0.4c0,0.1,0,0.3-0.1,0.4C23.4,7.8,23.2,8,23,8
		c-0.1,0-0.3,0-0.4,0c-1,0-1.8-0.5-2.2-1.4c-0.1-0.2-0.1-0.3-0.2-0.5c-0.2-0.4-0.3-0.8-0.6-1c-0.1-0.1-0.2-0.1-0.2-0.1
		c-0.2,0-0.4,0-0.6,0c-0.7,0-1.3-0.1-1.9-0.4c0,0.1,0,0.1,0.1,0.2c1,0.4,1.6,1.2,1.9,2.4c0.2,0.7,0.2,0.7,0.9,0.7c0,0,1.1,0,1.2,0
		c0.3,0,0.6,0,0.8,0c0.9,0.1,1.6,0.6,2,1.3c0.1,0.3,0.2,0.9-0.2,1.2c-0.1,0.1-0.3,0.2-0.5,0.2c-0.5,0-0.7-0.4-0.8-0.6
		c-0.2-0.4-0.5-0.5-1.1-0.6c-0.1,0-0.1,0-0.2,0c-0.2,0-0.3,0-0.5,0c-0.2,0-0.4,0-0.6,0c-0.1,0-0.2,0-0.4,0c0.4,0.7,0.8,1.3,1.5,1.8
		c0.1,0.1,0.3,0.1,0.4,0.1c0.1,0,0.1,0,0.2,0c0,0,0.1,0,0.2,0c0.2,0,0.4,0.1,0.5,0.1c0,0,0.1,0,0.1,0c0.1,0.1,0.3,0.2,0.3,0.3
		c0,0.1,0,0.3,0,0.4c0,0,0,0.1,0,0.1c-0.1,0.1-0.2,0.4-0.4,0.5C21.9,13,21.6,13,21.4,13c-0.3,0-0.6-0.1-0.9-0.3
		c-0.5-0.3-1-0.7-1.4-1.1c-0.9-1-1.5-2.3-1.9-3.8c-0.1-0.7-0.4-1.1-0.7-1.3l-0.1,0.4c-0.3,0.8-0.5,1.6-0.8,2.5c0,0.1,0,0.3,0.1,0.7
		c0.1,0.3,0.3,0.6,0.4,0.9c0.1,0.3,0.3,0.6,0.4,0.9c0.6,1.5,0.5,3-0.4,4.8c-0.1,0.3-0.4,0.4-0.5,0.4C15.7,17.1,15.6,17.1,15.5,17.2
		L15.5,17.2z"/>
	<path class="st3" d="M15.4,2.1c0.1,0,0.2,0.1,0.3,0.2c0.5,1.1,1.8,1.8,3,1.8c0.1,0,0.1,0,0.2,0c0.2,0,0.3,0,0.5-0.1
		c0.3-0.1,0.6-0.1,0.9-0.1c0.9,0,1.7,0.3,2.5,0.7c0.5,0.3,1,0.5,1.5,0.7c0.4,0.1,0.8,0.1,1.2,0.1c0.1,0,0.3,0.1,0.4,0.2
		c-0.1,0.1-0.1,0.4-0.2,0.4C25.3,6,25.1,6,24.8,6c-0.1,0-0.2,0-0.3,0c-0.8-0.2-1.6-0.6-2.3-0.9c-0.5-0.2-1.1-0.4-1.7-0.7
		c0.4,0.8,0.7,1.4,1,2c0.2,0.4,0.6,0.5,1.1,0.6c0,0,0.1,0,0.1,0c0,0,0,0,0.1,0c0.1,0,0.2,0,0.2,0c0.1,0.1,0.2,0.2,0.3,0.3
		c-0.1,0.1-0.2,0.2-0.3,0.3c-0.1,0-0.2,0-0.3,0c-0.8,0-1.4-0.4-1.8-1.1c-0.3-0.6-0.4-1.2-1-1.6c-0.1-0.1-0.3-0.2-0.5-0.2
		c0,0,0,0,0,0c-0.2,0-0.4,0-0.6,0c-1,0-1.8-0.3-2.6-0.9c0,0-0.1,0-0.2-0.1c0.2,0.6,0.4,1.1,0.6,1.6c0,0.1,0.1,0.1,0.2,0.1
		c0.9,0.4,1.4,1.1,1.6,2c0.2,0.9,0.5,1.1,1.4,1.1c0,0,0.1,0,0.1,0c0.4,0,0.8,0,1.1,0c0.3,0,0.5,0,0.8,0c0.7,0.1,1.3,0.4,1.6,1.1
		c0.1,0.2,0.1,0.5,0,0.6c-0.1,0.1-0.1,0.1-0.2,0.1c-0.1,0-0.2-0.2-0.3-0.3c-0.3-0.6-0.9-0.8-1.6-0.8c-0.1,0-0.1,0-0.2,0
		c-0.4,0-0.7,0.1-1.1,0.1l0,0c-0.4,0-0.7,0-1.2-0.1c0.5,1.1,1,2.1,2,2.7c0.2,0.1,0.5,0.2,0.7,0.2c0.1,0,0.2,0,0.3-0.1c0,0,0,0,0,0
		c0.1,0,0.3,0.1,0.4,0.1c-0.1,0.1-0.1,0.3-0.3,0.4c-0.2,0.1-0.4,0.1-0.5,0.1c-0.2,0-0.4-0.1-0.6-0.2c-0.5-0.3-0.9-0.6-1.3-1.1
		c-0.9-1-1.4-2.2-1.7-3.6c-0.2-0.7-0.4-1.4-1.1-1.8c-0.1,0-0.1-0.1-0.3-0.1c-0.4,1.2-0.8,2.3-1.1,3.5c-0.1,0.3,0,0.7,0.2,1.1
		c0.2,0.6,0.6,1.1,0.8,1.8c0.6,1.5,0.3,3-0.3,4.4c-0.1,0.1-0.3,0.1-0.4,0.2c0-0.2-0.1-0.3-0.1-0.5c0.2-0.6,0.4-1.1,0.5-1.7
		c0.2-1-0.1-1.9-0.5-2.8c-0.3-0.6-0.6-1.1-0.9-1.8c-0.1,0.3-0.2,0.5-0.3,0.7c-0.1,0.4-0.2,0.7-0.3,1.1c-0.1,0.4-0.4,0.6-0.9,0.6
		c-0.1-0.3,0-0.5,0.2-0.7c0.2-0.2,0.3-0.6,0.4-1c0.1-0.6,0.3-1.1,0.8-1.4c0.1-0.1,0.1-0.2,0.2-0.2c0.2-0.7,0.4-1.5,0.8-2.2
		C15.8,5.9,16,5,15.3,4.1c-0.1,0.1-0.1,0.2-0.2,0.3c-0.5,1-1.2,1.8-2.1,2.4c-0.5,0.3-1.1,0.7-1.6,1.1c-0.6,0.4-0.8,1-0.6,1.8
		c0.3,0.8,0.6,1.6,0.9,2.4c0.3,0.8,0.3,1.5-0.1,2.2c-0.1,0.1-0.3,0.3-0.4,0.3c0,0,0,0,0,0c-0.3-0.1-0.2-0.3-0.1-0.5
		c0.3-0.6,0.3-1.2,0-1.8c-0.2-0.5-0.4-1-0.6-1.4c-0.7,0.3-1.3,0.7-2,1c-0.1,0-0.2,0.1-0.3,0.1c0,0,0,0,0,0c-0.1,0-0.2-0.1-0.4-0.2
		c0.1-0.1,0.1-0.3,0.2-0.4c0.3-0.1,0.6-0.2,0.8-0.3c0.3-0.1,0.5-0.3,0.8-0.4c0.4-0.3,0.7-0.6,0.6-1.2c-0.2-0.7,0.1-1.4,0.7-1.9
		c0.6-0.4,1.2-0.9,1.8-1.3c1-0.7,1.6-1.6,2.2-2.8c-0.2,0.1-0.3,0.2-0.4,0.2c-0.9,0.6-1.9,0.9-3,0.9c-0.1,0-0.2,0-0.3,0
		c-0.1,0-0.1,0-0.1,0c-0.5,0-0.7,0.2-0.9,0.7C9.9,6.1,9.8,6.7,9.6,7.3C9.2,8.5,8.5,9.5,7.3,10c0,0-0.1,0-0.1,0
		c-0.1,0-0.3-0.1-0.4-0.1C6.9,9.7,6.9,9.5,7,9.5c1.2-0.6,1.8-1.6,2.2-2.8c0.1-0.2,0.1-0.5,0.2-0.8C9.2,5.9,9,6,8.9,6.1
		C8.2,6.5,7.6,6.7,6.9,6.7c-0.3,0-0.7-0.1-1.1-0.2C5.6,6.5,5.4,6.3,5.2,6.2C5.1,6.1,4.9,5.9,5.1,5.7c0,0,0.1-0.1,0.2-0.1
		c0.1,0,0.2,0,0.3,0.1C6,6,6.4,6.1,6.9,6.1c0.2,0,0.3,0,0.5-0.1C7.7,6,8.1,5.9,8.3,5.7C8.9,5.4,9.6,5.1,10,4.5
		c0.2-0.2,0.6-0.4,0.9-0.4c0,0,0,0,0.1,0c0.1,0,0.2,0,0.3,0c1.3,0,2.4-0.5,3.4-1.3c0.1-0.1,0.2-0.3,0.4-0.5
		C15.2,2.3,15.3,2.1,15.4,2.1L15.4,2.1 M15.4,1.1C15.4,1.1,15.3,1.1,15.4,1.1c-0.6,0-0.9,0.4-1.1,0.6c-0.1,0.1-0.1,0.2-0.2,0.3
		c0,0,0,0,0,0c-0.9,0.7-1.8,1.1-2.8,1.1c-0.1,0-0.1,0-0.2,0c0,0-0.1,0-0.1,0c-0.5,0-1.3,0.2-1.8,0.8C9,4.1,8.7,4.3,8.4,4.5
		C8.2,4.6,7.9,4.7,7.8,4.8C7.6,4.9,7.4,5,7.2,5c-0.1,0-0.2,0-0.3,0C6.6,5.1,6.3,5,6.1,4.8C5.8,4.6,5.4,4.6,5.2,4.6
		c-0.5,0-0.8,0.2-0.9,0.3C4.1,5.2,3.9,5.6,4,5.9C4,6.3,4.3,6.7,4.7,7c0.2,0.2,0.5,0.3,0.8,0.4C6,7.6,6.4,7.7,6.9,7.7
		c0.2,0,0.5,0,0.7-0.1C7.4,8,7,8.3,6.6,8.5C6.1,8.7,6,9.1,5.9,9.3l0,0.1c-0.1,0.3-0.1,0.6,0,0.9s0.4,0.5,0.7,0.5l0,0
		c0.1,0,0.3,0.1,0.5,0.1C7,11,7,11.1,7,11.2c-0.1,0.2-0.2,0.5-0.1,0.8c0.1,0.3,0.2,0.5,0.5,0.6l0.1,0c0.1,0.1,0.3,0.2,0.6,0.3
		c0.1,0,0.2,0,0.2,0c0.3,0,0.5-0.1,0.7-0.2c0.4-0.2,0.7-0.4,1.1-0.5c0.1,0.1,0.1,0.3,0.2,0.4c0.2,0.4,0.1,0.6,0,0.9
		c-0.3,0.6-0.3,1-0.2,1.2c0.1,0.4,0.4,0.6,0.8,0.7c0.1,0,0.2,0.1,0.3,0.1c0.5,0,1-0.4,1.2-0.7c0.3-0.4,0.4-0.9,0.5-1.4
		c0,0,0.1,0,0.1,0c0,0,0.1,0,0.1,0c0.6-0.1,1.2-0.4,1.5-0.9c0.3,0.7,0.4,1.3,0.3,1.9c-0.1,0.3-0.2,0.6-0.3,0.8
		c-0.1,0.3-0.2,0.5-0.2,0.8c-0.1,0.4,0,0.7,0.1,0.9l0,0.1c0.1,0.3,0.3,0.5,0.6,0.6c0.1,0.1,0.3,0.1,0.4,0.1c0.1,0,0.3,0,0.4-0.1h0
		c0.2-0.1,0.6-0.2,0.8-0.7c0.9-1.9,1-3.6,0.4-5.2c-0.1-0.3-0.3-0.6-0.4-0.9c-0.1-0.3-0.3-0.6-0.4-0.8c-0.1-0.3-0.1-0.4-0.1-0.5
		c0.2-0.6,0.3-1.2,0.5-1.8c0,0.1,0,0.2,0.1,0.2c0.4,1.6,1,2.9,2,4c0.5,0.5,1,0.9,1.5,1.2c0.4,0.2,0.8,0.3,1.2,0.3
		c0.4,0,0.7-0.1,1-0.2c0.4-0.2,0.5-0.5,0.6-0.7l0-0.1c0.2-0.3,0.2-0.6,0.1-0.9s-0.3-0.5-0.6-0.6l0,0c-0.1-0.1-0.4-0.2-0.7-0.2
		c-0.1,0-0.2,0-0.3,0c0,0,0,0-0.1,0c0,0,0,0-0.1-0.1c-0.3-0.2-0.6-0.5-0.9-0.9c0,0,0.1,0,0.1,0c0.2,0,0.3,0,0.5,0c0,0,0.1,0,0.1,0
		c0.6,0,0.7,0.2,0.7,0.3c0.1,0.2,0.5,0.9,1.2,0.9c0.2,0,0.5-0.1,0.8-0.3c0.6-0.4,0.5-1.4,0.3-1.8c-0.1-0.3-0.3-0.6-0.6-0.8
		c0.1-0.1,0.2-0.2,0.3-0.3c0.2-0.2,0.3-0.4,0.4-0.7c0-0.2,0-0.3-0.1-0.4c0,0,0,0,0.1,0C24.4,7,24.6,7,24.9,7c0.3,0,0.6-0.1,0.8-0.1
		l0.1,0c0.6-0.1,0.8-0.6,0.9-0.8l0-0.1c0.1-0.2,0.2-0.5,0.1-0.8c-0.1-0.3-0.3-0.5-0.6-0.6c0,0,0,0-0.1,0c-0.1-0.1-0.4-0.2-0.6-0.2
		c-0.2,0-0.4,0-0.5,0c-0.2,0-0.4,0-0.5,0c-0.4-0.1-0.8-0.3-1.3-0.6c-1-0.6-2-0.8-3-0.8c-0.4,0-0.8,0-1.1,0.1c0,0-0.1,0-0.2,0h-0.1
		c0,0-0.1,0-0.1,0c-0.9,0-1.7-0.5-2.1-1.2C16.3,1.4,15.9,1.1,15.4,1.1L15.4,1.1L15.4,1.1z M18.7,5.7c0.2,0,0.4,0,0.5,0
		c0.2,0.2,0.3,0.4,0.5,0.8c0.1,0.2,0.1,0.3,0.2,0.5c0.1,0.2,0.2,0.4,0.4,0.6c-0.2,0-0.3,0-0.5,0h-0.1c-0.2,0-0.3,0-0.3,0
		c0-0.1-0.1-0.2-0.1-0.3c-0.1-0.6-0.4-1.1-0.7-1.5C18.6,5.6,18.6,5.6,18.7,5.7L18.7,5.7L18.7,5.7z M10.9,6.3C10.9,6.1,11,5.9,11,5.7
		c0,0,0,0,0-0.1c0,0,0,0,0,0c0.1,0,0.2,0,0.4,0s0.2,0,0.3,0C11.4,5.9,11.2,6.1,10.9,6.3C10.9,6.3,10.9,6.3,10.9,6.3z M12.4,11.1
		c-0.2-0.6-0.4-1.1-0.6-1.7c-0.1-0.3,0-0.4,0.2-0.6c0.5-0.4,1-0.7,1.5-1c0.2-0.2,0.5-0.3,0.7-0.5C14,7.4,14,7.7,13.9,8
		c-0.1,0.2-0.1,0.4-0.2,0.6c-0.8,0.5-1,1.4-1.1,1.9C12.5,10.9,12.4,11,12.4,11.1C12.4,11,12.4,11,12.4,11.1L12.4,11.1L12.4,11.1z"/>
</g>
</svg>
