<?xml version="1.0" encoding="UTF-8"?>
<svg id="Layer_1" data-name="Layer 1" xmlns="http://www.w3.org/2000/svg" viewBox="0 0 30.2 29.81">
  <defs>
    <style>
      .cls-1 {
        fill: #d85c9a;
      }

      .cls-1, .cls-2, .cls-3 {
        stroke-width: 0px;
      }

      .cls-2 {
        fill: #633762;
      }

      .cls-3 {
        fill: #9f4592;
      }

      .cls-4 {
        opacity: .25;
      }
    </style>
  </defs>
  <path class="cls-1" d="M29.19,15.09c.63,1.6.68,3.44-.26,4.68-1,1.32-2.76,1.5-3.24,1.54.3.62.95,1.95.47,3.25-.54,1.47-2.31,2.4-4.16,2.6-1.06,1.35-2.63,2.3-4.17,2.11-1.65-.21-2.68-1.64-2.95-2.03-.39.57-1.22,1.79-2.58,2.03-1.53.26-3.22-.8-4.32-2.29-1.7-.25-3.32-1.13-3.93-2.57-.64-1.53.09-3.14.28-3.57-.68-.05-2.16-.16-3.04-1.22-1-1.2-.92-3.19-.18-4.88-.63-1.6-.67-3.44.27-4.69,1-1.32,2.76-1.5,3.23-1.54-.3-.62-.95-1.95-.47-3.25.54-1.46,2.31-2.39,4.15-2.6,0,0,.01,0,.01,0,1.06-1.35,2.63-2.3,4.18-2.11,1.64.21,2.67,1.64,2.95,2.03.38-.57,1.21-1.79,2.57-2.03,1.54-.26,3.23.8,4.32,2.29,1.7.25,3.32,1.13,3.93,2.57.64,1.53-.09,3.14-.28,3.57.68.05,2.16.16,3.04,1.22,1,1.2.92,3.19.18,4.89Z"/>
  <g class="cls-4">
    <path class="cls-3" d="M8.05,2.24c-.3.33-.54.69-.75,1.06.4-.11.8-.18,1.21-.22.24-.33.52-.64.83-.91-.42-.02-.85,0-1.29.07ZM1.21,13.56c-.23.36-.43.74-.59,1.15.14.41.32.8.55,1.17.09-.39.23-.77.41-1.13-.16-.38-.29-.78-.37-1.19Z"/>
    <path class="cls-3" d="M29.16,14.03c-.11.39-.25.77-.43,1.13.13.33.24.66.31,1.01.23-.36.42-.74.58-1.15-.12-.35-.28-.68-.46-.99ZM22.62,2.52c-.42-.09-.85-.13-1.27-.13.24.24.46.51.66.78.4.05.81.13,1.2.26-.16-.31-.36-.62-.59-.91Z"/>
    <path class="cls-3" d="M1.21,13.56c-.23.36-.43.74-.59,1.15.14.41.32.8.55,1.17.09-.39.23-.77.41-1.13-.16-.38-.29-.78-.37-1.19ZM8.21,26.56c-.41-.04-.81-.13-1.21-.26.2.38.44.74.72,1.09.41.08.83.11,1.24.11h.05c-.3-.28-.57-.6-.8-.94Z"/>
    <path class="cls-3" d="M8.21,26.56c-.41-.04-.81-.13-1.21-.26.2.38.44.74.72,1.09.41.08.83.11,1.24.11h.05c-.3-.28-.57-.6-.8-.94ZM21.75,26.74c-.23.33-.51.63-.81.9.09.01.18.01.28.01.33,0,.67-.02,1.01-.08.28-.33.53-.68.73-1.05-.4.11-.8.18-1.21.22Z"/>
    <path class="cls-3" d="M8.05,2.24c-.3.33-.54.69-.75,1.06.4-.11.8-.18,1.21-.22.24-.33.52-.64.83-.91-.42-.02-.85,0-1.29.07ZM22.62,2.52c-.42-.09-.85-.13-1.27-.13.24.24.46.51.66.78.4.05.81.13,1.2.26-.16-.31-.36-.62-.59-.91Z"/>
    <path class="cls-3" d="M29.62,15.02c-.16.41-.35.79-.58,1.15.02.05.03.1.04.15.25,1.26.07,2.4-.53,3.18-.54.72-1.42,1.16-2.62,1.33-1.75-3.24-5.54-4.42-7.51-4.83.3.02.62.05.96.1,2.29.29,3.71,1.02,4.75,1.56.73.38,1.36.7,2,.7.34,0,.67-.08,1.03-.29.73-.41,1.38-1.08,1.88-1.9-.07-.35-.18-.68-.31-1.01-.47.98-1.16,1.81-1.94,2.26-.68.39-1.2.15-2.32-.42-1.08-.57-2.57-1.34-5-1.65-.81-.1-1.52-.13-2.09-.16-.43-.02-.77-.04-1.05-.07h-.01c-.04-.07-.1-.14-.16-.19.04-.03.08-.07.11-.11.26-.02.6-.03,1.02-.03.57,0,1.28,0,2.09-.1,2.43-.26,3.93-1.05,5.02-1.63,1.13-.6,1.61-.83,2.26-.45.86.49,1.61,1.44,2.07,2.55.18-.36.32-.74.43-1.13-.53-.95-1.24-1.73-2.05-2.19-1.11-.64-2-.17-3.12.43-1.09.57-2.45,1.29-4.7,1.53-.47.05-.89.07-1.27.08,1.61-.15,6.34-.9,8.16-4.51.7.06,1.84.24,2.53,1.07.59.71.79,1.79.57,3.05-.03.18-.07.36-.12.54.18.31.34.64.46.99.18-.45.31-.92.4-1.4.26-1.48,0-2.78-.74-3.66-.79-.95-1.98-1.22-2.79-1.31.58-1.56.38-2.69.09-3.39-.48-1.12-1.54-2.01-2.99-2.5-.32-.11-.64-.19-.97-.24.23.29.43.6.59.91.05,0,.09.02.14.04,1.25.42,2.15,1.16,2.54,2.09.36.85.3,1.87-.18,3.03-3.65-.15-6.55,2.51-7.9,4.03.15-.24.33-.49.53-.75,1.4-1.83,2.74-2.69,3.72-3.31,1.06-.69,1.9-1.22,1.9-2.49,0-.86-.27-1.78-.75-2.64-.39-.13-.8-.21-1.2-.26.66.92,1.06,1.98,1.06,2.9,0,.75-.44,1.05-1.5,1.73-1.03.67-2.45,1.58-3.94,3.53-.5.65-.88,1.25-1.19,1.74-.25.4-.45.7-.63.93-.05,0-.1.01-.14.03,0-.09-.04-.18-.07-.27h0c.11-.23.26-.5.44-.81.28-.5.63-1.11.97-1.86.98-2.21,1.04-3.9,1.08-5.14.05-1.27.1-1.84.78-2.24.67-.38,1.52-.58,2.43-.58.24,0,.47,0,.71.04-.2-.27-.42-.54-.66-.78-1.05,0-2.06.22-2.85.67-1.07.62-1.11,1.61-1.15,2.87-.05,1.23-.1,2.78-1.03,4.85-.19.43-.39.81-.58,1.16.64-1.4,2.39-5.96.21-9.36.4-.57,1.1-1.42,2.11-1.59.88-.15,1.92.22,2.87,1.01.15.12.29.25.42.39.42,0,.85.04,1.27.13-.31-.44-.69-.84-1.12-1.2-1.16-.98-2.44-1.41-3.59-1.21-1.2.2-2.02,1.07-2.52,1.72-.85-1.01-1.82-1.59-2.87-1.73-1.24-.15-2.56.33-3.73,1.36-.27.24-.52.5-.74.78.44-.07.87-.09,1.29-.07.01-.02.03-.03.04-.04.86-.76,1.8-1.16,2.68-1.16.11,0,.23,0,.34.02.89.11,1.72.65,2.47,1.6-1.75,2.84-1.21,6.28-.62,8.33-.05-.1-.1-.2-.14-.31-.89-2.12-.96-3.71-1.02-4.87-.02-.63-.05-1.2-.2-1.68-.16-.49-.44-.9-.99-1.21-.72-.42-1.61-.65-2.56-.68-.31.27-.59.58-.83.91.18,0,.37-.02.55-.02.89,0,1.74.19,2.39.56.64.37.69.9.75,2.16.06,1.23.14,2.91,1.08,5.18.32.75.65,1.39.91,1.9.25.46.43.82.53,1.1-.01.02-.02.05-.02.07-.07-.03-.13-.05-.21-.07-.15-.21-.32-.5-.53-.86-.29-.49-.66-1.1-1.14-1.76-1.43-1.97-2.87-2.88-3.92-3.53-1.08-.68-1.52-.98-1.52-1.74,0-.97.42-2.06,1.13-2.99-.41.04-.81.11-1.21.22-.52.9-.81,1.88-.81,2.77,0,1.28.85,1.82,1.93,2.49,1.05.66,2.35,1.47,3.68,3.3.04.05.08.11.11.16-1.34-1.61-3.98-4.13-7.35-3.98-.29-.64-.67-1.66-.32-2.63.31-.83,1.15-1.55,2.32-1.97.14-.05.29-.1.44-.14.21-.37.45-.73.75-1.06-.5.06-1.01.18-1.5.36-1.43.52-2.44,1.41-2.84,2.5-.42,1.14-.09,2.29.23,3.04-1.31.24-2.29.78-2.93,1.63-.76,1-1,2.38-.69,3.91.07.35.17.7.3,1.03.16-.41.36-.79.59-1.15,0-.02-.02-.04-.02-.06-.25-1.27-.07-2.4.53-3.19.54-.71,1.42-1.16,2.62-1.33,1.61,2.99,4.94,4.22,7.01,4.72-.15-.01-.3-.03-.45-.05-2.28-.29-3.69-1.03-4.73-1.56-.74-.38-1.38-.71-2.04-.71-.34,0-.69.09-1.06.3-.72.42-1.36,1.08-1.86,1.88.08.41.21.81.37,1.19.46-1,1.16-1.84,1.94-2.29.64-.38,1.12-.16,2.24.42,1.1.57,2.59,1.34,5.03,1.66.81.1,1.53.13,2.1.16.46.02.83.03,1.11.07.03.04.07.08.1.12-.04.03-.08.07-.11.11-.26.02-.6.03-1.01.03-.57,0-1.28,0-2.09.1-2.43.25-3.93,1.05-5.02,1.63-1.13.6-1.61.82-2.26.45-.84-.48-1.57-1.39-2.03-2.46-.18.36-.32.74-.41,1.13.51.9,1.21,1.65,1.99,2.1.37.22.72.31,1.07.31.67,0,1.31-.35,2.05-.74,1.09-.58,2.45-1.3,4.7-1.54.11-.01.22-.02.33-.03-2.05.33-5.7,1.33-7.26,4.39-.7-.07-1.78-.25-2.43-1.04-.57-.68-.77-1.77-.56-2.99.03-.15.06-.31.11-.46-.23-.37-.41-.76-.55-1.17-.2.47-.35.97-.44,1.48-.26,1.5,0,2.82.75,3.71.78.94,1.94,1.22,2.75,1.32-.45,1.25-.47,2.37-.06,3.36.49,1.15,1.57,2.05,3.04,2.54.35.12.7.21,1.06.27-.28-.35-.52-.71-.72-1.09-.02-.01-.04-.01-.06-.02-1.22-.41-2.11-1.14-2.49-2.05-.35-.82-.3-1.81.16-2.93,3.34.11,6.06-2.12,7.54-3.66-.07.1-.14.2-.22.3-1.4,1.83-2.74,2.69-3.72,3.32-1.06.68-1.9,1.22-1.9,2.48,0,.83.25,1.72.69,2.56.4.13.8.22,1.21.26-.63-.9-1.01-1.92-1.01-2.82,0-.74.44-1.05,1.5-1.73,1.03-.66,2.45-1.57,3.94-3.52.5-.66.88-1.26,1.19-1.74.25-.4.45-.71.62-.93.05,0,.1-.01.15-.03,0,.05.02.09.03.14-.11.24-.27.53-.47.9-.28.5-.63,1.11-.96,1.87-.99,2.22-1.05,3.92-1.1,5.16-.04,1.27-.09,1.8-.74,2.18-.83.48-1.99.66-3.15.52.23.34.5.66.8.94,1.04-.01,2.02-.24,2.8-.69,1.1-.63,1.14-1.64,1.19-2.92.04-1.23.1-2.76,1.02-4.83.03-.06.05-.12.08-.18-.73,1.97-1.6,5.54.22,8.36-.4.57-1.1,1.41-2.11,1.59-.87.15-1.92-.22-2.87-1.02-.11-.1-.23-.2-.33-.31h-.05c-.41,0-.83-.03-1.24-.11.3.4.66.77,1.05,1.1.98.83,2.03,1.26,3.03,1.26.19,0,.38-.01.56-.04,1.2-.21,2.02-1.07,2.52-1.72,1.05,1.24,2.13,1.63,2.87,1.72,1.25.15,2.56-.33,3.73-1.35.27-.24.53-.51.75-.79-.34.06-.68.08-1.01.08-.1,0-.19,0-.28-.01-.01.02-.03.03-.05.05-.97.85-2.05,1.25-3.02,1.13-.89-.11-1.72-.65-2.47-1.6,1.77-2.86,1.2-6.34.6-8.38.06.11.11.24.16.36.89,2.12.96,3.71,1.02,4.88.03.63.05,1.2.21,1.68.15.49.44.9.98,1.21.72.41,1.61.64,2.57.67.3-.27.58-.57.81-.9-1.08.08-2.15-.1-2.93-.55-.64-.37-.69-.89-.75-2.15-.06-1.23-.14-2.91-1.08-5.18-.32-.76-.65-1.39-.91-1.9-.22-.41-.38-.74-.49-1,.02-.07.04-.15.06-.22.02.01.04.02.06.02.17.22.36.54.6.95.29.49.66,1.1,1.14,1.77,1.43,1.97,2.87,2.87,3.92,3.53,1.08.68,1.52.98,1.52,1.73,0,.97-.43,2.06-1.14,3,.41-.04.81-.11,1.21-.22.52-.9.82-1.88.82-2.78,0-1.28-.85-1.81-1.93-2.49-1.05-.65-2.35-1.47-3.68-3.3-.03-.04-.05-.08-.08-.11,1.36,1.62,3.99,4.12,7.32,3.94.29.63.67,1.66.32,2.62-.31.83-1.15,1.55-2.32,1.98-.15.05-.3.1-.45.14-.2.37-.45.72-.73,1.05.5-.06,1-.18,1.49-.35,1.43-.52,2.44-1.41,2.84-2.51.43-1.14.09-2.29-.23-3.04,1.61-.29,2.48-1.03,2.94-1.63.75-.99.99-2.38.68-3.9-.08-.38-.18-.76-.33-1.12ZM25.35,9.34c-1.6,2.71-5.24,3.51-6.94,3.74,1.24-1.38,3.78-3.69,6.94-3.74ZM5.34,8.92c2.94.1,5.31,2.58,6.4,3.96-1.81-.41-4.83-1.45-6.4-3.96ZM5.05,20.4c1.56-2.5,4.89-3.31,6.63-3.57-1.26,1.37-3.67,3.46-6.63,3.57ZM14.85,26.39c-1.38-2.6-.42-5.89.22-7.52.56,1.77,1.17,4.9-.22,7.52ZM15.2,10.95c-.55-1.77-1.17-4.9.22-7.52,1.39,2.6.42,5.89-.22,7.52ZM18.53,16.94c1.82.41,4.83,1.45,6.4,3.95-2.93-.09-5.3-2.58-6.4-3.95Z"/>
    <path class="cls-3" d="M29.16,14.03c-.11.39-.25.77-.43,1.13.13.33.24.66.31,1.01.23-.36.42-.74.58-1.15-.12-.35-.28-.68-.46-.99ZM21.75,26.74c-.23.33-.51.63-.81.9.09.01.18.01.28.01.33,0,.67-.02,1.01-.08.28-.33.53-.68.73-1.05-.4.11-.8.18-1.21.22Z"/>
  </g>
  <path class="cls-2" d="M15.08,4.88c1-.17,1.79-.04,2.42.37s1.08,1.12,1.37,2.08c.42,1.62.67,3.17.67,4.67,0,1.29-.42,2.25-1.25,2.87-.79.62-1.87.83-3.17.58,0,0-.5,0-1.46-.12-.08,2-.17,3.04-.17,3.17v.71c0,.12,0,.29-.04.5s-.08.33-.08.37-.08.12-.17.17c-.12.08-.21.12-.29.08-.08,0-.21,0-.42-.04-.21,0-.42-.08-.58-.12-.17,0-.42-.12-.79-.25,0-.33.08-.79.17-1.42.08-.58.12-1.08.17-1.5.04-.37.08-.83.21-1.37.08-.54.17-1,.29-1.46,0-.17.08-.29.25-.42.12-.12.37-.25.67-.42s.5-.25.58-.29h.29s.08,0,.17.04h.12c1.62.33,2.67.25,3.17-.21.5-.5.58-1.54.29-3.17-.29-1.58-.79-2.5-1.5-2.83s-1.79-.12-3.17.67c-.17.08-.29.17-.33.17-.08.04-.17.08-.29.08s-.21.04-.21.04c0,0-.08,0-.21-.08-.08-.04-.17-.12-.21-.17s-.12-.17-.25-.29c-.12-.17-.21-.29-.29-.42-.08-.12-.21-.29-.37-.58.33-.12.83-.29,1.46-.58.62-.25,1.21-.46,1.71-.62s.96-.29,1.42-.37l-.17.17ZM12.96,22.38s.29,0,.42.12.37.25.62.46c.29.21.5.37.71.54-.17.12-.42.33-.67.54-.25.25-.46.42-.62.5s-.29.17-.42.17c-.21,0-.46-.17-.71-.42s-.37-.5-.42-.71c0-.21.12-.46.37-.71.25-.29.5-.42.71-.42v-.08Z"/>
  <path class="cls-3" d="M11.79,29.81c-1.42,0-2.98-.88-4.14-2.37-1.97-.34-3.5-1.39-4.11-2.84-.41-.98-.4-2.09.03-3.33-.82-.11-1.95-.41-2.72-1.33-1.01-1.21-1.13-3.24-.33-5.21C-.16,12.85,0,11,.93,9.75c.63-.84,1.65-1.41,2.9-1.64-.31-.77-.62-1.89-.21-3.02.55-1.48,2.25-2.6,4.37-2.9C9.25.68,10.96-.14,12.49.05c1.06.13,2.02.7,2.87,1.69.5-.65,1.31-1.48,2.5-1.69,1.56-.27,3.39.64,4.68,2.32,1.97.34,3.5,1.39,4.11,2.84.41.98.4,2.1-.03,3.33.82.11,1.95.41,2.72,1.33,1.01,1.21,1.13,3.24.33,5.22.69,1.89.54,3.73-.4,4.97-.64.84-1.65,1.41-2.91,1.64.31.76.62,1.89.21,3.02-.55,1.49-2.25,2.61-4.37,2.9-1.26,1.51-2.95,2.33-4.49,2.13-1.05-.13-2.05-.73-2.88-1.69-.51.65-1.33,1.48-2.51,1.69-.18.03-.36.05-.55.05h.02ZM8.07,3.19c-1.71.25-3.1,1.14-3.51,2.25-.4,1.09.17,2.28.45,2.85l.32.65-.72.07c-1.28.11-2.3.59-2.87,1.34-.75,1-.83,2.61-.2,4.21l.08.19-.08.19c-.73,1.66-.68,3.41.11,4.36.75.9,2.06,1,2.69,1.04l.71.05-.29.65c-.55,1.24-.64,2.3-.28,3.18.49,1.15,1.84,2.02,3.54,2.27l.21.03.12.17c1.08,1.46,2.62,2.29,3.83,2.09,1.15-.2,1.89-1.29,2.25-1.81l.41-.6.42.59c.42.61,1.32,1.66,2.6,1.82,1.23.15,2.66-.58,3.71-1.92l.13-.17.21-.02c1.81-.2,3.32-1.11,3.74-2.28.41-1.1-.17-2.28-.45-2.85l-.32-.66.72-.07c.74-.06,2.11-.32,2.88-1.34.75-.99.82-2.6.19-4.2l-.08-.19.08-.19c.74-1.69.7-3.41-.11-4.37-.75-.9-2.06-.99-2.69-1.04l-.71-.05.29-.65c.55-1.24.64-2.3.28-3.17-.49-1.15-1.84-2.02-3.54-2.27l-.21-.03-.12-.17c-1.07-1.46-2.6-2.3-3.83-2.09-1.17.21-1.92,1.33-2.24,1.81l-.4.6-.42-.59c-.78-1.09-1.66-1.7-2.61-1.83-1.2-.14-2.58.54-3.63,1.8l-.22.28"/>
</svg>