<?xml version="1.0" encoding="UTF-8"?>
<svg id="Layer_1" data-name="Layer 1" xmlns="http://www.w3.org/2000/svg" viewBox="0 0 32 32">
  <defs>
    <style>
      .cls-1 {
        fill: #37622f;
      }

      .cls-1, .cls-2, .cls-3, .cls-4 {
        stroke-width: 0px;
      }

      .cls-2 {
        fill: #597f39;
      }

      .cls-3 {
        fill: #c3d340;
      }

      .cls-4 {
        fill: #82ab40;
      }
    </style>
  </defs>
  <path class="cls-3" d="M18.84,5.02c.26.07.35.03.53-.22.12-.08.26-.39.38-.48.25.27.3.71.31,1.12-.23.3-.47.67-.77.85-.04-.27-.07-.67-.19-.9-.3-.16-1.15-.12-1.56-.14-4.16.07-8.29,1.29-12.04,3.03-1.18.58-2.51,1.33-3.42,2.25,1.39.22,4.69-.69,10.95-.67,11.26.02,16.32,2.98,17.27,1.28.89-1.57-2.1-6.46-6.9-9.31-2.22-1.16-4.74-1.83-7.42-1.83C10.23,0,5.18,3.07,2.37,7.65c2.4-1.15,4.87-1.64,7.52-2.22,2.94-.53,5.98-.93,8.95-.42Z"/>
  <path class="cls-4" d="M27.04,18.67c-.07.26-.03.35.22.53.08.12.39.26.48.38-.27.25-.71.3-1.12.31-.3-.23-.67-.47-.85-.77.27-.04.67-.07.9-.19.16-.3.12-1.15.14-1.56-.07-4.16-1.29-8.29-3.03-12.04-.58-1.18-1.33-2.51-2.25-3.42-.22,1.39.69,4.69.67,10.95-.02,11.26-2.98,16.32-1.28,17.27,1.6.9,6.61-2.18,9.44-7.13,1.04-2.12,1.64-4.5,1.64-7.02,0-5.69-2.98-10.68-7.46-13.51,1.05,2.31,1.52,4.69,2.08,7.23.53,2.94.93,5.98.42,8.95Z"/>
  <path class="cls-2" d="M13.94,27.34c-.26-.04-.35.01-.5.27-.11.09-.22.41-.33.51-.27-.25-.36-.69-.41-1.07.2-.32.39-.71.69-.92.07.27.12.65.27.87.31.13,1.16.01,1.55-.02,4.11-.49,8.08-2.14,11.61-4.23,1.1-.71,2.37-1.57,3.17-2.58-1.41-.08-4.58,1.18-10.81,1.79-11.15,1.13-16.46-1.29-17.23.49-.15.34-.1.81.09,1.36,2.74,4.88,7.96,8.19,13.95,8.19,2.69,0,5.22-.67,7.44-1.84,3.48-2.09,6.06-5.2,7.02-7.39h.01c-2.38,1.59-4.95,2.36-7.71,3.26-2.86.81-5.83,1.52-8.82,1.32Z"/>
  <path class="cls-1" d="M0,16c0,1.06.11,3.21,1.06,5.7.79,2.08,1.84,3.53,2.46,4.3,1.98,2.47,4.26,3.8,5.68,4.48-1.66-3.06-2.61-5.82-3.17-7.89-1.22-4.48-1.37-8.53-1.32-8.82.04-.26-.01-.35-.27-.5-.09-.11-.41-.22-.51-.33.25-.27.69-.36,1.07-.41.32.2.71.39.92.69-.27.07-.65.12-.87.27-.13.31-.01,1.16.02,1.55.49,4.11,2.14,8.08,4.23,11.61.71,1.1,1.57,2.37,2.58,3.17.08-1.41-1.18-4.58-1.79-10.81-1.13-11.15,1.29-16.46-.49-17.23-.22-.1-.51-.1-.83-.05C3.57,4.38,0,9.77,0,16Z"/>
</svg>