<?xml version="1.0" encoding="utf-8"?>
<!-- Generator: Adobe Illustrator 28.3.0, SVG Export Plug-In . SVG Version: 6.00 Build 0)  -->
<svg version="1.1" id="Layer_1" xmlns="http://www.w3.org/2000/svg" xmlns:xlink="http://www.w3.org/1999/xlink" x="0px" y="0px"
	 viewBox="0 0 30.2 29.8" style="enable-background:new 0 0 30.2 29.8;" xml:space="preserve">
<style type="text/css">
	.st0{fill:#D85C9A;}
	.st1{opacity:0.25;}
	.st2{fill:#9F4592;}
	.st3{fill:#633762;stroke:#633762;stroke-miterlimit:10;}
</style>
<path class="st0" d="M29.2,15.1c0.6,1.6,0.7,3.4-0.3,4.7s-2.8,1.5-3.2,1.5c0.3,0.6,1,2,0.5,3.2c-0.5,1.5-2.3,2.4-4.2,2.6
	c-1.1,1.4-2.6,2.3-4.2,2.1c-1.6-0.2-2.7-1.6-2.9-2c-0.4,0.6-1.2,1.8-2.6,2C10.8,29.5,9.1,28.5,8,27c-1.7-0.2-3.3-1.1-3.9-2.6
	s0.1-3.1,0.3-3.6c-0.7,0-2.2-0.2-3-1.2c-1-1.2-0.9-3.2-0.2-4.9c-0.6-1.6-0.7-3.4,0.3-4.7s2.8-1.5,3.2-1.5c-0.3-0.6-1-1.9-0.5-3.2
	c0.5-1.5,2.3-2.4,4.2-2.6l0,0c1.1-1.4,2.6-2.3,4.2-2.1s2.7,1.6,2.9,2c0.4-0.6,1.2-1.8,2.6-2c1.5-0.3,3.2,0.8,4.3,2.3
	C24,3.1,25.6,4,26.3,5.4C26.9,6.9,26.2,8.5,26,9c0.7,0.1,2.2,0.2,3,1.2C30,11.4,29.9,13.4,29.2,15.1z"/>
<g class="st1">
	<path class="st2" d="M8.1,2.2C7.8,2.6,7.5,2.9,7.3,3.3c0.4-0.1,0.8-0.2,1.2-0.2C8.8,2.7,9,2.4,9.3,2.2C8.9,2.1,8.5,2.2,8.1,2.2z
		 M1.2,13.6C1,14,0.8,14.3,0.6,14.7c0.1,0.4,0.3,0.8,0.6,1.2c0.1-0.4,0.2-0.8,0.4-1.1C1.4,14.4,1.3,14,1.2,13.6z"/>
	<path class="st2" d="M29.2,14c-0.1,0.4-0.2,0.8-0.4,1.1c0.1,0.3,0.2,0.7,0.3,1c0.2-0.4,0.4-0.7,0.6-1.1
		C29.5,14.7,29.3,14.3,29.2,14z M22.6,2.5c-0.4-0.1-0.9-0.1-1.3-0.1c0.2,0.2,0.5,0.5,0.7,0.8c0.4,0,0.8,0.1,1.2,0.3
		C23.1,3.1,22.9,2.8,22.6,2.5z"/>
	<path class="st2" d="M1.2,13.6C1,14,0.8,14.3,0.6,14.7c0.1,0.4,0.3,0.8,0.6,1.2c0.1-0.4,0.2-0.8,0.4-1.1C1.4,14.4,1.3,14,1.2,13.6z
		 M8.2,26.5c-0.4,0-0.8-0.1-1.2-0.3c0.2,0.4,0.4,0.7,0.7,1.1c0.4,0.1,0.8,0.1,1.2,0.1H9C8.7,27.2,8.4,26.9,8.2,26.5z"/>
	<path class="st2" d="M8.2,26.5c-0.4,0-0.8-0.1-1.2-0.3c0.2,0.4,0.4,0.7,0.7,1.1c0.4,0.1,0.8,0.1,1.2,0.1H9
		C8.7,27.2,8.4,26.9,8.2,26.5z M21.8,26.7c-0.2,0.3-0.5,0.6-0.8,0.9c0.1,0,0.2,0,0.3,0c0.3,0,0.7,0,1-0.1c0.3-0.3,0.5-0.7,0.7-1
		C22.6,26.6,22.2,26.7,21.8,26.7z"/>
	<path class="st2" d="M8.1,2.2C7.8,2.6,7.5,2.9,7.3,3.3c0.4-0.1,0.8-0.2,1.2-0.2C8.8,2.7,9,2.4,9.3,2.2C8.9,2.1,8.5,2.2,8.1,2.2z
		 M22.6,2.5c-0.4-0.1-0.9-0.1-1.3-0.1c0.2,0.2,0.5,0.5,0.7,0.8c0.4,0,0.8,0.1,1.2,0.3C23.1,3.1,22.9,2.8,22.6,2.5z"/>
	<path class="st2" d="M29.6,15c-0.2,0.4-0.4,0.8-0.6,1.1v0.1c0.2,1.3,0.1,2.4-0.5,3.2c-0.5,0.7-1.4,1.2-2.6,1.3
		c-1.8-3.2-5.5-4.4-7.5-4.8c0.3,0,0.6,0,1,0.1c2.3,0.3,3.7,1,4.8,1.6c0.7,0.4,1.4,0.7,2,0.7c0.3,0,0.7-0.1,1-0.3
		c0.7-0.4,1.4-1.1,1.9-1.9c-0.1-0.4-0.2-0.7-0.3-1c-0.5,1-1.2,1.8-1.9,2.3c-0.7,0.4-1.2,0.1-2.3-0.4c-1.1-0.6-2.6-1.3-5-1.6
		c-0.8-0.1-1.5-0.1-2.1-0.2c-0.4,0-0.8,0-1-0.1l0,0c0-0.1-0.1-0.1-0.2-0.2l0.1-0.1c0.3,0,0.6,0,1,0c0.6,0,1.3,0,2.1-0.1
		c2.4-0.3,3.9-1.1,5-1.6c1.1-0.6,1.6-0.8,2.3-0.4c0.9,0.5,1.6,1.4,2.1,2.6c0.2-0.4,0.3-0.7,0.4-1.1c-0.5-0.9-1.2-1.7-2-2.2
		c-1.1-0.6-2-0.2-3.1,0.4c-1.1,0.6-2.5,1.3-4.7,1.5C19,14,18.6,14,18.2,14c1.6-0.1,6.3-0.9,8.2-4.5c0.7,0.1,1.8,0.2,2.5,1.1
		c0.6,0.7,0.8,1.8,0.6,3.1c0,0.2-0.1,0.4-0.1,0.5C29.3,14.3,29.5,14.7,29.6,15c0.2-0.4,0.3-0.9,0.4-1.4c0.3-1.5,0-2.8-0.7-3.7
		c-0.8-0.9-2-1.2-2.8-1.3c0.6-1.6,0.4-2.7,0.1-3.4c-0.5-1.1-1.5-2-3-2.5c-0.3-0.1-0.6-0.2-1-0.2c0.2,0.3,0.4,0.6,0.6,0.9h0.1
		c1.2,0.4,2.1,1.2,2.5,2.1c0.4,0.8,0.3,1.9-0.2,3c-3.6-0.1-6.5,2.5-7.9,4c0.1-0.2,0.3-0.5,0.5-0.8c1.4-1.8,2.7-2.7,3.7-3.3
		C23.1,7.9,24,7.3,24,6.1c0-0.9-0.3-1.8-0.8-2.6c-0.4-0.1-0.8-0.2-1.2-0.3c0.7,0.9,1.1,2,1.1,2.9c0,0.8-0.4,1.1-1.5,1.7
		c-1,0.7-2.5,1.6-3.9,3.5c-0.5,0.6-0.9,1.2-1.2,1.7c-0.2,0.4-0.4,0.7-0.6,0.9c-0.1,0-0.1,0-0.1,0c0-0.1,0-0.2-0.1-0.3l0,0
		c0.1-0.2,0.3-0.5,0.4-0.8c0.3-0.5,0.6-1.1,1-1.9c1-2.2,1-3.9,1.1-5.1c0-1.3,0.1-1.8,0.8-2.2C19.7,3.2,20.5,3,21.4,3
		c0.2,0,0.5,0,0.7,0c-0.2-0.3-0.4-0.5-0.7-0.8c-1,0-2.1,0.2-2.9,0.7c-1.1,0.6-1.1,1.6-1.1,2.9c0,1.2-0.1,2.8-1,4.8
		c-0.2,0.4-0.4,0.8-0.6,1.2c0.6-1.4,2.4-6,0.2-9.4C16.3,2,17,1.2,18.1,1C19,0.9,20,1.2,21,2c0.1,0.1,0.3,0.3,0.4,0.4
		c0.4,0,0.9,0,1.3,0.1c-0.3-0.4-0.7-0.8-1.1-1.2c-1.2-1-2.4-1.4-3.6-1.2s-2,1.1-2.5,1.7c-0.9-1-1.8-1.6-2.9-1.7
		C11.3-0.1,10,0.4,8.8,1.5C8.5,1.7,8.3,2,8,2.2c0.4-0.1,0.9-0.1,1.3-0.1l0,0C10.2,1.4,11.2,1,12.1,1c0.1,0,0.2,0,0.3,0
		c0.9,0.1,1.7,0.6,2.5,1.6c-1.8,2.8-1.2,6.3-0.6,8.3c-0.1-0.1-0.1-0.2-0.1-0.3c-0.9-2.1-1-3.7-1-4.9c0-0.6-0.1-1.2-0.2-1.7
		c-0.2-0.5-0.4-0.9-1-1.2c-0.7-0.4-1.6-0.7-2.6-0.7C9,2.4,8.7,2.7,8.5,3.1c0.2,0,0.4,0,0.6,0c0.9,0,1.7,0.2,2.4,0.6
		c0.6,0.4,0.7,0.9,0.8,2.2c0.1,1.2,0.1,2.9,1.1,5.2c0.3,0.8,0.6,1.4,0.9,1.9c0.2,0.5,0.4,0.8,0.5,1.1v0.1c-0.1,0-0.1-0.1-0.2-0.1
		c-0.1-0.2-0.3-0.5-0.5-0.9c-0.3-0.5-0.7-1.1-1.1-1.8c-1.4-2-2.9-2.9-3.9-3.5C8,7.2,7.6,6.9,7.6,6.2c0-1,0.4-2.1,1.1-3
		c-0.4,0-0.8,0.1-1.2,0.2c-0.7,0.8-1,1.8-1,2.7c0,1.3,0.8,1.8,1.9,2.5c1.1,0.7,2.3,1.5,3.7,3.3c0,0.1,0.1,0.1,0.1,0.2
		c-1.3-1.6-4-4.1-7.3-4C4.6,7.4,4.2,6.4,4.5,5.4c0.3-0.8,1.2-1.5,2.3-2c0.1,0,0.3-0.1,0.4-0.1C7.5,2.9,7.7,2.6,8,2.2
		C7.5,2.3,7,2.4,6.5,2.6C5.1,3.1,4.1,4,3.7,5.1s-0.1,2.3,0.2,3C2.6,8.4,1.6,8.9,1,9.8c-0.8,1-1,2.4-0.7,3.9c0.1,0.4,0.2,0.7,0.3,1
		c0.2-0.4,0.4-0.8,0.6-1.1c0,0,0,0,0-0.1c-0.2-1.3-0.1-2.4,0.5-3.2C2.3,9.6,3.1,9.1,4.3,9c1.6,3,4.9,4.2,7,4.7c-0.1,0-0.3,0-0.4-0.1
		c-2.3-0.3-3.7-1-4.7-1.6c-0.7-0.4-1.4-0.7-2-0.7c-0.3,0-0.7,0.1-1.1,0.3c-0.7,0.4-1.4,1.1-1.9,1.9c0.1,0.4,0.2,0.8,0.4,1.2
		c0.5-1,1.2-1.8,1.9-2.3c0.6-0.4,1.1-0.2,2.2,0.4c1.1,0.6,2.6,1.3,5,1.7c0.8,0.1,1.5,0.1,2.1,0.2c0.5,0,0.8,0,1.1,0.1l0.1,0.1
		L13.9,15c-0.3,0-0.6,0-1,0c-0.6,0-1.3,0-2.1,0.1c-2.4,0.2-3.9,1-5,1.6s-1.6,0.8-2.3,0.5c-0.8-0.5-1.6-1.4-2-2.5
		c-0.2,0.4-0.3,0.7-0.4,1.1c0.5,0.9,1.2,1.6,2,2.1c0.4,0.2,0.7,0.3,1.1,0.3c0.7,0,1.3-0.4,2.1-0.7C7.4,17,8.7,16.2,11,16
		c0.1,0,0.2,0,0.3,0c-2.1,0.3-5.7,1.3-7.3,4.4c-0.7-0.1-1.8-0.2-2.4-1c-0.6-0.7-0.8-1.8-0.6-3c0-0.1,0.1-0.3,0.1-0.5
		c-0.2-0.4-0.4-0.8-0.6-1.2c-0.2,0.5-0.3,1-0.4,1.5c-0.3,1.5,0,2.8,0.8,3.7c0.8,0.9,1.9,1.2,2.8,1.3c-0.5,1.2-0.5,2.4-0.1,3.4
		c0.5,1.1,1.6,2,3,2.5c0.3,0.1,0.7,0.2,1.1,0.3C7.4,27,7.2,26.7,7,26.3c0,0,0,0-0.1,0c-1.2-0.4-2.1-1.1-2.5-2
		c-0.3-0.8-0.3-1.8,0.2-2.9c3.3,0.1,6.1-2.1,7.5-3.7C12,17.8,12,17.9,11.9,18c-1.4,1.8-2.7,2.7-3.7,3.3c-1.1,0.7-1.9,1.2-1.9,2.5
		c0,0.8,0.2,1.7,0.7,2.6c0.4,0.1,0.8,0.2,1.2,0.3c-0.6-0.9-1-1.9-1-2.8c0-0.7,0.4-1,1.5-1.7c1-0.7,2.4-1.6,3.9-3.5
		c0.5-0.7,0.9-1.3,1.2-1.7c0.2-0.4,0.4-0.7,0.6-0.9c0.1,0,0.1,0,0.1,0c0,0.1,0,0.1,0,0.1c-0.1,0.2-0.3,0.5-0.5,0.9
		c-0.3,0.5-0.6,1.1-1,1.9c-1,2.2-1.1,3.9-1.1,5.2c0,1.3-0.1,1.8-0.7,2.2c-0.8,0.5-2,0.7-3.1,0.5c0.2,0.3,0.5,0.7,0.8,0.9
		c1,0,2-0.2,2.8-0.7c1.1-0.6,1.1-1.6,1.2-2.9c0-1.2,0.1-2.8,1-4.8c0-0.1,0.1-0.1,0.1-0.2c-0.7,2-1.6,5.5,0.2,8.4
		c-0.4,0.6-1.1,1.4-2.1,1.6c-0.9,0.1-1.9-0.2-2.9-1C9.1,28.1,9,28,8.9,27.9H9c-0.4,0-0.8,0-1.2-0.1c0.3,0.4,0.7,0.8,1.1,1.1
		c1,0.8,2,1.3,3,1.3c0.2,0,0.4,0,0.6,0c1.2-0.2,2-1.1,2.5-1.7c1.1,1.2,2.1,1.6,2.9,1.7c1.2,0.1,2.6-0.3,3.7-1.4
		c0.3-0.2,0.5-0.5,0.8-0.8c-0.3,0.1-0.7,0.1-1,0.1c-0.1,0-0.2,0-0.3,0l0,0c-1,0.9-2,1.2-3,1.1c-0.9-0.1-1.7-0.6-2.5-1.6
		c1.8-2.9,1.2-6.3,0.6-8.4c0.1,0.1,0.1,0.2,0.2,0.4c0.9,2.1,1,3.7,1,4.9c0,0.6,0,1.2,0.2,1.7c0.1,0.5,0.4,0.9,1,1.2
		c0.7,0.4,1.6,0.6,2.6,0.7c0.3-0.3,0.6-0.6,0.8-0.9c-1.1,0.1-2.1-0.1-2.9-0.5c-0.6-0.4-0.7-0.9-0.8-2.1c-0.1-1.2-0.1-2.9-1.1-5.2
		c-0.3-0.8-0.6-1.4-0.9-1.9c-0.2-0.4-0.4-0.7-0.5-1c0-0.1,0-0.1,0.1-0.2c0,0,0,0,0.1,0c0.2,0.2,0.4,0.5,0.6,0.9
		c0.3,0.5,0.7,1.1,1.1,1.8c1.4,2,2.9,2.9,3.9,3.5c1.1,0.7,1.5,1,1.5,1.7c0,1-0.4,2.1-1.1,3c0.4,0,0.8-0.1,1.2-0.2
		c0.5-0.9,0.8-1.9,0.8-2.8c0-1.3-0.9-1.8-1.9-2.5c-1-0.6-2.4-1.5-3.7-3.3c0,0,0-0.1-0.1-0.1c1.4,1.6,4,4.1,7.3,3.9
		c0.3,0.6,0.7,1.7,0.3,2.6c-0.3,0.8-1.1,1.5-2.3,2c-0.1,0-0.3,0.1-0.5,0.1c-0.2,0.4-0.5,0.7-0.7,1c0.5-0.1,1-0.2,1.5-0.4
		c1.4-0.5,2.4-1.4,2.8-2.5s0.1-2.3-0.2-3c1.6-0.3,2.5-1,2.9-1.6c0.8-1,1-2.4,0.7-3.9C29.9,15.7,29.8,15.4,29.6,15z M25.4,9.3
		c-1.6,2.7-5.2,3.5-6.9,3.7C19.6,11.7,22.2,9.4,25.4,9.3z M5.3,8.9c2.9,0.1,5.3,2.6,6.4,4C9.9,12.5,6.9,11.4,5.3,8.9z M5.1,20.4
		c1.6-2.5,4.9-3.3,6.6-3.6C10.4,18.2,8,20.3,5.1,20.4z M14.9,26.4c-1.4-2.6-0.4-5.9,0.2-7.5C15.6,20.6,16.2,23.8,14.9,26.4z
		 M15.2,10.9C14.6,9.2,14,6,15.4,3.4C16.8,6,15.8,9.3,15.2,10.9z M18.5,16.9c1.8,0.4,4.8,1.5,6.4,4C22,20.8,19.6,18.3,18.5,16.9z"/>
	<path class="st2" d="M29.2,14c-0.1,0.4-0.2,0.8-0.4,1.1c0.1,0.3,0.2,0.7,0.3,1c0.2-0.4,0.4-0.7,0.6-1.1
		C29.5,14.7,29.3,14.3,29.2,14z M21.8,26.7c-0.2,0.3-0.5,0.6-0.8,0.9c0.1,0,0.2,0,0.3,0c0.3,0,0.7,0,1-0.1c0.3-0.3,0.5-0.7,0.7-1
		C22.6,26.6,22.2,26.7,21.8,26.7z"/>
</g>
<path class="st2" d="M11.8,29.8c-1.4,0-3-0.9-4.1-2.4c-2-0.3-3.5-1.4-4.1-2.8c-0.4-1-0.4-2.1,0-3.3c-0.8-0.1-2-0.4-2.7-1.3
	c-1-1.2-1.1-3.2-0.3-5.2c-0.7-1.9-0.5-3.7,0.4-5C1.6,9,2.6,8.4,3.9,8.2c-0.3-0.8-0.6-1.9-0.2-3c0.5-1.6,2.2-2.7,4.3-3
	c1.3-1.5,3-2.3,4.5-2.1c1.1,0.1,2,0.7,2.9,1.7c0.5-0.6,1.3-1.5,2.5-1.7c1.6-0.3,3.4,0.6,4.7,2.3c2,0.3,3.5,1.4,4.1,2.8
	c0.4,1,0.4,2.1,0,3.3c0.8,0.1,2,0.4,2.7,1.3c1,1.2,1.1,3.2,0.3,5.2c0.7,1.9,0.5,3.7-0.4,5c-0.6,0.8-1.6,1.4-2.9,1.6
	c0.3,0.8,0.6,1.9,0.2,3c-0.5,1.5-2.2,2.6-4.4,2.9c-1.3,1.5-3,2.3-4.5,2.1c-1-0.1-2.1-0.7-2.9-1.7c-0.5,0.6-1.3,1.5-2.5,1.7
	C12.1,29.8,12,29.8,11.8,29.8L11.8,29.8z M8.1,3.2C6.4,3.4,5,4.3,4.6,5.4S4.7,7.7,5,8.3l0.3,0.6L4.6,9c-1.3,0.1-2.3,0.6-2.9,1.3
	c-0.8,1-0.8,2.6-0.2,4.2l0.1,0.2l-0.1,0.2c-0.7,1.7-0.7,3.4,0.1,4.4c0.7,0.9,2.1,1,2.7,1H5L4.8,21c-0.6,1.2-0.6,2.3-0.3,3.2
	c0.5,1.1,1.8,2,3.5,2.3h0.2l0.1,0.2c1.1,1.5,2.6,2.3,3.8,2.1c1.1-0.2,1.9-1.3,2.2-1.8l0.4-0.6l0.4,0.6c0.4,0.6,1.3,1.7,2.6,1.8
	c1.2,0.1,2.7-0.6,3.7-1.9l0.1-0.2h0.2c1.8-0.2,3.3-1.1,3.7-2.3c0.4-1.1-0.2-2.3-0.5-2.9l-0.3-0.7l0.7-0.1c0.7-0.1,2.1-0.3,2.9-1.3
	s0.8-2.6,0.2-4.2L28.3,15l0.1-0.2c0.7-1.7,0.7-3.4-0.1-4.4c-0.8-0.9-2.1-1-2.7-1l-0.7-0.1l0.3-0.6c0.5-1.2,0.6-2.3,0.3-3.2
	c-0.5-1.2-1.8-2-3.5-2.3h-0.2L21.7,3c-0.9-1.3-2.4-2.2-3.7-2c-1.2,0.2-1.9,1.3-2.2,1.8l-0.4,0.6L15,2.9c-0.8-1.1-1.7-1.7-2.6-1.8
	C11.2,1,9.8,1.6,8.8,2.9L8.5,3.1"/>
<g>
	<path class="st3" d="M15.2,7.9c0.1,0.1,0.2,0.2,0.4,0.4c0.4,0.5,0.7,0.8,1.1,1.3c0.4,0.4,0.2,0.8-0.1,1.1c-0.4,0.2-0.8,0.2-1.1,0
		c-1-1-1.8-1.9-2.7-3c-0.4-0.4-0.2-0.8,0.1-1.1c1-1,1.9-1.8,3-2.6c0.4-0.4,0.8-0.2,1.2,0.1s0.4,0.8,0,1.1c-0.4,0.4-0.7,0.7-1.1,1
		c0,0,0,0,0,0.1c0.2,0,0.4,0.1,0.6,0.1c6.6,1.1,9.7,8.7,5.6,14.1c-0.4,0.4-0.7,0.7-1.1,1.1s-0.8,0.4-1.2,0c-0.4-0.4-0.4-0.8,0-1.2
		c1.6-1.6,2.4-3.3,2.3-5.5c0-3.6-3.1-6.7-6.6-6.9C15.5,7.9,15.4,7.9,15.2,7.9L15.2,7.9z"/>
	<path class="st3" d="M14.3,23.7c-0.4,0-0.7-0.1-1-0.1c-6.4-1.3-9.2-8.7-5.3-14c0.2-0.4,0.7-0.7,1.1-1.1s0.8-0.4,1.2,0
		c0.4,0.4,0.4,0.8,0,1.2c-1.1,1.1-1.9,2.4-2.1,3.9c-0.5,2.5,0.2,4.8,2.1,6.4c1.2,1.2,2.6,1.8,4.3,1.9c0.1,0,0.2,0,0.5,0
		c-0.1-0.2-0.2-0.4-0.4-0.5c-0.4-0.5-0.7-0.8-1.1-1.2c-0.4-0.4-0.4-0.8,0-1.2c0.4-0.4,0.8-0.4,1.2,0c0.8,1,1.8,1.9,2.6,2.9
		c0.4,0.4,0.4,0.8,0,1.2c-1,0.8-1.9,1.8-2.9,2.6c-0.4,0.4-0.8,0.4-1.2,0s-0.2-0.8,0.1-1.2C13.6,24.5,14,24.1,14.3,23.7
		C14.3,23.8,14.3,23.8,14.3,23.7L14.3,23.7z"/>
</g>
</svg>
