<?xml version="1.0" encoding="utf-8"?>
<!-- Generator: Adobe Illustrator 28.3.0, SVG Export Plug-In . SVG Version: 6.00 Build 0)  -->
<svg version="1.1" id="Layer_1" xmlns="http://www.w3.org/2000/svg" xmlns:xlink="http://www.w3.org/1999/xlink" x="0px" y="0px"
	 viewBox="0 0 25.8 27.6" style="enable-background:new 0 0 25.8 27.6;" xml:space="preserve">
<style type="text/css">
	.st0{fill:#955949;stroke:#5C3942;stroke-width:0.55;}
	.st1{fill:none;stroke:#5C3942;stroke-width:0.55;}
	.st2{fill:#82AB40;stroke:#597F39;stroke-width:0.75;}
	.st3{fill:none;stroke:#597F39;stroke-width:0.75;}
</style>
<path class="st0" d="M12.8,9.7c-0.3,2.6-0.7,5.7-1.6,9.2c-0.8,3.3-1.8,6.2-2.7,8.5h8.7c-1-2.1-2-4.9-2.9-8.2
	C13.4,15.5,13,12.3,12.8,9.7L12.8,9.7z"/>
<path class="st1" d="M12.8,13.9c-0.2,2-0.6,4.3-1.2,6.9c-0.6,2.5-1.3,4.7-2,6.4h6.6c-0.7-1.6-1.5-3.7-2.2-6.2
	C13.3,18.3,13,15.9,12.8,13.9z"/>
<path class="st1" d="M12.8,18.1c-0.1,1.3-0.4,2.9-0.8,4.6c-0.4,1.7-0.9,3.1-1.4,4.3h4.4c-0.5-1.1-1-2.5-1.5-4.2
	C13.2,21.1,13,19.4,12.8,18.1L12.8,18.1z"/>
<g>
	<path class="st2" d="M25.2,13.2c0.4,1.3,0.4,2.7,0,4c-1.1,3.4-4.8,5.3-8.2,4.1c-2-0.7-3.5-2.2-4.1-4.1c-0.6,1.9-2.1,3.5-4.2,4.1
		c-3.4,1.1-7.1-0.8-8.1-4.1c-0.4-1.4-0.4-2.8,0-4c-0.4-1.2-0.4-2.6,0-4C1,7.9,1.9,6.8,2.9,6c0.4-1.2,1.2-2.4,2.3-3.2
		c1.2-0.8,2.5-1.2,3.8-1.2c1.1-0.8,2.4-1.2,3.8-1.2s2.7,0.4,3.8,1.2c1.3,0,2.7,0.4,3.8,1.2c1.1,0.8,2,2,2.4,3.2
		c1.1,0.8,1.9,1.9,2.4,3.2S25.6,12,25.2,13.2z"/>
	<g>
		<circle class="st3" cx="12.9" cy="6.8" r="6.5"/>
		<circle class="st3" cx="9.1" cy="8" r="6.5"/>
		<circle class="st3" cx="6.8" cy="11.2" r="6.5"/>
		<circle class="st3" cx="6.8" cy="15.2" r="6.5"/>
		<circle class="st3" cx="19.1" cy="15.2" r="6.5"/>
		<circle class="st3" cx="19.1" cy="11.2" r="6.5"/>
		<circle class="st3" cx="16.7" cy="8" r="6.5"/>
	</g>
</g>
</svg>
